<svg width="1920" height="1549" viewBox="0 0 1920 1549" fill="none" xmlns="http://www.w3.org/2000/svg">
<g clip-path="url(#clip0_34_2344)">
<path d="M960.5 0C328.828 0 -184 512.828 -184 1144.5C-184 1776.17 328.828 2289 960.5 2289C1591.03 2289 2102.96 1778 2104.82 1147.89C2104.93 1146.76 2104.99 1145.63 2105 1144.5C2105 1143.48 2104.95 1142.47 2104.86 1141.46C2103.21 511.179 1591.17 0 960.5 0ZM960.5 68.67C999.207 68.67 1037.41 70.8217 1075.09 74.8045C1075.36 79.7488 1065.86 83.1594 1037.04 82.0378C1022.17 95.0393 1025.37 97.2138 967.001 99.1595C955.281 150.113 819.063 120.905 908.013 94.6959C1037.25 64.6414 866.582 63.5426 837.375 113.832C920.282 149.472 771.131 120.127 744.075 146.107C727.64 129.214 691.382 115.366 651.577 113.832C751.81 83.8506 855.878 68.6368 960.5 68.67ZM1782.66 450.567C1813.35 486.962 1841.59 525.348 1867.2 565.475C1868.27 573.944 1868.57 582.344 1867.52 590.654C1882.23 635.014 1854.03 592.714 1853.3 587.083C1816.72 549.223 1802.83 499.551 1782.66 450.567ZM156.969 455.03C178.097 452.055 64.448 546.316 110.755 536.45C155.23 435.505 177.273 554.945 111.739 562.27C57.7184 695.65 181.508 493.6 182.606 566.115C149.53 636.823 187.276 681.504 250.956 648.703C312.003 624.393 263.11 687.753 298.247 686.7C345.858 621.235 330.201 689.859 290.967 738.111C228.981 766.22 170.154 718.769 128.769 682.809C83.4467 776.04 47.2577 644.674 77.6785 608.416C118.56 596.284 79.3266 570.877 63.0975 550.917C69.7128 540.959 76.5569 531.162 83.4697 521.411C90.6571 516.078 92.9919 511.935 92.7859 508.364C101.347 496.69 110.228 485.245 119.247 473.937C140.26 461.623 152.323 455.694 156.969 455.03ZM376.095 455.397C373.555 492.249 478.414 480.415 472.005 546.178C436.594 571.93 408.782 529.011 376.095 525.531C277.417 559.683 314.888 482.109 376.095 455.397ZM662.472 462.676C670.896 462.973 676.778 467.116 677.648 476.226C597.762 499.78 670.186 596.925 663.823 659.118C607.216 679.329 536.394 629.154 611.29 583.809C541.819 532.192 625.986 461.371 662.472 462.676ZM1759.27 548.65C1793.42 544.919 1831.08 602.602 1863.76 662.345C1848.65 556.868 1953.42 806.3 1910.39 663.261C1912.63 658.431 1914.14 653.395 1915.13 648.245C1994.94 801.474 2036.53 971.73 2036.33 1144.5C2036.33 1192.18 2032.9 1239.04 2026.9 1285.04C2013.78 1287.01 2013.12 1407.32 1991.08 1376.74C1972.05 1392.9 2040.93 1249.27 1990.55 1338.58C1911.42 1420.76 1955.44 1278.82 1985.15 1239.24C2007.01 1251.14 2025.94 1226.77 2013.49 1169.54C2004.56 1076.61 1961.62 1047.24 1939.78 964.15C1903.48 981.889 1961.41 1103.09 1940.92 1158.53C1924.21 1230.86 1890.73 1402.68 1822.9 1390.48C1785.91 1304.91 1830.92 1469.22 1812.21 1499.96C1826.61 1521.27 1934.4 1543.77 1919.96 1452.39C1960.11 1339.93 1937.35 1438.2 1934.08 1500.76C1988.51 1542.88 1842.52 1601.57 1893.31 1560.23C1855.64 1545.44 1824.6 1587.35 1792.41 1583.03C1764.6 1607.27 1762.38 1563.07 1774.56 1548.55C1859.55 1509.32 1735.62 1523.33 1755.93 1482.63C1766.46 1393.73 1695.68 1334.4 1661.16 1277.01C1645.55 1166.34 1751.46 1247.69 1746.73 1291.04C1860.26 1240.25 1814.82 1090.46 1745.88 1022.89C1792.76 925.351 1765.38 1034.51 1800.81 1048.57C1809.35 985.208 1829.72 951.194 1872.16 896.739C1899.86 798.838 1863.79 698.9 1794.11 629.063C1831.88 579.14 1712.85 562.751 1752.49 550.207C1754.74 549.406 1757 548.902 1759.27 548.65ZM543.581 836.561C533.601 896.418 671.399 913.357 621.705 950.461C608.498 955.223 594.466 960.647 580.091 957.122C587.553 924.298 475.736 835.165 543.581 836.561ZM257.044 852.813C266.269 850.89 280.324 871.72 276.135 908.138C292.158 999.927 325.074 1081.99 339.38 1169.4C340.753 1209.23 321.8 1173.52 315.734 1162.13C263.431 1090.82 273.022 991.732 255.19 902.141C245.645 869.637 249.857 854.346 257.022 852.836L257.044 852.813ZM673.436 946.089C733.454 976.258 863.149 936.338 924.998 996.47C965.971 950.164 918.634 1068.99 988.083 1075.56C1063.67 1046.83 1024.18 1121.88 1051.35 1172.38C1090.88 1243.34 1100.11 1352.09 1170.97 1394.73C1237.9 1303.59 1199.33 1494.63 1274.12 1430.99C1289.48 1353.81 1213.82 1296.56 1236.81 1212.85C1279.66 1162.67 1346.04 1115.13 1382.16 1051.73C1441.72 990.382 1496.33 1036.8 1528.49 1096.75C1524.23 1156.15 1553.35 1176.41 1602.59 1143.04C1628.22 1221.32 1598.4 1323.87 1670.71 1381.62C1729.1 1516.14 1594.8 1325.77 1569.58 1407.32C1624.63 1459.51 1609.64 1511.15 1647.57 1565.42C1683.64 1559.15 1721.87 1634.19 1776.32 1631.19C1825.67 1614.73 1895.81 1617.32 1941.43 1586.48C1911.77 1652.28 1875.55 1714.92 1833.32 1773.45C1799.62 1803.92 1773.09 1839.81 1748.33 1877.12C1551.95 2088.21 1271.85 2220.33 960.5 2220.33C719.453 2220.67 485.335 2139.7 296.003 1990.51C288.564 1949.31 318.664 1956.43 303.488 1919.99C228.867 1846.99 396.422 1860.57 335.397 1775.28C313.148 1718.35 277.76 1648.88 294.721 1590.85C330.773 1533.58 394.659 1505.36 443.735 1456.47C475.415 1395.86 538.042 1339.02 525.544 1270.44C482.831 1263.48 458.866 1277.45 409.789 1279.3C288.862 1250.82 454.196 1232.7 487.043 1207.36C563.542 1185.45 651.851 1158.21 700.08 1092.52C771.108 1048.66 729.425 980.424 673.436 946.089ZM1962.07 1142.76C1973.66 1148.14 1983.82 1228.67 1960.29 1261.44C1936.09 1301.87 1923.62 1205.14 1948.43 1193.51C1951.25 1153.36 1956.81 1140.31 1962.07 1142.76ZM1986.38 1416.23C1988.63 1415.82 1991.63 1420.53 1996.09 1433.01C1996.59 1432.27 1996.94 1432.09 1997.44 1431.4C1989.9 1459.06 1981.25 1486.41 1971.51 1513.37C1957.38 1523.83 1944.33 1528.96 1949.97 1499.48C1981.97 1516.39 1976.7 1418.06 1986.38 1416.23ZM496.405 1805.49C487.844 1806.52 478.322 1814.26 468.319 1831.15C378.316 1839.35 413.727 1943.32 453.166 1992.94C482.236 2033.68 531.404 2016.45 522.637 1964.51C553.15 1922.1 533.487 1801.05 496.405 1805.49Z" fill="#EDEDED"/>
</g>
<defs>
<clipPath id="clip0_34_2344">
<rect width="2289" height="2289" fill="white" transform="translate(-184)"/>
</clipPath>
</defs>
</svg>
