<svg width="60" height="23" viewBox="0 0 60 23" fill="none" xmlns="http://www.w3.org/2000/svg">
<path d="M0.078125 2.3125C0.078125 2.03906 0.101562 1.80078 0.148438 1.59766C0.195312 1.39453 0.285156 1.22656 0.417969 1.09375C0.550781 0.953125 0.734375 0.847656 0.96875 0.777344C1.20312 0.707031 1.50781 0.671875 1.88281 0.671875H7.10938C7.5625 0.671875 7.90625 0.738281 8.14062 0.871094C8.38281 1.00391 8.55078 1.17188 8.64453 1.375C8.74609 1.57031 8.80078 1.78125 8.80859 2.00781C8.81641 2.22656 8.82031 2.42969 8.82031 2.61719V15.8945C9.35938 15.8164 9.85938 15.7461 10.3203 15.6836C10.5156 15.6602 10.7109 15.6367 10.9062 15.6133C11.1094 15.582 11.293 15.5547 11.457 15.5312C11.6289 15.5078 11.7812 15.4922 11.9141 15.4844C12.0469 15.4688 12.1445 15.4609 12.207 15.4609C12.3398 15.4609 12.4453 15.4883 12.5234 15.543C12.6094 15.5898 12.6523 15.6914 12.6523 15.8477V16.9258C12.6523 17.0664 12.5898 17.1992 12.4648 17.3242C12.3477 17.4414 12.1562 17.5 11.8906 17.5H1.85938C1.49219 17.5 1.19141 17.4648 0.957031 17.3945C0.730469 17.3242 0.550781 17.2227 0.417969 17.0898C0.285156 16.957 0.195312 16.7891 0.148438 16.5859C0.101562 16.3828 0.078125 16.1445 0.078125 15.8711V2.3125ZM20.75 17.9102C20.1641 17.9102 19.5781 17.8633 18.9922 17.7695C18.4062 17.6758 17.8438 17.5273 17.3047 17.3242C16.7734 17.1211 16.2773 16.8555 15.8164 16.5273C15.3555 16.1992 14.9531 15.7969 14.6094 15.3203C14.2734 14.8438 14.0078 14.293 13.8125 13.668C13.6172 13.0352 13.5195 12.3125 13.5195 11.5C13.5195 10.7031 13.6172 9.99219 13.8125 9.36719C14.0078 8.73438 14.2734 8.17969 14.6094 7.70312C14.9531 7.22656 15.3555 6.82422 15.8164 6.49609C16.2773 6.16016 16.7734 5.89062 17.3047 5.6875C17.8438 5.47656 18.4062 5.32422 18.9922 5.23047C19.5781 5.13672 20.1641 5.08984 20.75 5.08984C21.2891 5.08984 21.8398 5.125 22.4023 5.19531C22.9727 5.25781 23.5234 5.37891 24.0547 5.55859C24.5938 5.73047 25.0977 5.96875 25.5664 6.27344C26.043 6.57031 26.457 6.95312 26.8086 7.42188C27.168 7.89062 27.4492 8.45312 27.6523 9.10938C27.8633 9.75781 27.9688 10.5234 27.9688 11.4062C27.9688 12.3125 27.8672 13.1055 27.6641 13.7852C27.4609 14.457 27.1797 15.0352 26.8203 15.5195C26.4688 15.9961 26.0586 16.3906 25.5898 16.7031C25.1211 17.0156 24.6172 17.2617 24.0781 17.4414C23.5469 17.6133 22.9961 17.7344 22.4258 17.8047C21.8555 17.875 21.2969 17.9102 20.75 17.9102ZM24.3477 15.0977C24.5898 15.0977 24.8281 15.0469 25.0625 14.9453C25.3047 14.8359 25.5156 14.6445 25.6953 14.3711C25.8828 14.0977 26.0312 13.7227 26.1406 13.2461C26.2578 12.7617 26.3164 12.1484 26.3164 11.4062C26.3164 10.7031 26.2578 10.125 26.1406 9.67188C26.0312 9.21875 25.8828 8.86328 25.6953 8.60547C25.5078 8.33984 25.2969 8.15625 25.0625 8.05469C24.8281 7.95312 24.5898 7.90234 24.3477 7.90234C24.1602 7.90234 23.9492 7.94141 23.7148 8.01953C23.4883 8.09766 23.2734 8.26562 23.0703 8.52344C22.875 8.77344 22.7109 9.13672 22.5781 9.61328C22.4453 10.082 22.3789 10.7109 22.3789 11.5C22.3789 12.2891 22.4336 12.9219 22.543 13.3984C22.6523 13.875 22.7969 14.2383 22.9766 14.4883C23.1562 14.7383 23.3633 14.9023 23.5977 14.9805C23.8398 15.0586 24.0898 15.0977 24.3477 15.0977ZM36.4531 16.3281C35.8594 16.3281 35.2695 16.2891 34.6836 16.2109C34.0977 16.125 33.5352 15.9922 32.9961 15.8125C32.9883 15.8516 32.9844 15.8906 32.9844 15.9297C32.9844 15.9609 32.9844 15.9961 32.9844 16.0352C32.9844 16.2695 33.0234 16.4883 33.1016 16.6914C33.1797 16.8867 33.3008 17.0586 33.4648 17.207C33.6367 17.3555 33.8594 17.4727 34.1328 17.5586C34.4062 17.6445 34.7383 17.6875 35.1289 17.6875C35.5586 17.6875 35.957 17.6602 36.3242 17.6055C36.6914 17.5586 37.0508 17.5078 37.4023 17.4531C37.7539 17.3906 38.1055 17.3359 38.457 17.2891C38.8164 17.2344 39.1953 17.207 39.5938 17.207C39.9766 17.207 40.3516 17.2773 40.7188 17.418C41.0859 17.5508 41.4102 17.7461 41.6914 18.0039C41.9805 18.2695 42.2109 18.5938 42.3828 18.9766C42.5547 19.3594 42.6406 19.7969 42.6406 20.2891C42.6406 20.7266 42.5977 21.1094 42.5117 21.4375C42.4336 21.7656 42.3516 22.0781 42.2656 22.375C42.25 22.4141 42.2188 22.4609 42.1719 22.5156C42.1328 22.5703 42.0547 22.5977 41.9375 22.5977H41.0703C40.9609 22.5977 40.8906 22.5703 40.8594 22.5156C40.8281 22.4688 40.8047 22.4297 40.7891 22.3984C40.6406 22.0312 40.0664 21.8477 39.0664 21.8477C38.6367 21.8477 38.2109 21.8711 37.7891 21.918C37.3672 21.9727 36.9375 22.0273 36.5 22.082C36.0625 22.1445 35.6055 22.1992 35.1289 22.2461C34.6602 22.3008 34.1641 22.3281 33.6406 22.3281C32.9141 22.3281 32.2969 22.207 31.7891 21.9648C31.2891 21.7227 30.8828 21.4141 30.5703 21.0391C30.2578 20.6719 30.0312 20.2656 29.8906 19.8203C29.75 19.375 29.6797 18.9531 29.6797 18.5547C29.6797 18.125 29.7266 17.7344 29.8203 17.3828C29.9219 17.0234 30.0508 16.6992 30.207 16.4102C30.3633 16.1211 30.543 15.8633 30.7461 15.6367C30.9492 15.4023 31.1523 15.1914 31.3555 15.0039C30.7148 14.5664 30.1992 13.9961 29.8086 13.293C29.418 12.5898 29.2227 11.7266 29.2227 10.7031C29.2227 10.0078 29.3203 9.38672 29.5156 8.83984C29.7109 8.28516 29.9766 7.80078 30.3125 7.38672C30.6562 6.96484 31.0586 6.60938 31.5195 6.32031C31.9805 6.03125 32.4766 5.79688 33.0078 5.61719C33.5469 5.42969 34.1094 5.29688 34.6953 5.21875C35.2812 5.13281 35.8672 5.08984 36.4531 5.08984C36.9766 5.08984 37.5117 5.11719 38.0586 5.17188C38.6055 5.22656 39.1367 5.32812 39.6523 5.47656C40.1758 5.61719 40.668 5.80859 41.1289 6.05078C41.5977 6.29297 42.0117 6.60156 42.3711 6.97656L43.6484 5.67578C43.7344 5.58984 43.8164 5.52734 43.8945 5.48828C43.9805 5.44922 44.0586 5.42969 44.1289 5.42969C44.2539 5.42969 44.3672 5.48047 44.4688 5.58203L45.043 6.19141C45.1367 6.30078 45.1836 6.41406 45.1836 6.53125C45.1836 6.70312 45.0859 6.85938 44.8906 7L43.1914 8.19531C43.3477 8.53125 43.4648 8.89844 43.543 9.29688C43.6289 9.69531 43.6719 10.1328 43.6719 10.6094C43.6719 11.4062 43.5703 12.1016 43.3672 12.6953C43.1641 13.2891 42.8828 13.7969 42.5234 14.2188C42.1719 14.6406 41.7617 14.9883 41.293 15.2617C40.8242 15.5352 40.3203 15.75 39.7812 15.9062C39.25 16.0625 38.6992 16.1719 38.1289 16.2344C37.5586 16.2969 37 16.3281 36.4531 16.3281ZM40.3672 9.41406C40.3281 9.375 40.3086 9.31641 40.3086 9.23828C40.3086 9.14453 40.3438 9.0625 40.4141 8.99219L41.1641 8.21875C41.0078 8.10156 40.8359 8.01953 40.6484 7.97266C40.4688 7.92578 40.2852 7.90234 40.0977 7.90234C39.9102 7.90234 39.6992 7.93359 39.4648 7.99609C39.2383 8.05078 39.0195 8.17578 38.8086 8.37109C38.6055 8.56641 38.4336 8.85156 38.293 9.22656C38.1523 9.59375 38.082 10.0859 38.082 10.7031C38.082 11.3203 38.1367 11.8164 38.2461 12.1914C38.3633 12.5586 38.5156 12.8398 38.7031 13.0352C38.8906 13.2305 39.1055 13.3594 39.3477 13.4219C39.5898 13.4844 39.8398 13.5156 40.0977 13.5156C40.3398 13.5156 40.5781 13.4766 40.8125 13.3984C41.0469 13.3125 41.25 13.1641 41.4219 12.9531C41.6016 12.7344 41.7461 12.4414 41.8555 12.0742C41.9648 11.6992 42.0195 11.2188 42.0195 10.6328C42.0195 10.0469 41.9531 9.5625 41.8203 9.17969L41.0352 9.73047C40.9727 9.76953 40.9102 9.78906 40.8477 9.78906C40.7461 9.78906 40.6641 9.75 40.6016 9.67188L40.3672 9.41406ZM52.5312 17.9102C51.9453 17.9102 51.3594 17.8633 50.7734 17.7695C50.1875 17.6758 49.625 17.5273 49.0859 17.3242C48.5547 17.1211 48.0586 16.8555 47.5977 16.5273C47.1367 16.1992 46.7344 15.7969 46.3906 15.3203C46.0547 14.8438 45.7891 14.293 45.5938 13.668C45.3984 13.0352 45.3008 12.3125 45.3008 11.5C45.3008 10.7031 45.3984 9.99219 45.5938 9.36719C45.7891 8.73438 46.0547 8.17969 46.3906 7.70312C46.7344 7.22656 47.1367 6.82422 47.5977 6.49609C48.0586 6.16016 48.5547 5.89062 49.0859 5.6875C49.625 5.47656 50.1875 5.32422 50.7734 5.23047C51.3594 5.13672 51.9453 5.08984 52.5312 5.08984C53.0703 5.08984 53.6211 5.125 54.1836 5.19531C54.7539 5.25781 55.3047 5.37891 55.8359 5.55859C56.375 5.73047 56.8789 5.96875 57.3477 6.27344C57.8242 6.57031 58.2383 6.95312 58.5898 7.42188C58.9492 7.89062 59.2305 8.45312 59.4336 9.10938C59.6445 9.75781 59.75 10.5234 59.75 11.4062C59.75 12.3125 59.6484 13.1055 59.4453 13.7852C59.2422 14.457 58.9609 15.0352 58.6016 15.5195C58.25 15.9961 57.8398 16.3906 57.3711 16.7031C56.9023 17.0156 56.3984 17.2617 55.8594 17.4414C55.3281 17.6133 54.7773 17.7344 54.207 17.8047C53.6367 17.875 53.0781 17.9102 52.5312 17.9102ZM56.1289 15.0977C56.3711 15.0977 56.6094 15.0469 56.8438 14.9453C57.0859 14.8359 57.2969 14.6445 57.4766 14.3711C57.6641 14.0977 57.8125 13.7227 57.9219 13.2461C58.0391 12.7617 58.0977 12.1484 58.0977 11.4062C58.0977 10.7031 58.0391 10.125 57.9219 9.67188C57.8125 9.21875 57.6641 8.86328 57.4766 8.60547C57.2891 8.33984 57.0781 8.15625 56.8438 8.05469C56.6094 7.95312 56.3711 7.90234 56.1289 7.90234C55.9414 7.90234 55.7305 7.94141 55.4961 8.01953C55.2695 8.09766 55.0547 8.26562 54.8516 8.52344C54.6562 8.77344 54.4922 9.13672 54.3594 9.61328C54.2266 10.082 54.1602 10.7109 54.1602 11.5C54.1602 12.2891 54.2148 12.9219 54.3242 13.3984C54.4336 13.875 54.5781 14.2383 54.7578 14.4883C54.9375 14.7383 55.1445 14.9023 55.3789 14.9805C55.6211 15.0586 55.8711 15.0977 56.1289 15.0977Z" fill="#2F4590"/>
</svg>
