<svg width="448" height="316" viewBox="0 0 448 316" fill="none" xmlns="http://www.w3.org/2000/svg">
<g clip-path="url(#clip0_28_1789)">
<path d="M228.803 315.33C242.277 315.33 253.2 304.397 253.2 290.911C253.2 277.424 242.277 266.491 228.803 266.491C215.328 266.491 204.405 277.424 204.405 290.911C204.405 304.397 215.328 315.33 228.803 315.33Z" fill="#02447B"/>
<path d="M374.555 313.958C388.204 309.855 402.715 305.577 413.54 295.824C423.213 287.108 429.743 273.799 425.736 260.728C421.737 247.683 409.758 238.986 397.391 234.66C390.377 232.206 383.039 230.845 375.703 229.776C367.729 228.613 359.719 227.661 351.714 226.744C319.298 223.033 286.76 220.766 254.1 219.943C237.985 219.537 221.873 219.547 205.755 219.781C191.361 219.99 176.201 219.985 162.848 213.862C152.464 209.1 143.039 200.437 140.146 189.053C136.806 175.912 142.966 162.529 151.803 153.012C156.461 147.995 161.906 143.773 167.522 139.89C173.614 135.678 179.92 131.765 186.361 128.112C199.049 120.92 212.313 114.799 226.016 109.814C232.776 107.353 239.637 105.231 246.557 103.273C252.4 101.619 258.261 99.9634 263.908 97.7106C274.826 93.3556 285.209 85.9787 287.985 73.8849C290.616 62.4229 286.18 49.98 278.404 41.4651C269.407 31.6139 255.841 27.2955 242.836 26.5968C228.236 25.8123 213.972 29.4698 200.248 34.1115C185.611 39.0623 171.29 44.7548 156.344 48.7649C141.523 52.7376 126.415 55.5484 111.158 57.1719C103.689 57.9679 95.9943 58.8668 88.4809 58.2574C82.184 57.7466 75.9192 55.8931 71.2785 51.4201C67.2993 47.5848 64.9288 42.3138 65.7438 36.7512C65.8918 35.7409 67.4252 36.1704 67.2781 37.1746C66.2861 43.9458 70.8846 50.1852 76.5514 53.3813C83.1006 57.0752 91.07 57.0803 98.3616 56.6578C114.172 55.7021 129.875 53.43 145.308 49.8651C160.473 46.3983 175.096 41.4424 189.703 36.1482C203.576 31.1202 217.758 26.2128 232.579 25.1237C245.439 24.1788 258.966 26.0539 270.169 32.7804C280.015 38.692 287.256 48.5507 289.563 59.8638C291.817 70.9188 288.695 82.0458 280.334 89.7603C271.677 97.7478 259.808 101.163 248.746 104.308C234.716 108.297 220.988 112.96 207.699 119.014C194.229 125.134 181.311 132.403 169.087 140.741C157.288 148.812 145.644 158.966 141.912 173.363C140.174 180.07 140.495 187.183 143.403 193.517C145.989 199.149 150.249 203.887 155.21 207.542C167.049 216.261 181.97 218.051 196.269 218.229C212.33 218.429 228.391 217.886 244.457 218.15C277.199 218.688 309.874 220.683 342.482 224.135C350.652 225 358.813 225.957 366.963 227.005C374.293 227.948 381.649 228.884 388.856 230.559C401.671 233.536 414.141 239.26 422.107 250.136C425.642 254.85 427.832 260.436 428.443 266.298C429.001 272.416 427.504 278.545 424.741 283.987C418.624 296.032 407.168 303.694 395.001 308.728C388.484 311.424 381.724 313.466 374.978 315.494C373.995 315.789 373.575 314.253 374.555 313.958Z" fill="#F2F2F2"/>
<path d="M66.7712 49.6355C73.8013 49.6355 79.5004 43.9314 79.5004 36.8949C79.5004 29.8585 73.8013 24.1543 66.7712 24.1543C59.7411 24.1543 54.0421 29.8585 54.0421 36.8949C54.0421 43.9314 59.7411 49.6355 66.7712 49.6355Z" fill="#F2F2F2"/>
<path d="M155.08 73.7893C162.11 73.7893 167.809 68.0852 167.809 61.0487C167.809 54.0123 162.11 48.3081 155.08 48.3081C148.05 48.3081 142.351 54.0123 142.351 61.0487C142.351 68.0852 148.05 73.7893 155.08 73.7893Z" fill="#F2F2F2"/>
<path d="M229.863 25.4812C236.894 25.4812 242.593 19.7771 242.593 12.7406C242.593 5.70417 236.894 0 229.863 0C222.833 0 217.134 5.70417 217.134 12.7406C217.134 19.7771 222.833 25.4812 229.863 25.4812Z" fill="#F2F2F2"/>
<path d="M276.537 79.6287C283.567 79.6287 289.266 73.9245 289.266 66.8881C289.266 59.8516 283.567 54.1475 276.537 54.1475C269.507 54.1475 263.808 59.8516 263.808 66.8881C263.808 73.9245 269.507 79.6287 276.537 79.6287Z" fill="#F2F2F2"/>
<path d="M213.422 142.27C220.452 142.27 226.151 136.566 226.151 129.53C226.151 122.493 220.452 116.789 213.422 116.789C206.392 116.789 200.693 122.493 200.693 129.53C200.693 136.566 206.392 142.27 213.422 142.27Z" fill="#F2F2F2"/>
<path d="M133.334 172.529C140.364 172.529 146.063 166.825 146.063 159.788C146.063 152.752 140.364 147.048 133.334 147.048C126.304 147.048 120.605 152.752 120.605 159.788C120.605 166.825 126.304 172.529 133.334 172.529Z" fill="#F2F2F2"/>
<path d="M218.195 219.776C225.225 219.776 230.924 214.072 230.924 207.035C230.924 199.999 225.225 194.294 218.195 194.294C211.165 194.294 205.466 199.999 205.466 207.035C205.466 214.072 211.165 219.776 218.195 219.776Z" fill="#F2F2F2"/>
<path d="M309.421 246.319C316.451 246.319 322.15 240.614 322.15 233.578C322.15 226.542 316.451 220.837 309.421 220.837C302.391 220.837 296.692 226.542 296.692 233.578C296.692 240.614 302.391 246.319 309.421 246.319Z" fill="#F2F2F2"/>
<path d="M416.027 240.479C423.057 240.479 428.756 234.775 428.756 227.739C428.756 220.702 423.057 214.998 416.027 214.998C408.997 214.998 403.298 220.702 403.298 227.739C403.298 234.775 408.997 240.479 416.027 240.479Z" fill="#F2F2F2"/>
<path d="M226.189 36.1005C188.059 36.3701 156.839 67.3839 156.297 105.546C156.292 105.898 156.29 108.375 156.29 111.615C156.29 116.366 158.176 120.923 161.532 124.282C164.888 127.642 169.44 129.529 174.187 129.53C176.54 129.529 178.87 129.065 181.043 128.163C183.217 127.261 185.192 125.939 186.854 124.272C188.517 122.606 189.836 120.628 190.735 118.452C191.634 116.276 192.095 113.943 192.093 111.588C192.092 109.384 192.09 107.858 192.09 107.765C192.089 101.867 193.622 96.0702 196.538 90.9451C199.454 85.82 203.652 81.5429 208.721 78.5346C213.789 75.5262 219.552 73.8902 225.444 73.7875C231.336 73.6848 237.152 75.119 242.322 77.9489C247.492 80.7787 251.837 84.9069 254.93 89.9273C258.022 94.9477 259.755 100.687 259.959 106.582C260.163 112.476 258.831 118.322 256.093 123.544C253.355 128.767 249.306 133.186 244.344 136.367L244.35 136.375C244.35 136.375 218.877 152.788 211.111 175.305L211.117 175.307C209.752 179.92 209.06 184.706 209.063 189.517C209.063 191.495 209.179 208.798 209.403 222.843C209.482 227.689 211.461 232.31 214.913 235.708C218.365 239.107 223.013 241.011 227.855 241.01C230.289 241.01 232.698 240.528 234.944 239.593C237.19 238.658 239.23 237.287 240.945 235.559C242.66 233.832 244.017 231.782 244.938 229.528C245.858 227.274 246.325 224.86 246.31 222.425C246.232 209.562 246.189 194.585 246.189 193.498C246.189 179.672 259.515 165.896 270.462 156.913C283.067 146.568 292.137 132.471 295.78 116.568C296.587 113.294 297.031 109.941 297.106 106.57C297.106 97.2729 295.268 88.0675 291.698 79.4844C288.127 70.9012 282.896 63.11 276.304 56.5596C269.712 50.0092 261.89 44.8291 253.289 41.3178C244.688 37.8065 235.478 36.0333 226.189 36.1005Z" fill="#02447B"/>
<path d="M447.368 316H0.631521C0.46435 316 0.304194 315.933 0.186157 315.814C0.0681194 315.696 0.00183105 315.535 0.00183105 315.368C0.00183105 315.201 0.0681194 315.04 0.186157 314.922C0.304194 314.803 0.46435 314.736 0.631521 314.736H447.368C447.536 314.736 447.697 314.802 447.815 314.921C447.934 315.04 448 315.2 448 315.368C448 315.536 447.934 315.696 447.815 315.815C447.697 315.933 447.536 316 447.368 316Z" fill="#3F3D56"/>
<path d="M333.318 144.922C342.105 144.922 349.229 137.792 349.229 128.997C349.229 120.201 342.105 113.071 333.318 113.071C324.53 113.071 317.406 120.201 317.406 128.997C317.406 137.792 324.53 144.922 333.318 144.922Z" fill="#2F2E41"/>
<path d="M303.915 309.029H297.413L294.319 283.925H303.916L303.915 309.029Z" fill="#A0616A"/>
<path d="M292.768 307.168H305.308V315.071H284.872C284.872 314.033 285.077 313.006 285.473 312.047C285.87 311.088 286.452 310.217 287.185 309.483C287.918 308.749 288.789 308.167 289.747 307.77C290.705 307.373 291.731 307.168 292.768 307.168Z" fill="#2F2E41"/>
<path d="M354.301 309.029H347.799L344.705 283.925H354.303L354.301 309.029Z" fill="#A0616A"/>
<path d="M343.154 307.168H355.695V315.071H335.259C335.259 314.033 335.463 313.006 335.86 312.047C336.256 311.088 336.838 310.217 337.571 309.483C338.304 308.749 339.175 308.167 340.133 307.77C341.091 307.373 342.117 307.168 343.154 307.168Z" fill="#2F2E41"/>
<path d="M330.899 145.015C338.094 145.015 343.926 139.178 343.926 131.977C343.926 124.776 338.094 118.938 330.899 118.938C323.705 118.938 317.873 124.776 317.873 131.977C317.873 139.178 323.705 145.015 330.899 145.015Z" fill="#A0616A"/>
<path d="M338.664 187.078L344.493 173.674C345.908 170.529 346.314 167.023 345.654 163.638C344.994 160.252 343.3 157.156 340.807 154.775C340.294 154.269 339.751 153.795 339.178 153.358C336.302 151.106 332.758 149.879 329.106 149.87C326.651 149.88 324.227 150.419 321.999 151.452C321.808 151.537 321.623 151.627 321.432 151.718C321.066 151.893 320.705 152.084 320.355 152.28C318.072 153.592 316.129 155.423 314.682 157.625C313.236 159.827 312.327 162.339 312.028 164.957L309.456 186.531C308.809 188.225 285.726 249.38 293.799 296.069C293.885 296.567 294.128 297.025 294.492 297.376C294.857 297.726 295.324 297.951 295.825 298.017L304.009 299.132C304.606 299.214 305.213 299.066 305.706 298.718C306.199 298.37 306.542 297.849 306.666 297.258L320.398 231.745C320.483 231.337 320.703 230.971 321.021 230.703C321.339 230.436 321.738 230.283 322.153 230.269C322.568 230.255 322.976 230.38 323.312 230.626C323.648 230.871 323.891 231.222 324.004 231.622L343.405 300.517C343.544 301.018 343.842 301.459 344.255 301.774C344.668 302.088 345.173 302.259 345.691 302.259C345.846 302.258 346.001 302.243 346.153 302.216L356.15 300.289C356.732 300.18 357.251 299.858 357.607 299.386C357.964 298.913 358.131 298.325 358.076 297.736C356.607 281.337 348.799 199.198 338.664 187.078Z" fill="#2F2E41"/>
<path d="M280.274 142.828C280.184 143.603 280.264 144.388 280.51 145.129C280.756 145.87 281.161 146.547 281.697 147.114C282.232 147.681 282.886 148.124 283.611 148.411C284.336 148.698 285.115 148.822 285.893 148.775L293.175 166.289L298.683 158.117L290.924 142.738C290.758 141.435 290.121 140.237 289.132 139.373C288.143 138.509 286.872 138.038 285.559 138.049C284.247 138.06 282.984 138.552 282.01 139.433C281.036 140.314 280.418 141.522 280.274 142.828Z" fill="#A0616A"/>
<path d="M330.177 204.713C330.951 204.62 331.696 204.359 332.358 203.947C333.021 203.536 333.585 202.983 334.011 202.33C334.437 201.676 334.715 200.937 334.824 200.165C334.934 199.392 334.874 198.605 334.646 197.858L349.967 186.69L340.743 183.232L327.609 194.368C326.381 194.833 325.366 195.733 324.757 196.896C324.147 198.06 323.986 199.407 324.302 200.682C324.619 201.958 325.392 203.072 326.475 203.815C327.557 204.558 328.875 204.877 330.177 204.713Z" fill="#A0616A"/>
<path d="M305.202 177.966C304.615 177.965 304.029 177.907 303.453 177.793C302.059 177.528 300.753 176.923 299.648 176.033C298.542 175.143 297.673 173.994 297.116 172.688L286.915 160.238C286.699 159.975 286.542 159.668 286.454 159.34C286.366 159.011 286.35 158.667 286.406 158.331C286.462 157.995 286.588 157.675 286.778 157.392C286.967 157.11 287.215 156.871 287.504 156.691L294.762 152.195C295.03 152.029 295.328 151.917 295.639 151.867C295.95 151.817 296.268 151.829 296.575 151.903C296.881 151.976 297.17 152.11 297.425 152.296C297.679 152.482 297.895 152.716 298.058 152.986L305.248 164.842L319.018 154.657C320.114 154.081 321.381 153.92 322.586 154.202C323.792 154.484 324.855 155.191 325.583 156.193C326.311 157.195 326.654 158.426 326.55 159.661C326.446 160.896 325.902 162.052 325.016 162.918L311.273 175.465C309.658 177.068 307.476 177.966 305.202 177.966Z" fill="#2F2E41"/>
<path d="M342.409 196.691C342.39 196.691 342.371 196.691 342.353 196.69C342.018 196.682 341.689 196.603 341.386 196.46C341.084 196.316 340.815 196.111 340.597 195.856L334.144 188.322C333.924 188.065 333.761 187.765 333.666 187.44C333.571 187.116 333.545 186.775 333.592 186.441C333.638 186.106 333.754 185.785 333.934 185.498C334.113 185.212 334.351 184.967 334.632 184.779L346.715 176.717L335.769 163.545C335.132 162.483 334.898 161.226 335.111 160.006C335.323 158.785 335.967 157.681 336.925 156.897C337.883 156.112 339.091 155.699 340.328 155.732C341.566 155.765 342.75 156.243 343.665 157.078L356.968 170.091C358.015 171.048 358.815 172.245 359.298 173.58C359.781 174.915 359.933 176.347 359.741 177.753C359.549 179.159 359.02 180.498 358.197 181.655C357.375 182.811 356.284 183.75 355.019 184.392L344.146 195.94C343.922 196.177 343.653 196.366 343.354 196.495C343.056 196.624 342.734 196.69 342.409 196.691Z" fill="#2F2E41"/>
<path d="M327.587 168.927C327.484 168.927 327.38 168.921 327.277 168.907C326.828 168.853 326.404 168.67 326.055 168.381C325.706 168.093 325.447 167.71 325.31 167.278L320.461 152.399C320.339 152.023 320.358 151.615 320.513 151.252C320.669 150.888 320.95 150.593 321.306 150.421L321.463 150.347C321.606 150.279 321.747 150.212 321.892 150.148C324.153 149.098 326.614 148.551 329.106 148.543C332.342 148.549 335.505 149.5 338.208 151.28C338.571 151.522 338.824 151.896 338.913 152.322C339.003 152.749 338.921 153.193 338.686 153.56L329.59 167.823C329.377 168.162 329.081 168.441 328.731 168.634C328.381 168.827 327.987 168.928 327.587 168.927Z" fill="#FFD233"/>
<path d="M345.862 121.887C348.738 121.887 351.069 119.554 351.069 116.676C351.069 113.798 348.738 111.464 345.862 111.464C342.987 111.464 340.656 113.798 340.656 116.676C340.656 119.554 342.987 121.887 345.862 121.887Z" fill="#2F2E41"/>
<path d="M328.014 110.947C324.356 110.947 320.849 112.401 318.263 114.99C315.677 117.578 314.224 121.089 314.224 124.75V130.589H321.399L324.831 124.75L325.861 130.589H347.638L341.804 124.75C341.804 121.089 340.351 117.578 337.765 114.99C335.178 112.401 331.671 110.947 328.014 110.947Z" fill="#2F2E41"/>
<path d="M348.538 113.106C349.114 111.304 350.306 109.763 351.905 108.753C353.503 107.744 355.407 107.331 357.279 107.587C360.597 108.142 363.221 110.812 364.784 113.794C366.347 116.775 367.069 120.112 368.12 123.311C369.171 126.509 370.661 129.725 373.314 131.796C375.967 133.867 380.037 134.428 382.643 132.298C382.345 134.518 381.358 136.588 379.82 138.215C378.283 139.843 376.273 140.945 374.076 141.367C371.878 141.788 369.603 141.507 367.574 140.564C365.544 139.621 363.862 138.063 362.766 136.11C361.391 133.662 361.036 130.793 360.628 128.014C360.221 125.236 359.691 122.361 358.05 120.083C356.408 117.805 353.336 116.318 350.728 117.355L348.538 113.106Z" fill="#2F2E41"/>
<path d="M179.241 121.056C174.494 121.055 169.942 119.168 166.586 115.808C163.229 112.449 161.344 107.893 161.343 103.142C161.343 99.9014 161.345 97.424 161.35 97.0717C161.501 85.9732 164.294 75.0707 169.496 65.2686C160.948 76.9808 156.248 91.0625 156.046 105.565C156.042 105.918 156.039 108.395 156.039 111.635C156.04 116.386 157.925 120.943 161.282 124.302C164.638 127.662 169.19 129.549 173.937 129.55C177.837 129.548 181.631 128.273 184.741 125.916C187.851 123.56 190.107 120.252 191.168 116.496C187.891 119.437 183.642 121.061 179.241 121.056Z" fill="#3F3D56"/>
<path d="M227.402 73.8473C232.89 74.1096 238.232 75.701 242.969 78.4848C247.707 81.2686 251.699 85.1617 254.602 89.8298C257.505 94.4979 259.233 99.8015 259.637 105.285C260.042 110.769 259.11 116.269 256.923 121.313C260.087 117.594 262.412 113.236 263.74 108.536C265.069 103.836 265.369 98.9051 264.621 94.0785C263.873 89.2519 262.093 84.6436 259.404 80.5677C256.715 76.4917 253.18 73.0441 249.039 70.4597C244.898 67.8753 240.249 66.215 235.409 65.592C230.569 64.9689 225.652 65.3978 220.992 66.8494C216.333 68.3009 212.041 70.741 208.409 74.0032C204.777 77.2655 201.89 81.2732 199.946 85.7532C203.306 81.7969 207.53 78.6659 212.29 76.6017C217.05 74.5374 222.221 73.595 227.402 73.8473Z" fill="#3F3D56"/>
<path d="M232.909 232.537C228.067 232.538 223.418 230.634 219.966 227.235C216.514 223.836 214.535 219.215 214.457 214.369C214.232 200.325 214.116 183.021 214.116 181.043C214.113 176.232 214.805 171.446 216.17 166.833L216.164 166.832C216.97 164.516 217.944 162.263 219.078 160.089C215.598 164.731 212.828 169.866 210.86 175.325L210.867 175.327C209.501 179.94 208.809 184.726 208.812 189.537C208.812 191.515 208.928 208.819 209.153 222.863C209.232 227.709 211.21 232.33 214.662 235.729C218.114 239.127 222.763 241.031 227.605 241.03C231.597 241.03 235.482 239.733 238.676 237.336C241.87 234.938 244.202 231.569 245.321 227.733C241.928 230.83 237.5 232.543 232.909 232.537Z" fill="#3F3D56"/>
<path d="M67.115 309.271L73.6169 309.27L76.7106 284.167L67.1134 284.168L67.115 309.271Z" fill="#FFB8B8"/>
<path d="M86.1576 315.313L65.7216 315.314L65.7213 307.411L78.2615 307.411C80.3556 307.41 82.3639 308.243 83.8447 309.725C85.3255 311.207 86.1575 313.217 86.1576 315.313Z" fill="#2F2E41"/>
<path d="M43.7782 309.271L50.2801 309.27L53.3739 284.167L43.7766 284.168L43.7782 309.271Z" fill="#FFB8B8"/>
<path d="M62.8208 315.313L42.3848 315.314L42.3845 307.411L54.9247 307.411C57.0188 307.41 59.0271 308.243 60.5079 309.725C61.9887 311.207 62.8207 313.217 62.8208 315.313Z" fill="#2F2E41"/>
<path d="M49.4604 301.55L43.109 301.215C42.7815 301.198 42.4607 301.116 42.1651 300.974C41.8696 300.832 41.6051 300.632 41.3872 300.387C41.1692 300.142 41.002 299.855 40.8953 299.545C40.7886 299.235 40.7445 298.906 40.7655 298.579L48.3567 214.456L83.3147 223.897L86.6827 222.978L76.1502 297.449C76.0605 298.009 75.7826 298.522 75.3623 298.903C74.9421 299.283 74.4046 299.509 73.8388 299.543L66.9921 299.862C66.6498 299.881 66.3072 299.829 65.9861 299.709C65.6649 299.589 65.3722 299.403 65.1264 299.164C64.8806 298.924 64.687 298.637 64.558 298.319C64.4289 298.001 64.3671 297.66 64.3766 297.317L65.6171 252.62C65.6229 252.413 65.5512 252.212 65.416 252.056C65.2809 251.899 65.0921 251.799 64.8869 251.775C64.6817 251.751 64.475 251.805 64.3075 251.926C64.14 252.047 64.0238 252.227 63.9818 252.429L52.0181 299.576C51.9051 300.135 51.6019 300.638 51.16 300.999C50.7181 301.359 50.1649 301.555 49.5947 301.554C49.5502 301.554 49.5054 301.553 49.4604 301.55Z" fill="#2F2E41"/>
<path d="M68.2824 145.625C75.4768 145.625 81.3091 139.788 81.3091 132.587C81.3091 125.386 75.4768 119.548 68.2824 119.548C61.0879 119.548 55.2557 125.386 55.2557 132.587C55.2557 139.788 61.0879 145.625 68.2824 145.625Z" fill="#FFB8B8"/>
<path d="M46.5938 170.893L48.0261 201.825L48.5439 213.078C48.5646 213.568 48.7307 214.041 49.0212 214.435C49.3117 214.83 49.7132 215.129 50.1745 215.295L83.7667 227.474C84.0381 227.575 84.3256 227.626 84.6151 227.623C84.946 227.625 85.2738 227.56 85.5789 227.432C85.8841 227.304 86.1604 227.115 86.3912 226.878C86.6221 226.641 86.8028 226.36 86.9227 226.051C87.0425 225.742 87.0989 225.412 87.0886 225.081L85.7114 169.465C85.621 164.902 83.9428 160.513 80.9662 157.056C77.9896 153.599 73.9011 151.289 69.4056 150.525C69.0806 150.476 68.75 150.426 68.4195 150.382C65.6319 150.036 62.8023 150.305 60.1298 151.171C57.4573 152.037 55.0069 153.478 52.9509 155.394C50.822 157.354 49.1491 159.758 48.0506 162.436C46.9521 165.114 46.4548 168.001 46.5938 170.893Z" fill="#FFD233"/>
<path d="M99.8136 221.302C99.0191 221.055 98.2932 220.626 97.6939 220.049C97.0945 219.471 96.6384 218.762 96.3617 217.976C96.0851 217.191 95.9957 216.352 96.1006 215.526C96.2056 214.7 96.5019 213.91 96.9661 213.219L85.5746 198.058L95.4048 197.449L104.715 211.94C105.712 212.711 106.406 213.809 106.674 215.041C106.943 216.273 106.77 217.56 106.185 218.677C105.6 219.794 104.641 220.669 103.476 221.149C102.311 221.629 101.015 221.683 99.8136 221.302Z" fill="#FFB8B8"/>
<path d="M91.8042 210.476C91.5024 210.353 91.2279 210.172 90.9966 209.942C90.7652 209.713 90.5816 209.44 90.4565 209.139L73.2943 168.212C72.9575 167.411 72.7818 166.551 72.7773 165.682C72.7727 164.813 72.9393 163.951 73.2676 163.146C73.5959 162.341 74.0794 161.609 74.6905 160.992C75.3017 160.374 76.0284 159.883 76.8292 159.546C77.6301 159.21 78.4893 159.035 79.3578 159.031C80.2263 159.027 81.0871 159.194 81.8909 159.524C82.6947 159.853 83.4259 160.337 84.0425 160.949C84.6592 161.562 85.1492 162.289 85.4847 163.091L102.647 204.018C102.901 204.625 102.903 205.308 102.655 205.916C102.406 206.525 101.926 207.011 101.321 207.266L93.7016 210.466C93.4016 210.594 93.0795 210.66 92.7538 210.661C92.4281 210.663 92.1054 210.6 91.8042 210.476Z" fill="#FFD233"/>
<path d="M64.0942 209.032L80.578 177.441C80.8959 176.833 81.4416 176.377 82.0953 176.172C82.7491 175.966 83.4575 176.029 84.0652 176.346L107.992 188.853C108.599 189.171 109.055 189.717 109.26 190.371C109.465 191.026 109.402 191.735 109.086 192.343L92.6021 223.934C92.2842 224.541 91.7385 224.998 91.0848 225.203C90.431 225.409 89.7226 225.346 89.1149 225.029L65.1886 212.522C64.5816 212.204 64.1255 211.658 63.9203 211.003C63.7151 210.349 63.7777 209.64 64.0942 209.032Z" fill="#3F3D56"/>
<path d="M75.1488 194.599C74.8558 193.82 74.3848 193.12 73.7735 192.555C73.1622 191.99 72.4275 191.577 71.628 191.346C70.8285 191.116 69.9863 191.077 69.1687 191.23C68.3511 191.384 67.5807 191.727 66.9189 192.231L51.125 181.745L51.0981 191.602L66.1004 200.049C66.9286 201 68.0646 201.628 69.3092 201.824C70.5538 202.02 71.8276 201.771 72.9071 201.12C73.9866 200.47 74.8029 199.46 75.2128 198.268C75.6227 197.075 75.6001 195.776 75.1488 194.599Z" fill="#FFB8B8"/>
<path d="M55.18 196.816L42.2722 186.582C40.8759 186.113 39.6141 185.311 38.5953 184.247C37.5765 183.182 36.8311 181.885 36.4231 180.469C36.015 179.052 35.9565 177.558 36.2525 176.113C36.5486 174.669 37.1904 173.318 38.1228 172.177L49.8427 156.804C50.6572 155.808 51.8026 155.138 53.0696 154.918C54.3366 154.697 55.6405 154.94 56.743 155.603C57.8456 156.265 58.6731 157.303 59.0743 158.526C59.4755 159.749 59.4235 161.075 58.928 162.263L49.6549 177.446L63.2825 183.915C63.5994 184.066 63.8808 184.282 64.1081 184.549C64.3354 184.816 64.5034 185.129 64.601 185.466C64.6987 185.803 64.7238 186.157 64.6746 186.505C64.6254 186.853 64.5031 187.186 64.3157 187.482L58.8147 196.196C58.6288 196.49 58.3832 196.742 58.0939 196.935C57.8045 197.128 57.4779 197.258 57.1352 197.317C57.1216 197.319 57.1079 197.321 57.0942 197.323C56.7574 197.374 56.4138 197.355 56.0845 197.268C55.7553 197.181 55.4474 197.027 55.18 196.816Z" fill="#FFD233"/>
<path d="M58.439 141.317C58.3831 141.154 58.3654 140.98 58.3872 140.808C58.409 140.636 58.4697 140.472 58.5648 140.328C58.6598 140.183 58.7866 140.062 58.9355 139.975C59.0843 139.887 59.2513 139.834 59.4236 139.821C59.7764 139.84 60.1217 139.931 60.4385 140.087C60.7554 140.244 61.0373 140.463 61.2672 140.731C61.7387 141.275 62.2875 141.747 62.8961 142.131C63.5263 142.449 64.3809 142.404 64.7402 141.798C65.0775 141.229 64.8464 140.466 64.6422 139.805C64.1225 138.123 63.8317 136.379 63.7777 134.619C63.7189 132.654 63.9957 130.604 65.0823 129.072C66.4845 127.095 68.9919 126.344 71.3649 126.399C73.7378 126.453 76.0722 127.186 78.4227 127.65C79.2342 127.81 80.188 127.892 80.7307 127.262C81.3078 126.593 81.0958 125.51 80.8504 124.606C80.2134 122.261 79.5377 119.836 78.0578 117.942C76.4576 115.974 74.1719 114.686 71.6609 114.338C69.2503 114.039 66.8031 114.317 64.5208 115.149C60.8022 116.322 57.5301 118.604 55.1421 121.689C52.6804 124.969 51.6167 129.092 52.1836 133.155C52.7374 136.694 54.611 139.892 57.4268 142.103L58.439 141.317Z" fill="#2F2E41"/>
<path d="M223.427 309.374C219.962 307.863 216.894 305.567 214.467 302.666C212.04 299.765 210.319 296.34 209.441 292.659C208.563 288.979 208.552 285.145 209.408 281.46C210.264 277.774 211.964 274.338 214.374 271.423C211.58 273.465 209.251 276.079 207.543 279.09C205.836 282.101 204.787 285.442 204.468 288.89C204.148 292.338 204.565 295.814 205.691 299.089C206.816 302.363 208.625 305.36 210.996 307.882C213.368 310.403 216.248 312.39 219.445 313.712C222.643 315.035 226.085 315.661 229.543 315.55C233 315.439 236.395 314.593 239.501 313.068C242.607 311.543 245.354 309.375 247.559 306.706C244.12 309.222 240.082 310.792 235.849 311.26C231.615 311.728 227.332 311.078 223.427 309.374Z" fill="#3F3D56"/>
</g>
<defs>
<clipPath id="clip0_28_1789">
<rect width="448" height="316" fill="white"/>
</clipPath>
</defs>
</svg>
