<svg width="24" height="21" viewBox="0 0 24 21" fill="none" xmlns="http://www.w3.org/2000/svg">
<path d="M2.24753 9.11358C8.4227 6.22553 12.5395 4.32137 14.5979 3.40144C20.4818 0.774557 21.703 0.318325 22.5005 0.302869C22.6759 0.299849 23.0664 0.346395 23.3212 0.567582C23.533 0.754126 23.5926 1.0064 23.6224 1.18353C23.6489 1.36048 23.6853 1.76377 23.6555 2.07858C23.3378 5.67443 21.9578 14.4004 21.2562 18.4279C20.9617 20.1321 20.3759 20.7034 19.8101 20.7592C18.579 20.8807 17.6458 19.8865 16.4544 19.0483C14.5913 17.7361 13.5389 16.9196 11.7287 15.6394C9.63722 14.1598 10.994 13.3465 12.1854 12.0176C12.4965 11.6698 17.9171 6.37725 18.0197 5.89721C18.033 5.83716 18.0462 5.61331 17.9204 5.49535C17.798 5.37702 17.616 5.41753 17.4836 5.44951C17.295 5.49499 14.3199 7.60844 8.54846 11.7895C7.70458 12.4127 6.94013 12.7165 6.2518 12.7005C5.49727 12.6831 4.04117 12.2415 2.95903 11.8641C1.6353 11.4011 0.579632 11.1563 0.672293 10.37C0.718623 9.96066 1.2448 9.54174 2.24753 9.11358Z" fill="#02447B"/>
</svg>
