<svg width="143" height="18" viewBox="0 0 143 18" fill="none" xmlns="http://www.w3.org/2000/svg">
<path d="M11 0.248V2.96H4.016V7.256H9.368V9.92H4.016V17H0.656V0.248H11ZM21.1586 17.168C19.5906 17.168 18.1506 16.8 16.8386 16.064C15.5266 15.328 14.4866 14.312 13.7186 13.016C12.9506 11.704 12.5666 10.224 12.5666 8.576C12.5666 6.944 12.9506 5.48 13.7186 4.184C14.4866 2.872 15.5266 1.848 16.8386 1.112C18.1506 0.375999 19.5906 0.0079999 21.1586 0.0079999C22.7426 0.0079999 24.1826 0.375999 25.4786 1.112C26.7906 1.848 27.8226 2.872 28.5746 4.184C29.3426 5.48 29.7266 6.944 29.7266 8.576C29.7266 10.224 29.3426 11.704 28.5746 13.016C27.8226 14.312 26.7906 15.328 25.4786 16.064C24.1666 16.8 22.7266 17.168 21.1586 17.168ZM21.1586 14.168C22.1666 14.168 23.0546 13.944 23.8226 13.496C24.5906 13.032 25.1906 12.376 25.6226 11.528C26.0546 10.68 26.2706 9.696 26.2706 8.576C26.2706 7.456 26.0546 6.48 25.6226 5.648C25.1906 4.8 24.5906 4.152 23.8226 3.704C23.0546 3.256 22.1666 3.032 21.1586 3.032C20.1506 3.032 19.2546 3.256 18.4706 3.704C17.7026 4.152 17.1026 4.8 16.6706 5.648C16.2386 6.48 16.0226 7.456 16.0226 8.576C16.0226 9.696 16.2386 10.68 16.6706 11.528C17.1026 12.376 17.7026 13.032 18.4706 13.496C19.2546 13.944 20.1506 14.168 21.1586 14.168ZM40.0023 17.168C38.4343 17.168 36.9943 16.8 35.6823 16.064C34.3703 15.328 33.3303 14.312 32.5623 13.016C31.7943 11.704 31.4103 10.224 31.4103 8.576C31.4103 6.944 31.7943 5.48 32.5623 4.184C33.3303 2.872 34.3703 1.848 35.6823 1.112C36.9943 0.375999 38.4343 0.0079999 40.0023 0.0079999C41.5863 0.0079999 43.0263 0.375999 44.3223 1.112C45.6343 1.848 46.6663 2.872 47.4183 4.184C48.1863 5.48 48.5703 6.944 48.5703 8.576C48.5703 10.224 48.1863 11.704 47.4183 13.016C46.6663 14.312 45.6343 15.328 44.3223 16.064C43.0103 16.8 41.5703 17.168 40.0023 17.168ZM40.0023 14.168C41.0103 14.168 41.8983 13.944 42.6663 13.496C43.4343 13.032 44.0343 12.376 44.4663 11.528C44.8983 10.68 45.1143 9.696 45.1143 8.576C45.1143 7.456 44.8983 6.48 44.4663 5.648C44.0343 4.8 43.4343 4.152 42.6663 3.704C41.8983 3.256 41.0103 3.032 40.0023 3.032C38.9943 3.032 38.0983 3.256 37.3143 3.704C36.5463 4.152 35.9463 4.8 35.5143 5.648C35.0823 6.48 34.8663 7.456 34.8663 8.576C34.8663 9.696 35.0823 10.68 35.5143 11.528C35.9463 12.376 36.5463 13.032 37.3143 13.496C38.0983 13.944 38.9943 14.168 40.0023 14.168ZM56.9261 0.248C58.6861 0.248 60.2301 0.592 61.5581 1.28C62.9021 1.968 63.9341 2.952 64.6541 4.232C65.3901 5.496 65.7581 6.968 65.7581 8.648C65.7581 10.328 65.3901 11.8 64.6541 13.064C63.9341 14.312 62.9021 15.28 61.5581 15.968C60.2301 16.656 58.6861 17 56.9261 17H51.0701V0.248H56.9261ZM56.8061 14.144C58.5661 14.144 59.9261 13.664 60.8861 12.704C61.8461 11.744 62.3261 10.392 62.3261 8.648C62.3261 6.904 61.8461 5.544 60.8861 4.568C59.9261 3.576 58.5661 3.08 56.8061 3.08H54.4301V14.144H56.8061ZM86.5372 0.248V17H83.1772V6.104L78.6892 17H76.1452L71.6332 6.104V17H68.2732V0.248H72.0892L77.4172 12.704L82.7452 0.248H86.5372ZM97.6351 17.168C96.0671 17.168 94.6271 16.8 93.3151 16.064C92.0031 15.328 90.9631 14.312 90.1951 13.016C89.4271 11.704 89.0431 10.224 89.0431 8.576C89.0431 6.944 89.4271 5.48 90.1951 4.184C90.9631 2.872 92.0031 1.848 93.3151 1.112C94.6271 0.375999 96.0671 0.0079999 97.6351 0.0079999C99.2191 0.0079999 100.659 0.375999 101.955 1.112C103.267 1.848 104.299 2.872 105.051 4.184C105.819 5.48 106.203 6.944 106.203 8.576C106.203 10.224 105.819 11.704 105.051 13.016C104.299 14.312 103.267 15.328 101.955 16.064C100.643 16.8 99.2031 17.168 97.6351 17.168ZM97.6351 14.168C98.6431 14.168 99.5311 13.944 100.299 13.496C101.067 13.032 101.667 12.376 102.099 11.528C102.531 10.68 102.747 9.696 102.747 8.576C102.747 7.456 102.531 6.48 102.099 5.648C101.667 4.8 101.067 4.152 100.299 3.704C99.5311 3.256 98.6431 3.032 97.6351 3.032C96.6271 3.032 95.7311 3.256 94.9471 3.704C94.1791 4.152 93.5791 4.8 93.1471 5.648C92.7151 6.48 92.4991 7.456 92.4991 8.576C92.4991 9.696 92.7151 10.68 93.1471 11.528C93.5791 12.376 94.1791 13.032 94.9471 13.496C95.7311 13.944 96.6271 14.168 97.6351 14.168ZM116.479 17.168C114.911 17.168 113.471 16.8 112.159 16.064C110.847 15.328 109.807 14.312 109.039 13.016C108.271 11.704 107.887 10.224 107.887 8.576C107.887 6.944 108.271 5.48 109.039 4.184C109.807 2.872 110.847 1.848 112.159 1.112C113.471 0.375999 114.911 0.0079999 116.479 0.0079999C118.063 0.0079999 119.503 0.375999 120.799 1.112C122.111 1.848 123.143 2.872 123.895 4.184C124.663 5.48 125.047 6.944 125.047 8.576C125.047 10.224 124.663 11.704 123.895 13.016C123.143 14.312 122.111 15.328 120.799 16.064C119.487 16.8 118.047 17.168 116.479 17.168ZM116.479 14.168C117.487 14.168 118.375 13.944 119.143 13.496C119.911 13.032 120.511 12.376 120.943 11.528C121.375 10.68 121.591 9.696 121.591 8.576C121.591 7.456 121.375 6.48 120.943 5.648C120.511 4.8 119.911 4.152 119.143 3.704C118.375 3.256 117.487 3.032 116.479 3.032C115.471 3.032 114.575 3.256 113.791 3.704C113.023 4.152 112.423 4.8 111.991 5.648C111.559 6.48 111.343 7.456 111.343 8.576C111.343 9.696 111.559 10.68 111.991 11.528C112.423 12.376 113.023 13.032 113.791 13.496C114.575 13.944 115.471 14.168 116.479 14.168ZM133.403 0.248C135.163 0.248 136.707 0.592 138.035 1.28C139.379 1.968 140.411 2.952 141.131 4.232C141.867 5.496 142.235 6.968 142.235 8.648C142.235 10.328 141.867 11.8 141.131 13.064C140.411 14.312 139.379 15.28 138.035 15.968C136.707 16.656 135.163 17 133.403 17H127.547V0.248H133.403ZM133.283 14.144C135.043 14.144 136.403 13.664 137.363 12.704C138.323 11.744 138.803 10.392 138.803 8.648C138.803 6.904 138.323 5.544 137.363 4.568C136.403 3.576 135.043 3.08 133.283 3.08H130.907V14.144H133.283Z" fill="#FFCC00"/>
</svg>
