<svg width="108" height="14" viewBox="0 0 108 14" fill="none" xmlns="http://www.w3.org/2000/svg">
<path d="M8.342 0.364V2.83H3.194V5.494H7.046V7.888H3.194V13H0.116V0.364H8.342ZM15.9358 13.126C14.7478 13.126 13.6558 12.85 12.6598 12.298C11.6758 11.746 10.8898 10.978 10.3018 9.994C9.72575 8.998 9.43775 7.882 9.43775 6.646C9.43775 5.41 9.72575 4.3 10.3018 3.316C10.8898 2.332 11.6758 1.564 12.6598 1.012C13.6558 0.46 14.7478 0.184 15.9358 0.184C17.1238 0.184 18.2098 0.46 19.1938 1.012C20.1898 1.564 20.9698 2.332 21.5338 3.316C22.1098 4.3 22.3978 5.41 22.3978 6.646C22.3978 7.882 22.1098 8.998 21.5338 9.994C20.9578 10.978 20.1778 11.746 19.1938 12.298C18.2098 12.85 17.1238 13.126 15.9358 13.126ZM15.9358 10.318C16.9438 10.318 17.7478 9.982 18.3477 9.31C18.9598 8.638 19.2658 7.75 19.2658 6.646C19.2658 5.53 18.9598 4.642 18.3477 3.982C17.7478 3.31 16.9438 2.974 15.9358 2.974C14.9158 2.974 14.0998 3.304 13.4878 3.964C12.8878 4.624 12.5878 5.518 12.5878 6.646C12.5878 7.762 12.8878 8.656 13.4878 9.328C14.0998 9.988 14.9158 10.318 15.9358 10.318ZM30.0861 13.126C28.8981 13.126 27.8061 12.85 26.8101 12.298C25.8261 11.746 25.0401 10.978 24.4521 9.994C23.8761 8.998 23.5881 7.882 23.5881 6.646C23.5881 5.41 23.8761 4.3 24.4521 3.316C25.0401 2.332 25.8261 1.564 26.8101 1.012C27.8061 0.46 28.8981 0.184 30.0861 0.184C31.2741 0.184 32.3601 0.46 33.3441 1.012C34.3401 1.564 35.1201 2.332 35.6841 3.316C36.2601 4.3 36.5481 5.41 36.5481 6.646C36.5481 7.882 36.2601 8.998 35.6841 9.994C35.1081 10.978 34.3281 11.746 33.3441 12.298C32.3601 12.85 31.2741 13.126 30.0861 13.126ZM30.0861 10.318C31.0941 10.318 31.8981 9.982 32.4981 9.31C33.1101 8.638 33.4161 7.75 33.4161 6.646C33.4161 5.53 33.1101 4.642 32.4981 3.982C31.8981 3.31 31.0941 2.974 30.0861 2.974C29.0661 2.974 28.2501 3.304 27.6381 3.964C27.0381 4.624 26.7381 5.518 26.7381 6.646C26.7381 7.762 27.0381 8.656 27.6381 9.328C28.2501 9.988 29.0661 10.318 30.0861 10.318ZM42.9945 0.364C44.3265 0.364 45.4905 0.627999 46.4865 1.156C47.4825 1.684 48.2505 2.428 48.7905 3.388C49.3425 4.336 49.6185 5.434 49.6185 6.682C49.6185 7.918 49.3425 9.016 48.7905 9.976C48.2505 10.936 47.4765 11.68 46.4685 12.208C45.4725 12.736 44.3145 13 42.9945 13H38.2605V0.364H42.9945ZM42.7965 10.336C43.9605 10.336 44.8665 10.018 45.5145 9.382C46.1625 8.746 46.4865 7.846 46.4865 6.682C46.4865 5.518 46.1625 4.612 45.5145 3.964C44.8665 3.316 43.9605 2.992 42.7965 2.992H41.3385V10.336H42.7965ZM65.6487 0.364V13H62.5707V5.422L59.7447 13H57.2607L54.4167 5.404V13H51.3387V0.364H54.9747L58.5207 9.112L62.0307 0.364H65.6487ZM73.8381 13.126C72.6501 13.126 71.5581 12.85 70.5621 12.298C69.5781 11.746 68.7921 10.978 68.2041 9.994C67.6281 8.998 67.3401 7.882 67.3401 6.646C67.3401 5.41 67.6281 4.3 68.2041 3.316C68.7921 2.332 69.5781 1.564 70.5621 1.012C71.5581 0.46 72.6501 0.184 73.8381 0.184C75.0261 0.184 76.1121 0.46 77.0961 1.012C78.0921 1.564 78.8721 2.332 79.4361 3.316C80.0121 4.3 80.3001 5.41 80.3001 6.646C80.3001 7.882 80.0121 8.998 79.4361 9.994C78.8601 10.978 78.0801 11.746 77.0961 12.298C76.1121 12.85 75.0261 13.126 73.8381 13.126ZM73.8381 10.318C74.8461 10.318 75.6501 9.982 76.2501 9.31C76.8621 8.638 77.1681 7.75 77.1681 6.646C77.1681 5.53 76.8621 4.642 76.2501 3.982C75.6501 3.31 74.8461 2.974 73.8381 2.974C72.8181 2.974 72.0021 3.304 71.3901 3.964C70.7901 4.624 70.4901 5.518 70.4901 6.646C70.4901 7.762 70.7901 8.656 71.3901 9.328C72.0021 9.988 72.8181 10.318 73.8381 10.318ZM87.9885 13.126C86.8005 13.126 85.7085 12.85 84.7125 12.298C83.7285 11.746 82.9425 10.978 82.3545 9.994C81.7785 8.998 81.4905 7.882 81.4905 6.646C81.4905 5.41 81.7785 4.3 82.3545 3.316C82.9425 2.332 83.7285 1.564 84.7125 1.012C85.7085 0.46 86.8005 0.184 87.9885 0.184C89.1765 0.184 90.2625 0.46 91.2465 1.012C92.2425 1.564 93.0225 2.332 93.5865 3.316C94.1625 4.3 94.4505 5.41 94.4505 6.646C94.4505 7.882 94.1625 8.998 93.5865 9.994C93.0105 10.978 92.2305 11.746 91.2465 12.298C90.2625 12.85 89.1765 13.126 87.9885 13.126ZM87.9885 10.318C88.9965 10.318 89.8005 9.982 90.4005 9.31C91.0125 8.638 91.3185 7.75 91.3185 6.646C91.3185 5.53 91.0125 4.642 90.4005 3.982C89.8005 3.31 88.9965 2.974 87.9885 2.974C86.9685 2.974 86.1525 3.304 85.5405 3.964C84.9405 4.624 84.6405 5.518 84.6405 6.646C84.6405 7.762 84.9405 8.656 85.5405 9.328C86.1525 9.988 86.9685 10.318 87.9885 10.318ZM100.897 0.364C102.229 0.364 103.393 0.627999 104.389 1.156C105.385 1.684 106.153 2.428 106.693 3.388C107.245 4.336 107.521 5.434 107.521 6.682C107.521 7.918 107.245 9.016 106.693 9.976C106.153 10.936 105.379 11.68 104.371 12.208C103.375 12.736 102.217 13 100.897 13H96.1629V0.364H100.897ZM100.699 10.336C101.863 10.336 102.769 10.018 103.417 9.382C104.065 8.746 104.389 7.846 104.389 6.682C104.389 5.518 104.065 4.612 103.417 3.964C102.769 3.316 101.863 2.992 100.699 2.992H99.2409V10.336H100.699Z" fill="white"/>
</svg>
