<svg width="716" height="417" viewBox="0 0 716 417" fill="none" xmlns="http://www.w3.org/2000/svg">
<g clip-path="url(#clip0_28_1716)">
<path d="M117.69 189.604V72.4128C117.69 70.7392 118.342 69.1342 119.503 67.9508C120.664 66.7674 122.239 66.1025 123.88 66.1025C125.522 66.1025 127.096 66.7674 128.257 67.9508C129.418 69.1342 130.07 70.7392 130.07 72.4128V189.604C130.07 191.278 129.418 192.883 128.257 194.066C127.096 195.249 125.522 195.914 123.88 195.914C122.239 195.914 120.664 195.249 119.503 194.066C118.342 192.883 117.69 191.278 117.69 189.604Z" fill="#F0F0F0"/>
<path d="M102.878 189.604V72.4128C102.878 70.7392 103.53 69.1342 104.691 67.9508C105.852 66.7674 107.426 66.1025 109.068 66.1025C110.71 66.1025 112.284 66.7674 113.445 67.9508C114.606 69.1342 115.258 70.7392 115.258 72.4128V189.604C115.258 191.278 114.606 192.883 113.445 194.066C112.284 195.249 110.71 195.914 109.068 195.914C107.426 195.914 105.852 195.249 104.691 194.066C103.53 192.883 102.878 191.278 102.878 189.604Z" fill="#F0F0F0"/>
<path d="M88.0659 189.604V72.4128C88.0659 70.7392 88.7181 69.1342 89.879 67.9508C91.0398 66.7674 92.6143 66.1025 94.256 66.1025C95.8978 66.1025 97.4722 66.7674 98.6331 67.9508C99.794 69.1342 100.446 70.7392 100.446 72.4128V189.604C100.446 191.278 99.794 192.883 98.6331 194.066C97.4722 195.249 95.8978 195.914 94.256 195.914C92.6143 195.914 91.0398 195.249 89.879 194.066C88.7181 192.883 88.0659 191.278 88.0659 189.604Z" fill="#F0F0F0"/>
<path d="M647.304 376.782C644.811 376.784 642.337 376.346 639.991 375.488L639.629 375.355L639.795 374.539C635.593 365.884 637.062 354.028 643.556 344.279C649.461 335.416 658.438 328.973 666.359 323.289C667.364 322.568 668.558 322.169 669.787 322.145C671.016 322.121 672.224 322.473 673.255 323.154C674.286 323.835 675.094 324.816 675.575 325.969C676.056 327.122 676.187 328.396 675.952 329.625L673.119 344.44C671.075 355.127 668.643 365.242 661.432 371.55C657.47 374.929 652.47 376.781 647.304 376.782Z" fill="#E6E6E6"/>
<path d="M665.854 402.381C663.11 402.365 660.415 401.65 658.011 400.301C655.607 398.953 653.573 397.014 652.091 394.66L651.885 394.334L652.375 393.894C653.642 386.846 659.602 380.566 667.605 377.866C674.879 375.411 682.909 375.813 689.988 376.166C690.924 376.212 691.825 376.54 692.577 377.109C693.329 377.678 693.899 378.462 694.214 379.362C694.528 380.261 694.574 381.235 694.345 382.161C694.116 383.087 693.623 383.923 692.927 384.562L684.961 391.892C679.173 397.217 673.4 402.026 666.436 402.37C666.242 402.378 666.048 402.382 665.854 402.381Z" fill="#E6E6E6"/>
<path d="M641.133 410.217C639.957 401.288 638.747 392.244 639.572 383.219C640.305 375.203 642.651 367.375 647.429 360.956C649.953 357.566 653.038 354.652 656.546 352.346C657.458 351.746 658.297 353.252 657.389 353.849C651.308 357.873 646.63 363.754 644.026 370.652C641.116 378.364 640.649 386.771 641.151 394.963C641.454 399.917 642.096 404.839 642.744 409.754C642.796 409.975 642.765 410.207 642.657 410.405C642.549 410.604 642.372 410.753 642.16 410.825C642.054 410.854 641.943 410.861 641.833 410.846C641.724 410.832 641.618 410.795 641.523 410.738C641.427 410.682 641.344 410.607 641.277 410.517C641.21 410.428 641.161 410.326 641.133 410.217Z" fill="#F2F2F2"/>
<path d="M637.809 415.35C643.471 404.91 650.038 393.306 661.772 389.598C665.031 388.571 668.455 388.202 671.852 388.513C672.922 388.609 672.655 390.329 671.586 390.233C665.881 389.744 660.188 391.314 655.501 394.667C650.966 397.885 647.434 402.357 644.446 407.1C642.615 410.006 640.975 413.034 639.335 416.059C638.811 417.025 637.278 416.328 637.809 415.35Z" fill="#F2F2F2"/>
<path d="M635.261 415.197L640.978 415.33L606.507 227.61L600.791 228.708L609.792 277.405H580.792L589.793 228.708L584.077 227.61L549.894 415.33L555.323 415.197L573.294 317.972H617.29L635.261 415.197ZM574.627 310.76L579.459 284.617H611.125L615.957 310.76H574.627Z" fill="#CACACA"/>
<path d="M385.634 192.594V130.947C385.634 129.116 388.411 127.627 391.825 127.627C395.238 127.627 398.015 129.116 398.015 130.947V192.594C398.015 194.425 395.238 195.914 391.825 195.914C388.411 195.914 385.634 194.425 385.634 192.594Z" fill="#F0F0F0"/>
<path d="M370.822 192.594V130.947C370.822 129.116 373.599 127.627 377.012 127.627C380.426 127.627 383.203 129.116 383.203 130.947V192.594C383.203 194.425 380.426 195.914 377.012 195.914C373.599 195.914 370.822 194.425 370.822 192.594Z" fill="#F0F0F0"/>
<path d="M356.01 192.594V130.947C356.01 129.116 358.787 127.627 362.2 127.627C365.614 127.627 368.391 129.116 368.391 130.947V192.594C368.391 194.425 365.614 195.914 362.2 195.914C358.787 195.914 356.01 194.425 356.01 192.594Z" fill="#F0F0F0"/>
<path d="M480.621 147.259C480.594 147.071 480.528 146.892 480.428 146.732C480.328 146.573 480.196 146.436 480.041 146.332L433.374 114.925C434.077 114.626 434.665 114.101 435.048 113.43C435.515 112.601 435.641 111.618 435.398 110.695C435.155 109.772 434.564 108.984 433.754 108.504L429.925 106.25C429.112 105.775 428.147 105.647 427.242 105.894C426.337 106.142 425.564 106.744 425.093 107.57C424.839 108.024 424.686 108.53 424.645 109.051L390.958 86.3806C389.827 83.5875 388.112 81.0795 385.932 79.0312C383.753 76.9829 381.162 75.4437 378.339 74.5207V64.5249H365.959V74.5207C361.851 75.8597 358.267 78.4945 355.724 82.0448C353.181 85.5951 351.81 89.8773 351.81 94.2734V96.9778H364.19C364.19 99.1296 365.029 101.193 366.521 102.715C368.014 104.236 370.038 105.091 372.149 105.091C374.26 105.091 376.284 104.236 377.777 102.715C379.269 101.193 380.108 99.1296 380.108 96.9778H392.488V94.2734C392.487 92.977 392.367 91.6835 392.13 90.4098L477.35 147.761L441.95 191.636C441.675 191.635 441.401 191.632 441.125 191.632C438.3 191.632 435.564 191.7 432.956 191.818C433.113 191.372 433.182 190.899 433.158 190.426C433.107 189.472 432.687 188.577 431.991 187.938C431.294 187.298 430.378 186.966 429.442 187.013L425.026 187.247C424.09 187.3 423.213 187.728 422.585 188.437C421.958 189.147 421.632 190.081 421.678 191.036C421.71 191.6 421.875 192.147 422.157 192.633C414.349 193.479 409.29 194.645 409.29 195.238C409.29 196.21 422.876 195.285 439.88 195.24C439.958 195.466 440.093 195.666 440.272 195.82C440.451 195.975 440.667 196.078 440.898 196.119C441.129 196.161 441.366 196.139 441.586 196.055C441.806 195.972 442 195.831 442.149 195.646L442.477 195.24C459.431 195.289 472.96 196.208 472.96 195.238C472.96 194.324 460.931 192.048 445.346 191.684L480.335 148.319C480.453 148.173 480.539 148.003 480.588 147.82C480.638 147.637 480.649 147.446 480.621 147.259Z" fill="#CCCCCC"/>
<path d="M481.898 415.648H372.937C370.735 415.645 368.624 414.752 367.067 413.165C365.51 411.578 364.635 409.426 364.632 407.181V224.889C364.63 222.884 363.847 220.961 362.456 219.543C361.065 218.125 359.179 217.327 357.211 217.325H102.34C100.373 217.327 98.4867 218.125 97.0955 219.543C95.7042 220.961 94.9216 222.884 94.9193 224.889V407.181C94.9168 409.426 94.041 411.578 92.484 413.165C90.927 414.753 88.8159 415.645 86.6139 415.648H82.8858C80.6838 415.645 78.5727 414.753 77.0157 413.165C75.4587 411.578 74.5828 409.426 74.5803 407.181V215.071C74.5862 209.693 76.6844 204.538 80.4145 200.735C84.1446 196.933 89.202 194.794 94.4772 194.788H470.307C475.582 194.794 480.639 196.933 484.369 200.735C488.1 204.538 490.198 209.693 490.204 215.071V407.181C490.201 409.426 489.325 411.578 487.768 413.165C486.211 414.753 484.1 415.645 481.898 415.648Z" fill="#E4E4E4"/>
<path d="M489.761 242.115H365.074V247.524H489.761V242.115Z" fill="white"/>
<path d="M489.761 315.134H365.074V320.543H489.761V315.134Z" fill="white"/>
<path d="M261.862 193.898L258.278 192.359L255.82 174.046H223.082L220.418 192.284L217.212 193.919C217.058 193.997 216.935 194.126 216.863 194.284C216.79 194.442 216.772 194.621 216.811 194.791C216.851 194.961 216.945 195.113 217.08 195.221C217.214 195.33 217.381 195.389 217.552 195.389H261.566C261.742 195.389 261.912 195.327 262.048 195.213C262.184 195.1 262.278 194.942 262.313 194.766C262.347 194.591 262.321 194.408 262.239 194.25C262.157 194.092 262.024 193.967 261.862 193.898Z" fill="#E6E6E6"/>
<path d="M320.038 176.482H159.224C158.38 176.48 157.571 176.137 156.975 175.529C156.379 174.92 156.045 174.095 156.045 173.235V150.117H323.217V173.235C323.217 174.095 322.882 174.92 322.286 175.529C321.69 176.137 320.881 176.48 320.038 176.482Z" fill="#CCCCCC"/>
<path d="M323.385 161.043H155.898V62.1298C155.899 61.0918 156.304 60.0966 157.024 59.3626C157.744 58.6286 158.721 58.2158 159.739 58.2146H319.544C320.562 58.2158 321.538 58.6286 322.258 59.3626C322.979 60.0966 323.384 61.0918 323.385 62.1298V161.043Z" fill="#3F3D56"/>
<path d="M313.381 153.864H165.901C165.116 153.863 164.364 153.545 163.809 152.979C163.253 152.413 162.941 151.646 162.94 150.845V68.4121C162.941 67.6118 163.253 66.8446 163.809 66.2787C164.364 65.7128 165.116 65.3945 165.901 65.3936H313.381C314.167 65.3945 314.919 65.7128 315.474 66.2787C316.029 66.8446 316.342 67.6118 316.342 68.4121V150.845C316.342 151.646 316.029 152.413 315.474 152.979C314.919 153.545 314.166 153.863 313.381 153.864Z" fill="white"/>
<path d="M478.709 74.857C480.12 74.6497 481.558 74.7604 482.922 75.1811C484.287 75.6018 485.544 76.3223 486.605 77.2919C487.667 78.2614 488.507 79.4565 489.067 80.7929C489.626 82.1293 489.891 83.5745 489.844 85.0267L522.179 97.7144L507.529 108.384L479.069 94.7C476.681 94.4567 474.464 93.3289 472.837 91.5304C471.211 89.7318 470.288 87.3875 470.243 84.9416C470.199 82.4956 471.036 80.1181 472.597 78.2594C474.157 76.4008 476.332 75.1902 478.709 74.857Z" fill="#9E616A"/>
<path d="M601.484 68.6284L606.954 78.767C605.632 85.1976 602.216 90.9832 597.26 95.1835C588.885 102.384 545.093 129.202 545.093 129.202L489.809 100.909L499.48 87.8078L542.884 102.636C558.984 87.137 578.414 75.6865 599.625 69.1973L601.484 68.6284Z" fill="#02447B"/>
<path d="M591.312 236.396C615.141 236.396 634.458 229.98 634.458 222.065C634.458 214.15 615.141 207.733 591.312 207.733C567.483 207.733 548.166 214.15 548.166 222.065C548.166 229.98 567.483 236.396 591.312 236.396Z" fill="#CACACA"/>
<path d="M494.518 403.052L483.061 399.824L489.825 353.238L506.734 358.004L494.518 403.052Z" fill="#9E616A"/>
<path d="M494.37 415.197L457.428 404.787L457.557 404.311C458.611 400.423 461.137 397.122 464.579 395.133C468.021 393.144 472.097 392.63 475.91 393.704L475.911 393.704L498.474 400.063L494.37 415.197Z" fill="#2F2E41"/>
<path d="M461.3 403.203L450.426 398.308L463.772 353.224L479.82 360.448L461.3 403.203Z" fill="#9E616A"/>
<path d="M459.419 415.197L424.358 399.414L424.553 398.962C426.152 395.273 429.122 392.381 432.812 390.924C436.501 389.467 440.607 389.564 444.226 391.193L444.227 391.193L465.642 400.833L459.419 415.197Z" fill="#2F2E41"/>
<path d="M624.891 187.025C624.891 187.025 630.654 205.229 595.292 228.25L549.749 274.512L502.428 389.906L474.334 377.066L479.844 362.073L483.541 352.012L485.433 346.865L487.461 341.347L517.537 259.506L542.802 214.411L543.535 189.942L549.749 172.694L594.834 156.385L624.891 187.025Z" fill="#2F2E41"/>
<path d="M601.899 187.927C601.899 187.927 607.662 206.13 572.3 229.151L526.757 275.414L479.436 390.807L451.342 377.968L456.852 362.974L460.549 352.914L462.441 347.766L464.469 342.249L494.546 260.407L503.005 245.308C514.164 225.39 527.725 206.972 543.37 190.485L551.663 181.747L552.547 168.225L571.842 157.287L601.899 187.927Z" fill="#2F2E41"/>
<path d="M574.655 98.8113L588.804 68.1613L613.495 64.7278C613.495 64.7278 632.775 89.768 627.713 124.954C625.815 138.149 624.268 151.285 624.176 162.816C624.151 165.884 626.784 167.254 626.829 170.027C626.872 172.752 621.838 177.191 623.291 179.042C625.369 181.594 626.607 184.748 626.829 188.057C625.076 192.308 572.041 169.276 549.749 172.694L574.655 98.8113Z" fill="#02447B"/>
<path d="M609.725 49.2973C616.027 38.4892 612.541 24.5192 601.939 18.0945C591.337 11.6697 577.633 15.2231 571.33 26.0311C565.028 36.8392 568.514 50.8091 579.116 57.2339C589.718 63.6587 603.422 60.1053 609.725 49.2973Z" fill="#9E616A"/>
<path d="M604.806 29.4898C604.763 30.0888 604.704 30.8822 604.636 31.7798C604.566 34.2369 605.245 36.6556 606.58 38.703C607.829 40.857 606.338 53.8665 606.338 53.8665C642.921 27.8714 614.015 1.75521 602.708 4.07676C602.944 0.77095 593.723 2.08056 593.723 2.08056C590.209 -3.49758 582.508 3.90694 582.508 3.90694L583.994 1.35854C578.015 2.90881 572.106 21.7456 572.106 21.7456C574.134 29.8721 605.042 26.184 604.806 29.4898Z" fill="#2F2E41"/>
<path d="M462.892 110.868C475.463 93.8225 485.401 74.9159 492.36 54.805C492.763 53.602 492.735 52.2922 492.279 51.1088C491.824 49.9254 490.971 48.9451 489.873 48.3424L446.856 24.8454C446.16 24.4624 445.387 24.2463 444.597 24.2136C443.807 24.1809 443.02 24.3324 442.296 24.6567C441.558 24.9834 440.904 25.4774 440.381 26.1009C439.859 26.7245 439.484 27.4613 439.283 28.2552C434.276 47.6346 424.865 65.5405 411.81 80.5241C411.273 81.134 410.879 81.8608 410.659 82.6493C410.438 83.4378 410.398 84.2671 410.539 85.0741C410.676 85.8682 410.988 86.6203 411.452 87.2728C411.916 87.9254 412.521 88.4614 413.219 88.8399L456.236 112.337C457.337 112.935 458.61 113.116 459.828 112.847C461.047 112.578 462.133 111.877 462.892 110.868Z" fill="#CCCCCC"/>
<path d="M459.957 108.62C459.725 108.914 459.4 109.117 459.038 109.193C458.675 109.269 458.298 109.214 457.971 109.038L414.954 85.54C414.745 85.429 414.564 85.2702 414.425 85.076C414.287 84.8818 414.194 84.6576 414.155 84.4208C414.11 84.1708 414.123 83.9137 414.192 83.6695C414.261 83.4253 414.384 83.2008 414.553 83.0134C427.992 67.5884 437.681 49.1549 442.835 29.2044C442.895 28.9579 443.01 28.7289 443.171 28.5351C443.332 28.3414 443.534 28.1883 443.763 28.0877C443.979 27.9895 444.213 27.9435 444.449 27.9535C444.685 27.9634 444.915 28.029 445.122 28.145L488.139 51.6419C488.465 51.8213 488.719 52.1112 488.857 52.4614C488.996 52.8116 489.01 53.2001 488.897 53.5598C482.062 73.3107 472.302 91.8789 459.957 108.62Z" fill="white"/>
<path d="M444.907 50.4694L474.577 68.1979C477.529 69.9618 480.202 65.2886 477.255 63.5275L447.585 45.799C444.633 44.0351 441.959 48.7084 444.907 50.4694Z" fill="#02447B"/>
<path d="M439.601 60.3855L469.271 78.1139C472.223 79.8778 474.897 75.2046 471.949 73.4436L442.279 55.7151C439.327 53.9512 436.654 58.6244 439.601 60.3855Z" fill="#FFD233"/>
<path d="M433.411 71.2031L463.081 88.9315C466.033 90.6954 468.706 86.0223 465.759 84.2612L436.089 66.5327C433.137 64.7688 430.463 69.442 433.411 71.2031Z" fill="#02447B"/>
<path d="M427.221 80.218L456.891 97.9464C459.843 99.7103 462.516 95.0372 459.569 93.2761L429.899 75.5476C426.947 73.7837 424.273 78.4569 427.221 80.218Z" fill="#02447B"/>
<path d="M562.479 184.499L573.618 210.033C573.887 210.644 574.002 211.314 573.953 211.982C573.904 212.65 573.692 213.295 573.336 213.859C572.918 214.532 572.314 215.064 571.599 215.388C570.885 215.712 570.092 215.813 569.322 215.679C569.059 215.638 568.802 215.568 568.554 215.47C567.569 215.082 566.775 214.313 566.346 213.33L555.207 187.795C554.995 187.309 554.879 186.784 554.865 186.251C554.852 185.719 554.941 185.189 555.129 184.692C555.508 183.687 556.262 182.877 557.226 182.44C558.191 182.003 559.286 181.974 560.271 182.36C561.256 182.746 562.051 183.516 562.479 184.499Z" fill="#6C63FF"/>
<path d="M572.72 207.974L574.952 213.127L576.093 220.434C576.168 220.915 576.085 221.408 575.858 221.836C575.63 222.264 575.27 222.603 574.833 222.801C574.396 222.999 573.908 223.045 573.443 222.93C572.979 222.816 572.565 222.548 572.265 222.169L567.647 216.312L565.448 211.271L572.72 207.974Z" fill="#3F3D56"/>
<path d="M552.732 177.394L554.328 187.617C554.38 187.952 554.507 188.27 554.699 188.546C554.891 188.823 555.143 189.051 555.435 189.213C555.727 189.374 556.052 189.465 556.384 189.479C556.717 189.492 557.047 189.427 557.351 189.29L558.934 188.572L561.988 195.574C562.083 195.792 562.26 195.962 562.479 196.048C562.697 196.133 562.94 196.127 563.155 196.03C563.369 195.933 563.536 195.753 563.62 195.53C563.705 195.307 563.699 195.06 563.604 194.841L560.55 187.84L562.132 187.122C562.657 186.884 563.067 186.444 563.274 185.898C563.481 185.352 563.467 184.744 563.236 184.208C563.158 184.031 563.058 183.865 562.938 183.714L556.561 175.658C556.261 175.279 555.847 175.012 555.382 174.898C554.918 174.784 554.429 174.829 553.992 175.027C553.556 175.225 553.196 175.564 552.968 175.992C552.74 176.42 552.657 176.913 552.732 177.394Z" fill="#3F3D56"/>
<path d="M557.353 195.846C557.604 194.416 558.159 193.059 558.98 191.871C559.802 190.683 560.868 189.694 562.105 188.971C563.342 188.249 564.719 187.812 566.139 187.692C567.56 187.571 568.989 187.769 570.326 188.272L592.315 160.977L597.64 178.51L575.942 201.742C574.964 203.976 573.217 205.766 571.03 206.774C568.843 207.782 566.37 207.938 564.079 207.211C561.787 206.484 559.837 204.926 558.597 202.831C557.358 200.737 556.915 198.251 557.353 195.846Z" fill="#9E616A"/>
<path d="M585.036 194.072L575.351 179.812L602.852 142.432L588.685 111.485L589.716 74.6728L601.423 72.4683L601.569 72.5426C607.26 75.8824 611.66 81.1064 614.037 87.3472C616.957 94.79 623.477 122.73 627.103 138.722C627.816 141.821 627.738 145.055 626.877 148.114C626.016 151.174 624.401 153.958 622.186 156.201L585.036 194.072Z" fill="#02447B"/>
<path d="M312.349 125.165C312.268 125.858 312.241 126.556 312.269 127.253L262.683 164.027L249.061 157.882L237.275 177.627L260.354 190.896C262.218 191.968 264.373 192.394 266.496 192.111C268.618 191.828 270.593 190.851 272.125 189.326L322.031 139.634C324.585 140.296 327.277 140.149 329.748 139.213C332.218 138.278 334.351 136.597 335.862 134.396C337.373 132.194 338.19 129.576 338.206 126.889C338.222 124.202 337.434 121.574 335.949 119.355C334.464 117.135 332.351 115.429 329.891 114.463C327.432 113.498 324.742 113.319 322.18 113.949C319.618 114.58 317.305 115.991 315.549 117.995C313.793 119.998 312.677 122.499 312.349 125.165Z" fill="#FFB6B6"/>
<path d="M261.079 165.372L246.619 189.935C246.208 190.634 245.654 191.234 244.994 191.695C244.334 192.156 243.585 192.466 242.797 192.605C242.01 192.744 241.202 192.708 240.429 192.5C239.655 192.292 238.935 191.917 238.318 191.4L216.667 173.274C213.172 171.107 210.662 167.616 209.688 163.566C208.714 159.517 209.354 155.238 211.469 151.669C213.585 148.1 217.001 145.532 220.971 144.526C224.941 143.521 229.14 144.162 232.647 146.308L258.442 157.215C259.18 157.527 259.844 157.998 260.388 158.596C260.932 159.193 261.343 159.903 261.593 160.677C261.843 161.452 261.927 162.272 261.838 163.082C261.75 163.892 261.491 164.673 261.079 165.372Z" fill="#6C63FF"/>
<path d="M199.123 378.873H227.467V330.991H199.123V378.873Z" fill="#CACACA"/>
<path d="M226.046 356.327L222.408 361.792L290.434 408.849L294.072 403.383L226.046 356.327Z" fill="#CACACA"/>
<path d="M200.543 356.327L132.517 403.383L136.155 408.849L204.181 361.792L200.543 356.327Z" fill="#CACACA"/>
<path d="M292.253 415.197C297.173 415.197 301.161 411.131 301.161 406.116C301.161 401.101 297.173 397.035 292.253 397.035C287.334 397.035 283.345 401.101 283.345 406.116C283.345 411.131 287.334 415.197 292.253 415.197Z" fill="#CACACA"/>
<path d="M212.89 415.197C217.81 415.197 221.798 411.131 221.798 406.116C221.798 401.101 217.81 397.035 212.89 397.035C207.97 397.035 203.982 401.101 203.982 406.116C203.982 411.131 207.97 415.197 212.89 415.197Z" fill="#CACACA"/>
<path d="M134.336 415.197C139.256 415.197 143.244 411.131 143.244 406.116C143.244 401.101 139.256 397.035 134.336 397.035C129.416 397.035 125.428 401.101 125.428 406.116C125.428 411.131 129.416 415.197 134.336 415.197Z" fill="#CACACA"/>
<path d="M216.129 359.06H209.65V406.116H216.129V359.06Z" fill="#CACACA"/>
<path d="M207.221 352.455H219.368V288.887H207.221V352.455Z" fill="#CACACA"/>
<path d="M178.472 298.794V283.934C178.475 281.198 179.542 278.575 181.44 276.641C183.338 274.706 185.911 273.618 188.595 273.615H242.854C245.537 273.618 248.11 274.706 250.008 276.641C251.906 278.575 252.973 281.198 252.976 283.934V298.794C252.973 301.53 251.906 304.153 250.008 306.088C248.11 308.022 245.537 309.11 242.853 309.114H188.595C185.911 309.11 183.338 308.022 181.44 306.088C179.542 304.153 178.475 301.53 178.472 298.794Z" fill="#3F3D56"/>
<path d="M276.47 400.369L291.475 400.368L298.615 360.694L276.468 360.695L276.47 400.369Z" fill="#FFB8B8"/>
<path d="M272.643 415.197L321.028 415.195V414.571C321.028 412.05 320.541 409.554 319.594 407.225C318.648 404.895 317.261 402.779 315.512 400.996C313.763 399.214 311.687 397.8 309.403 396.835C307.118 395.87 304.669 395.373 302.196 395.373H302.194L272.642 395.375L272.643 415.197Z" fill="#2F2E41"/>
<path d="M298.914 375.766L328.829 307.38C331.327 301.616 331.603 295.105 329.603 289.143C327.602 283.181 323.472 278.206 318.035 275.208L253.148 239.738L223.538 237.17L196.225 234.639L196.028 234.979C195.776 235.413 189.904 245.753 193.873 257.092C196.884 265.692 204.717 272.409 217.152 277.058C246.178 287.907 279.709 297.18 292.778 300.663C293.355 300.813 293.895 301.087 294.362 301.465C294.828 301.844 295.211 302.319 295.484 302.858C295.759 303.392 295.922 303.978 295.963 304.579C296.004 305.18 295.923 305.783 295.725 306.351L267.932 370.004C267.642 370.811 267.537 371.676 267.627 372.531C267.716 373.386 267.997 374.208 268.447 374.935C268.898 375.662 269.506 376.274 270.225 376.723C270.944 377.173 271.755 377.448 272.595 377.527L293.361 379.068C293.538 379.085 293.713 379.094 293.888 379.094C294.952 379.094 295.992 378.779 296.884 378.189C297.776 377.598 298.481 376.757 298.914 375.766Z" fill="#2F2E41"/>
<path d="M266.678 400.369L281.683 400.368L288.823 360.694L266.676 360.695L266.678 400.369Z" fill="#FFB8B8"/>
<path d="M262.851 415.197L311.236 415.195V414.571C311.236 412.05 310.749 409.554 309.803 407.225C308.856 404.895 307.469 402.779 305.72 400.996C303.972 399.214 301.895 397.8 299.611 396.835C297.326 395.87 294.877 395.373 292.404 395.373H292.402L262.85 395.375L262.851 415.197Z" fill="#2F2E41"/>
<path d="M287.898 379.51L317.813 311.124C320.311 305.36 320.587 298.848 318.587 292.886C316.586 286.924 312.457 281.949 307.019 278.951L242.132 243.481L212.522 240.914L191.129 239.022L191.132 238.723C190.88 239.156 185.008 249.497 188.977 260.835C191.989 269.435 193.701 276.153 206.136 280.801C235.162 291.651 268.693 300.924 281.762 304.406C282.34 304.557 282.879 304.83 283.346 305.209C283.812 305.587 284.195 306.062 284.468 306.602C284.743 307.135 284.906 307.721 284.947 308.322C284.988 308.923 284.907 309.527 284.709 310.094L256.916 373.747C256.626 374.555 256.521 375.419 256.611 376.274C256.7 377.129 256.981 377.952 257.431 378.679C257.882 379.405 258.49 380.017 259.209 380.466C259.928 380.916 260.739 381.191 261.579 381.27L282.346 382.812C282.522 382.829 282.697 382.837 282.872 382.837C283.936 382.837 284.976 382.522 285.868 381.932C286.76 381.341 287.465 380.5 287.898 379.51Z" fill="#2F2E41"/>
<path d="M269.133 84.9534C272.974 68.4874 262.994 51.9646 246.841 48.0487C230.689 44.1328 214.481 54.3067 210.639 70.7728C206.798 87.2388 216.778 103.762 232.931 107.677C249.083 111.593 265.291 101.419 269.133 84.9534Z" fill="#FFB8B8"/>
<path d="M343.511 195.607C356.082 178.561 366.019 159.654 372.979 139.543C373.382 138.34 373.353 137.031 372.898 135.847C372.443 134.664 371.59 133.683 370.492 133.081L327.475 109.584C326.779 109.201 326.006 108.985 325.216 108.952C324.426 108.919 323.639 109.071 322.915 109.395C322.177 109.722 321.522 110.216 321 110.839C320.478 111.463 320.103 112.2 319.902 112.993C314.895 132.373 305.484 150.279 292.429 165.262C291.892 165.872 291.498 166.599 291.277 167.388C291.057 168.176 291.016 169.005 291.158 169.812C291.294 170.607 291.607 171.359 292.071 172.011C292.535 172.664 293.14 173.2 293.838 173.578L336.855 197.075C337.956 197.673 339.229 197.854 340.447 197.585C341.666 197.316 342.752 196.615 343.511 195.607Z" fill="#CCCCCC"/>
<path d="M340.575 193.358C340.344 193.652 340.019 193.855 339.657 193.931C339.294 194.008 338.917 193.953 338.59 193.776L295.572 170.278C295.364 170.167 295.183 170.008 295.044 169.814C294.906 169.62 294.813 169.396 294.774 169.159C294.729 168.909 294.741 168.652 294.81 168.408C294.879 168.164 295.003 167.939 295.172 167.752C308.611 152.327 318.3 133.893 323.454 113.943C323.514 113.696 323.629 113.467 323.789 113.273C323.95 113.08 324.153 112.927 324.382 112.826C324.597 112.728 324.832 112.682 325.068 112.692C325.304 112.702 325.534 112.767 325.741 112.883L368.758 136.38C369.083 136.56 369.338 136.85 369.476 137.2C369.614 137.55 369.629 137.938 369.516 138.298C362.681 158.049 352.921 176.617 340.575 193.358Z" fill="white"/>
<path d="M325.526 135.207L355.196 152.936C358.148 154.7 360.821 150.027 357.874 148.266L328.204 130.537C325.251 128.773 322.578 133.446 325.526 135.207Z" fill="#CCCCCC"/>
<path d="M320.22 145.124L349.89 162.852C352.842 164.616 355.515 159.943 352.568 158.182L322.898 140.453C319.946 138.689 317.272 143.363 320.22 145.124Z" fill="#CCCCCC"/>
<path d="M316.051 155.001L343.035 171.331C345.72 172.956 348.591 169.597 345.91 167.975L318.927 151.645C316.242 150.02 313.371 153.379 316.051 155.001Z" fill="#CCCCCC"/>
<path d="M307.839 164.956L337.51 182.684C340.462 184.448 343.135 179.775 340.188 178.014L310.517 160.286C307.565 158.522 304.892 163.195 307.839 164.956Z" fill="#CCCCCC"/>
<path d="M257.22 242.22L197.729 241.857L197.713 241.426C196.578 210.998 200.226 183.434 208.865 157.161C208.987 156.178 209.119 155.127 209.249 154.095C210.724 142.341 211.896 133.008 222.861 129.533C221.947 128.294 221.409 126.811 221.312 125.265C221.242 124.237 221.375 123.206 221.7 122.231C222.026 121.256 222.538 120.357 223.208 119.586C223.849 118.841 224.629 118.234 225.502 117.799C226.376 117.365 227.325 117.112 228.295 117.056L249.47 116.32C250.583 116.313 251.666 116.687 252.545 117.383C254.157 118.604 255.29 120.37 255.741 122.365C256.192 124.36 255.932 126.453 255.006 128.27C254.757 128.776 254.662 129.007 254.625 129.107C255.378 133.128 257.612 137.904 259.975 142.958C263.359 150.194 267.195 158.396 268.181 167.17C268.714 171.907 268.493 176.702 267.526 181.367C267.085 183.881 266.983 186.445 267.224 188.987C267.417 192.757 267.6 196.316 265.51 199.758C264.977 200.692 264.367 201.686 263.652 202.789L260.712 209.954L257.22 242.22Z" fill="#FFD233"/>
<path d="M167.944 284.802V160.884C167.948 156.847 169.524 152.975 172.325 150.12C175.126 147.265 178.923 145.659 182.884 145.654H187.017C190.978 145.659 194.775 147.265 197.576 150.12C200.377 152.975 201.953 156.847 201.957 160.884V284.802C201.953 288.84 200.377 292.711 197.576 295.567C194.775 298.422 190.978 300.028 187.017 300.032H182.884C178.923 300.028 175.126 298.422 172.325 295.567C169.524 292.711 167.948 288.84 167.944 284.802Z" fill="#3F3D56"/>
<path d="M327.476 173.253C327.049 173.797 326.665 174.376 326.327 174.982L265.171 179.535L256.783 166.985L236.549 177.413L249.28 201.102C250.308 203.015 251.918 204.537 253.867 205.439C255.816 206.341 258 206.573 260.09 206.102L328.207 190.751C330.035 192.688 332.397 194.012 334.98 194.546C337.562 195.081 340.244 194.801 342.667 193.745C345.09 192.688 347.141 190.904 348.545 188.63C349.95 186.357 350.642 183.701 350.53 181.017C350.417 178.332 349.506 175.746 347.917 173.603C346.328 171.459 344.137 169.86 341.634 169.017C339.131 168.174 336.436 168.128 333.907 168.884C331.378 169.641 329.135 171.165 327.476 173.253Z" fill="#FFB6B6"/>
<path d="M263.113 179.813L238.112 192.895C237.401 193.267 236.619 193.479 235.82 193.515C235.022 193.552 234.225 193.412 233.483 193.106C232.742 192.8 232.075 192.335 231.526 191.743C230.977 191.15 230.56 190.444 230.303 189.672L221.3 162.626C219.454 158.914 219.125 154.607 220.386 150.648C221.647 146.688 224.394 143.399 228.028 141.5C216.945 147.299 240.026 130.827 248.835 148.322L265.096 171.466C265.562 172.129 265.881 172.886 266.034 173.686C266.186 174.486 266.168 175.31 265.979 176.103C265.791 176.895 265.438 177.636 264.943 178.277C264.448 178.917 263.824 179.441 263.113 179.813Z" fill="#FFD233"/>
<path d="M226.306 107.67C224.496 107.67 222.5 106.781 220.249 104.98C213.625 99.6778 208.891 92.307 206.772 83.9981C204.653 75.6892 205.266 66.9011 208.518 58.9819C210.155 54.9966 213.216 49.5798 218.504 46.4053C222.305 44.1243 226.771 43.3003 230.658 42.707C234.024 42.1929 237.432 41.7835 240.787 41.4921C244.795 41.1426 249.426 40.9067 253.65 42.5423C256.744 43.7413 259.378 45.8586 261.925 47.9063C262.813 48.6193 263.731 49.3579 264.651 50.0411C266.878 51.8128 269.448 53.0851 272.192 53.7746C272.771 53.897 273.317 54.1446 273.794 54.5007C274.271 54.8568 274.667 55.3132 274.956 55.839C275.251 56.3734 275.43 56.9661 275.481 57.5771C275.532 58.1881 275.454 58.8031 275.252 59.3806C274.854 60.5162 274.496 61.5401 275.221 62.6493C275.49 63.0401 275.849 63.3577 276.266 63.5744C276.683 63.7911 277.146 63.9003 277.614 63.8924C277.861 63.8882 278.105 63.9472 278.324 64.0637C278.543 64.1802 278.73 64.3507 278.868 64.5597C279.008 64.7668 279.097 65.0057 279.125 65.2555C279.154 65.5053 279.122 65.7585 279.032 65.9929L278.916 66.2984C279.227 66.3279 279.527 66.4342 279.789 66.6079C280.051 66.7817 280.267 67.0177 280.42 67.2958C280.647 67.6917 280.735 68.1547 280.669 68.6084C280.603 69.062 280.387 69.4791 280.057 69.7907C277.374 72.3938 274.029 74.1783 270.402 74.9416C267.92 75.4379 265.366 75.4319 262.886 74.924L262.487 74.8447L262.536 74.394C252.505 70.7467 243.45 76.9364 238.287 84.0126L237.542 83.5328C237.67 83.2691 237.744 82.9817 237.76 82.6879C237.777 82.3941 237.735 82.0999 237.636 81.8232C237.532 81.4911 237.365 81.1831 237.144 80.9169C236.924 80.6508 236.653 80.4316 236.349 80.272C235.735 80.0135 235.058 79.9463 234.406 80.079C233.754 80.2117 233.155 80.5383 232.685 81.0177C232.206 81.5294 231.836 82.1373 231.6 82.8025C231.365 83.4678 231.267 84.1758 231.314 84.8815C231.45 86.3772 231.824 87.8405 232.421 89.2137C232.664 89.8704 232.915 90.55 233.119 91.2349C234.261 95.1258 233.957 99.3095 232.263 102.986C231.482 104.663 230.069 106.801 227.775 107.464C227.297 107.602 226.802 107.671 226.306 107.67Z" fill="#2F2E41"/>
<path d="M714.947 417H1.05298C0.774255 416.999 0.507227 416.886 0.310424 416.685C0.11362 416.483 0.00309753 416.211 0.00309753 415.927C0.00309753 415.643 0.11362 415.37 0.310424 415.169C0.507227 414.968 0.774255 414.854 1.05298 414.853H714.947C715.226 414.853 715.494 414.966 715.692 415.168C715.889 415.369 716 415.642 716 415.927C716 416.211 715.889 416.484 715.692 416.686C715.494 416.887 715.226 417 714.947 417Z" fill="#CACACA"/>
</g>
<defs>
<clipPath id="clip0_28_1716">
<rect width="716" height="417" fill="white"/>
</clipPath>
</defs>
</svg>
