<svg width="501" height="380" viewBox="0 0 501 380" fill="none" xmlns="http://www.w3.org/2000/svg">
<g clip-path="url(#clip0_28_1485)">
<path d="M300.518 36.6539C306.622 47.165 295.128 64.8755 306.712 68.5531L305.758 67.5992C298.765 59.002 313.38 40.8055 306.388 32.2083C305.301 30.9472 304.369 29.5615 303.61 28.0803" fill="#2F2E41"/>
<path d="M243.354 190.859C243.154 189.807 243.187 188.724 243.451 187.687C243.714 186.649 244.203 185.682 244.881 184.853C245.559 184.024 246.411 183.354 247.376 182.89C248.342 182.426 249.397 182.179 250.468 182.167L265.556 138.35L273.907 148.99L257.955 189.933C257.856 191.733 257.1 193.434 255.831 194.714C254.561 195.994 252.866 196.764 251.066 196.879C249.266 196.993 247.487 196.443 246.066 195.334C244.644 194.224 243.679 192.632 243.354 190.859Z" fill="#FFB8B8"/>
<path d="M309.676 85.0669C309.676 85.0669 310.146 69.2055 295.956 78.2919C281.767 87.3783 250.872 172.495 250.872 172.495L266.246 180.81L301.149 102.918L309.676 85.0669Z" fill="#4976F2"/>
<path d="M267.813 356.921L274.899 359.947L289.95 334.069L279.492 329.602L267.813 356.921Z" fill="#FFB6B6"/>
<path d="M258.828 367.595L263.909 369.765L266.866 365.357L267.139 371.145L280.616 376.901C281.262 377.177 281.979 377.24 282.663 377.079C283.347 376.919 283.962 376.544 284.418 376.01C284.873 375.476 285.146 374.809 285.197 374.109C285.247 373.409 285.072 372.711 284.697 372.117L277.111 360.09L279.184 355.242L267.575 351.082L258.828 367.595Z" fill="#2F2E41"/>
<path d="M378.887 365.698L386.583 365.322L388.795 335.471L377.436 336.025L378.887 365.698Z" fill="#FFB6B6"/>
<path d="M375.476 379.225L380.996 378.955L381.726 373.698L384.504 378.784L399.142 378.069C399.844 378.034 400.516 377.777 401.061 377.334C401.606 376.89 401.995 376.285 402.171 375.605C402.347 374.925 402.301 374.207 402.04 373.555C401.778 372.903 401.316 372.352 400.719 371.981L388.634 364.483L388.377 359.217L376.117 360.551L375.476 379.225Z" fill="#2F2E41"/>
<path d="M152.127 360.942C151.617 360.96 151.114 360.822 150.686 360.545C150.257 360.268 149.924 359.866 149.732 359.394C149.54 358.922 149.497 358.402 149.611 357.904C149.724 357.407 149.987 356.957 150.365 356.614C150.43 356.366 150.477 356.187 150.542 355.938C150.066 354.695 149.23 353.623 148.14 352.858C147.05 352.093 145.757 351.671 144.426 351.646C143.095 351.621 141.787 351.994 140.669 352.717C139.551 353.439 138.674 354.48 138.152 355.704C135.138 362.574 131.254 369.679 133.079 377.296C120.797 350.62 125.374 317.628 144.116 295.094C149.264 292.323 153.462 287.353 154.598 281.546C152.055 282.381 148.915 280.29 150.846 277.64C151.682 276.628 152.525 275.624 153.361 274.612C143.832 264.272 132.208 280.269 142.673 294.202C139.165 298.513 136.118 303.179 133.581 308.124C134.206 302.854 133.57 297.511 131.727 292.534C129.854 287.894 126.299 283.968 123.174 279.943C119.374 275.038 111.437 277.208 110.861 283.381C114.399 284.581 114.811 289.71 110.744 290.373C111.698 301.876 119.109 312.508 129.406 317.647C125.483 328.325 123.883 339.716 124.711 351.061C123.011 337.795 108.815 334.445 98.9205 329.085C98.2914 328.673 97.5561 328.453 96.8042 328.452C96.0523 328.451 95.3163 328.668 94.686 329.078C94.0557 329.488 93.5583 330.072 93.2546 330.76C92.9509 331.448 92.8539 332.209 92.9755 332.95C94.3427 333.521 95.6498 334.226 96.8775 335.056C97.4527 335.45 97.8918 336.013 98.1345 336.667C98.3772 337.321 98.4116 338.034 98.2331 338.708C98.0546 339.382 97.6719 339.984 97.1375 340.432C96.603 340.881 95.9429 341.153 95.2477 341.211C100.142 353.66 113.022 362.11 126.333 362.19C127.559 367.758 129.361 373.184 131.709 378.38L151.464 378.568C151.537 378.349 151.603 378.123 151.669 377.904C149.839 378.002 148.004 377.875 146.205 377.527C151.098 371.847 154.866 368.961 152.127 360.942Z" fill="#F2F2F2"/>
<path d="M359.445 171.65C359.445 171.65 375.096 214.284 375.349 219.055C375.602 223.826 380.065 284.159 383.808 287.664C387.552 291.17 398.996 345.518 390.091 349.769C381.186 354.02 353.092 346.978 353.092 346.978L343.319 282.779L339.999 233.595C339.999 233.595 329.891 349.415 311.559 349.074C293.227 348.734 270.888 341.756 270.888 341.756L296.547 271.614C296.547 271.614 296.184 188.576 302.131 171.828C308.079 155.08 359.445 171.65 359.445 171.65Z" fill="#2F2E41"/>
<path d="M313.005 61.8086L333.965 63.7276L337.341 74.0885C337.341 74.0885 354.882 83.7176 350.998 88.0921C347.114 92.4667 351.866 121.947 351.866 121.947L350.793 145.877C350.793 145.877 351.946 162.456 355.396 166.276C358.847 170.096 367.875 179.463 361.496 174.981C339.13 159.269 300.037 172.527 300.037 172.527L305.622 138.334C305.622 138.334 292.937 82.3529 297.943 77.625C302.949 72.8972 307.672 72.2996 307.672 72.2996L313.005 61.8086Z" fill="#4976F2"/>
<path d="M423.139 170.266C422.086 170.07 421.089 169.646 420.218 169.023C419.346 168.4 418.622 167.594 418.097 166.661C417.571 165.728 417.256 164.691 417.175 163.624C417.093 162.556 417.247 161.483 417.625 160.482L382.274 130.502L395.227 126.594L427.584 156.333C429.226 157.079 430.536 158.402 431.268 160.049C431.999 161.697 432.101 163.556 431.553 165.273C431.005 166.99 429.846 168.447 428.295 169.368C426.744 170.288 424.91 170.608 423.139 170.266Z" fill="#FFB8B8"/>
<path d="M333.36 91.8497C333.36 91.8497 326.395 77.5903 343.07 80.0261C359.744 82.4619 422.977 147.296 422.977 147.296L412.395 161.204L348.488 104.604L333.36 91.8497Z" fill="#6C63FF"/>
<path d="M360.514 67.6618L426.625 152.324C427.769 153.793 428.283 155.656 428.056 157.504C427.828 159.352 426.876 161.034 425.41 162.182C410.057 199.444 364.126 227.075 310.095 252.156C308.625 253.3 306.762 253.815 304.913 253.587C303.064 253.359 301.381 252.407 300.233 250.941L234.122 166.278C232.977 164.81 232.462 162.947 232.69 161.098C232.918 159.25 233.87 157.568 235.338 156.421C280.68 130.828 319.652 101.177 350.653 66.447C352.123 65.3038 353.986 64.7897 355.835 65.0174C357.683 65.2452 359.366 66.1961 360.514 67.6618Z" fill="#E6E6E6"/>
<path d="M238.762 164.353L258.886 190.123C271.178 205.77 289.166 215.919 308.92 218.353C328.674 220.786 348.588 215.306 364.314 203.111L420.709 159.109C421.544 158.456 422.087 157.5 422.218 156.448C422.348 155.397 422.056 154.337 421.406 153.5L357.523 71.6908C356.869 70.8569 355.91 70.3164 354.858 70.1878C353.806 70.0592 352.746 70.353 351.91 71.0048C323.383 107.828 285.196 136.483 239.453 158.749C238.619 159.401 238.078 160.357 237.948 161.408C237.819 162.459 238.112 163.518 238.762 164.353Z" fill="white"/>
<path d="M361.833 113.88L374.939 130.663C375.287 131.108 375.797 131.396 376.357 131.465C376.917 131.533 377.482 131.377 377.927 131.03C378.372 130.683 378.661 130.173 378.73 129.613C378.8 129.053 378.644 128.488 378.297 128.043L365.191 111.26C365.019 111.039 364.805 110.855 364.562 110.717C364.319 110.579 364.05 110.49 363.773 110.456C363.495 110.421 363.213 110.442 362.943 110.517C362.674 110.591 362.421 110.718 362.201 110.89C361.98 111.062 361.795 111.276 361.658 111.52C361.52 111.763 361.431 112.031 361.397 112.309C361.363 112.587 361.384 112.868 361.459 113.138C361.534 113.407 361.661 113.66 361.833 113.88Z" fill="#4976F2"/>
<path d="M337.251 101.43L366.032 138.287C366.204 138.507 366.418 138.692 366.661 138.83C366.905 138.967 367.173 139.056 367.45 139.09C367.728 139.124 368.01 139.104 368.279 139.029C368.549 138.954 368.801 138.827 369.022 138.655C369.242 138.483 369.426 138.27 369.564 138.026C369.702 137.783 369.791 137.515 369.825 137.237C369.859 136.96 369.838 136.678 369.764 136.409C369.689 136.14 369.562 135.887 369.39 135.667L340.609 98.8101C340.437 98.5892 340.223 98.4043 339.98 98.2661C339.736 98.1279 339.468 98.039 339.19 98.0045C338.912 97.97 338.63 97.9907 338.36 98.0652C338.091 98.1398 337.838 98.2668 337.617 98.439C337.397 98.6113 337.212 98.8253 337.074 99.0689C336.936 99.3125 336.848 99.5809 336.814 99.8587C336.78 100.137 336.801 100.418 336.876 100.688C336.951 100.958 337.078 101.21 337.251 101.43Z" fill="#CCCCCC"/>
<path d="M386.338 162.907C378.59 162.907 372.309 156.629 372.309 148.884C372.309 141.14 378.59 134.861 386.338 134.861C394.086 134.861 400.367 141.14 400.367 148.884C400.367 156.629 394.086 162.907 386.338 162.907Z" fill="#FFD233"/>
<path d="M335.723 130.56L371.072 175.828C371.441 176.203 371.935 176.43 372.46 176.465C372.986 176.499 373.505 176.34 373.92 176.016C374.335 175.692 374.617 175.227 374.711 174.709C374.805 174.191 374.705 173.657 374.43 173.208L339.081 127.94C338.712 127.565 338.218 127.338 337.693 127.303C337.167 127.269 336.648 127.429 336.233 127.752C335.818 128.076 335.536 128.541 335.442 129.059C335.348 129.577 335.448 130.111 335.723 130.56Z" fill="#CCCCCC"/>
<path d="M312.791 120.224L362.129 183.407C362.498 183.783 362.993 184.009 363.518 184.044C364.043 184.078 364.563 183.919 364.978 183.595C365.393 183.271 365.674 182.806 365.768 182.288C365.862 181.77 365.762 181.236 365.487 180.787L316.149 117.604C315.78 117.229 315.286 117.002 314.761 116.968C314.236 116.933 313.716 117.093 313.301 117.417C312.886 117.74 312.604 118.206 312.51 118.723C312.417 119.241 312.517 119.776 312.791 120.224Z" fill="#CCCCCC"/>
<path d="M312.963 148.318L348.312 193.586C348.68 193.961 349.175 194.188 349.7 194.222C350.225 194.257 350.745 194.097 351.16 193.773C351.575 193.45 351.856 192.984 351.95 192.467C352.044 191.949 351.944 191.414 351.67 190.966L316.321 145.698C315.952 145.322 315.458 145.096 314.932 145.061C314.407 145.026 313.887 145.186 313.472 145.51C313.057 145.834 312.776 146.299 312.682 146.817C312.588 147.335 312.688 147.869 312.963 148.318Z" fill="#CCCCCC"/>
<path d="M266.19 153.9L301.539 199.168C301.908 199.543 302.402 199.77 302.928 199.805C303.453 199.839 303.973 199.679 304.388 199.356C304.803 199.032 305.084 198.567 305.178 198.049C305.272 197.531 305.172 196.997 304.897 196.548L269.548 151.28C269.18 150.905 268.685 150.678 268.16 150.643C267.635 150.609 267.115 150.769 266.7 151.092C266.285 151.416 266.004 151.881 265.91 152.399C265.816 152.917 265.916 153.451 266.19 153.9Z" fill="#4976F2"/>
<path d="M290.032 137.982L339.37 201.165C339.739 201.54 340.233 201.767 340.758 201.802C341.284 201.836 341.803 201.676 342.218 201.353C342.633 201.029 342.915 200.564 343.009 200.046C343.103 199.528 343.003 198.994 342.728 198.545L293.39 135.362C293.021 134.987 292.526 134.76 292.001 134.725C291.476 134.691 290.956 134.851 290.541 135.174C290.126 135.498 289.845 135.963 289.751 136.481C289.657 136.999 289.757 137.533 290.032 137.982Z" fill="#CCCCCC"/>
<path d="M348.145 35.0606C348.146 38.4671 347.31 41.8218 345.712 44.8302C344.113 47.8386 341.8 50.4088 338.976 52.3151C336.152 54.2215 332.903 55.4056 329.514 55.7637C326.125 56.1218 322.7 55.6428 319.539 54.3688C316.379 53.0948 313.579 51.0648 311.387 48.4569C309.194 45.849 307.676 42.743 306.965 39.4115C306.254 36.0801 306.371 32.6251 307.308 29.3498C308.244 26.0744 309.971 23.079 312.336 20.6263L312.436 20.5265C312.602 20.3517 312.769 20.1769 312.944 20.0103C312.945 20.0104 312.946 20.0102 312.947 20.0098C312.948 20.0093 312.949 20.0087 312.95 20.008C312.95 20.0072 312.951 20.0062 312.951 20.0052C312.952 20.0042 312.952 20.0031 312.952 20.002C313.168 19.8022 313.385 19.6025 313.61 19.411C316.618 16.7746 320.323 15.0608 324.281 14.4747C328.238 13.8886 332.281 14.455 335.925 16.1063C339.569 17.7575 342.659 20.4235 344.826 23.7851C346.994 27.1467 348.146 31.0615 348.145 35.0606Z" fill="#2F2E41"/>
<path d="M322.197 57.325C312.555 57.325 304.739 49.5121 304.739 39.8744C304.739 30.2367 312.555 22.4238 322.197 22.4238C331.838 22.4238 339.654 30.2367 339.654 39.8744C339.654 49.5121 331.838 57.325 322.197 57.325Z" fill="#FFB8B8"/>
<path d="M340.807 44.5256C342.514 36.8388 340.047 28.2269 334.67 23.0952C331.965 20.5652 328.601 18.8493 324.964 18.1447C321.328 17.4401 317.566 17.7755 314.112 19.1121C313.673 19.2893 313.234 19.4832 312.803 19.6856L312.603 19.78V19.8093C312.564 19.8362 312.525 19.8645 312.486 19.8931C312.405 19.9693 312.306 20.024 312.198 20.0522C310.682 20.0126 309.175 20.2935 307.775 20.8767C306.375 21.4599 305.115 22.3322 304.076 23.4363C301.37 26.371 300.096 31.1136 300.487 36.7904L300.499 36.9679L300.65 37.0623C302.699 38.3599 304.825 39.5314 307.016 40.5704C314.68 44.1725 321.676 44.84 328.401 42.6083L328.524 42.5674L331.347 37.8391C331.926 41.1002 331.617 51.9172 334.942 52.5032L340.735 44.8516L340.807 44.5256Z" fill="#2F2E41"/>
<path d="M377.557 59.72C371.616 56.6549 379.257 45.5304 377.721 39.0263C376.186 32.5222 365.13 30.4302 364.426 23.7846C363.721 17.1391 362.064 10.2849 357.677 5.24216C354.874 2.01987 350.743 -0.358932 346.49 0.0446796C345.051 0.181236 343.659 0.62619 342.407 1.34924C341.156 2.07228 340.075 3.05644 339.239 4.23467C338.402 5.41289 337.829 6.7575 337.559 8.17693C337.29 9.59636 337.329 11.0573 337.675 12.4601C336.464 10.7451 333.33 11.1168 332.555 13.0676C331.865 14.8018 333.388 16.9025 335.181 17.056C337.527 19.9519 340.213 23.0252 343.889 23.6094C344.474 23.7438 345.083 23.7434 345.668 23.6084C346.253 23.4733 346.801 23.207 347.268 22.8297C348.133 21.9997 348.2 20.3403 347.174 19.7201C351.793 21.554 354.501 26.5457 355.186 31.466C355.871 36.3862 354.923 41.3645 354.298 46.2928C353.674 51.2211 353.404 56.4055 355.338 60.982C357.622 66.3892 362.88 70.2647 368.619 71.5075C374.358 72.7504 380.469 71.5357 385.664 68.799C390.859 66.0621 395.19 61.8841 398.729 57.2001C392.633 61.5267 384.2 63.1475 377.557 59.72Z" fill="#2F2E41"/>
<path d="M330.536 38.7474C336.64 49.2585 325.146 66.969 336.73 70.6466L335.776 69.6927C328.783 61.0955 343.398 42.899 336.406 34.3018C335.319 33.0407 334.387 31.655 333.628 30.1738" fill="#2F2E41"/>
<path d="M339.992 44.3666C339.992 44.3666 334.821 25.071 312.653 20.6175C312.628 20.6093 312.544 20.5759 312.436 20.526C312.369 20.4844 312.286 20.4427 312.203 20.4011C312.453 20.2596 312.694 20.1348 312.944 20.0098L312.947 20.0092L312.95 20.0074L312.952 20.0047L312.952 20.0015C313.169 19.8017 313.385 19.6019 313.61 19.4105L314.243 19.4355C314.243 19.4355 336.486 15.9144 339.992 44.3666Z" fill="#FFD233"/>
<path d="M501 379.17C501 379.279 500.979 379.388 500.937 379.488C500.896 379.589 500.835 379.681 500.757 379.758C500.68 379.835 500.588 379.896 500.488 379.938C500.387 379.98 500.278 380.001 500.169 380.001H0.830688C0.610352 380.001 0.399078 379.913 0.243286 379.757C0.0874939 379.602 -6.10352e-05 379.39 -6.10352e-05 379.17C-6.10352e-05 378.95 0.0874939 378.739 0.243286 378.583C0.399078 378.427 0.610352 378.34 0.830688 378.34H500.169C500.278 378.34 500.387 378.361 500.488 378.402C500.588 378.444 500.68 378.505 500.757 378.582C500.835 378.66 500.896 378.751 500.937 378.852C500.979 378.953 501 379.061 501 379.17Z" fill="#CCCCCC"/>
</g>
<defs>
<clipPath id="clip0_28_1485">
<rect width="501" height="380" fill="white" transform="matrix(-1 0 0 1 501 0)"/>
</clipPath>
</defs>
</svg>
