<svg width="20" height="16" viewBox="0 0 20 16" fill="none" xmlns="http://www.w3.org/2000/svg">
<path d="M20 2.26376C19.2698 2.57194 18.4953 2.77423 17.7022 2.8639C18.5283 2.39221 19.1626 1.64527 19.4612 0.755295C18.6759 1.19925 17.8168 1.51205 16.9208 1.68017C16.191 0.939472 15.1514 0.476563 14.0006 0.476563C11.7912 0.476563 9.99985 2.18307 9.99985 4.28782C9.99985 4.58658 10.0353 4.87743 10.1034 5.15646C6.77854 4.99746 3.83069 3.48014 1.85746 1.17423C1.51316 1.73714 1.31588 2.39192 1.31588 3.09031C1.31588 4.41264 2.02222 5.57916 3.09563 6.26268C2.46032 6.24372 1.83899 6.08025 1.2835 5.78591C1.28328 5.80187 1.28328 5.81784 1.28328 5.83388C1.28328 7.68051 2.66229 9.22098 4.4924 9.57111C3.90327 9.72375 3.28532 9.74609 2.68575 9.63643C3.19481 11.1506 4.67231 12.2525 6.4229 12.2833C5.05371 13.3055 3.32864 13.9149 1.45436 13.9149C1.13139 13.9149 0.81299 13.8968 0.5 13.8616C2.27046 14.943 4.37334 15.574 6.6326 15.574C13.9913 15.574 18.0153 9.76632 18.0153 4.72983C18.0153 4.56452 18.0115 4.40016 18.0037 4.23673C18.7869 3.69733 19.4629 3.02922 20 2.26376Z" fill="white"/>
</svg>
