<svg width="19" height="17" viewBox="0 0 19 17" fill="none" xmlns="http://www.w3.org/2000/svg">
<path d="M4.84947 16.5825V5.61868H1.13331V16.5825H4.84947ZM2.99187 4.12085C4.28777 4.12085 5.09439 3.27895 5.09439 2.22686C5.07025 1.15105 4.28781 0.33252 3.01647 0.33252C1.74532 0.33252 0.914062 1.15106 0.914062 2.22686C0.914062 3.279 1.72049 4.12085 2.96762 4.12085H2.99176H2.99187ZM6.90636 16.5825H10.6225V10.4598C10.6225 10.1321 10.6467 9.80476 10.7448 9.57052C11.0134 8.91582 11.6249 8.23774 12.6515 8.23774C13.9962 8.23774 14.5342 9.24316 14.5342 10.717V16.5825H18.2501V10.2959C18.2501 6.92822 16.4167 5.36128 13.9717 5.36128C11.967 5.36128 11.0868 6.46014 10.5978 7.20856H10.6226V5.61845H6.90644C6.95521 6.64724 6.90644 16.5823 6.90644 16.5823L6.90636 16.5825Z" fill="white"/>
</svg>
