<svg width="18" height="18" viewBox="0 0 18 18" fill="none" xmlns="http://www.w3.org/2000/svg">
<path d="M8.83359 4.61994C6.37288 4.61994 4.38806 6.57375 4.38806 8.99602C4.38806 11.4183 6.37288 13.3721 8.83359 13.3721C11.2943 13.3721 13.2791 11.4183 13.2791 8.99602C13.2791 6.57375 11.2943 4.61994 8.83359 4.61994ZM8.83359 11.841C7.24341 11.841 5.94341 10.5652 5.94341 8.99602C5.94341 7.42688 7.23954 6.151 8.83359 6.151C10.4276 6.151 11.7238 7.42688 11.7238 8.99602C11.7238 10.5652 10.4238 11.841 8.83359 11.841ZM14.4979 4.44094C14.4979 5.00842 14.0336 5.46164 13.461 5.46164C12.8845 5.46164 12.4241 5.00461 12.4241 4.44094C12.4241 3.87727 12.8883 3.42024 13.461 3.42024C14.0336 3.42024 14.4979 3.87727 14.4979 4.44094ZM17.4422 5.47688C17.3764 4.10959 17.0592 2.89846 16.0416 1.90061C15.0279 0.902758 13.7976 0.590454 12.4086 0.521899C10.977 0.441919 6.68627 0.441919 5.25472 0.521899C3.8696 0.586645 2.63925 0.89895 1.62169 1.8968C0.604129 2.89465 0.290737 4.10578 0.221094 5.47307C0.139844 6.88225 0.139844 11.106 0.221094 12.5152C0.286867 13.8824 0.604129 15.0936 1.62169 16.0914C2.63925 17.0893 3.86573 17.4016 5.25472 17.4701C6.68627 17.5501 10.977 17.5501 12.4086 17.4701C13.7976 17.4054 15.0279 17.0931 16.0416 16.0914C17.0553 15.0936 17.3726 13.8824 17.4422 12.5152C17.5235 11.106 17.5235 6.88606 17.4422 5.47688ZM15.5928 14.0272C15.291 14.7736 14.7068 15.3487 13.9446 15.6496C12.8032 16.0952 10.0949 15.9924 8.83359 15.9924C7.57228 15.9924 4.86008 16.0914 3.72258 15.6496C2.96425 15.3526 2.38002 14.7775 2.07437 14.0272C1.62169 12.9036 1.72615 10.2376 1.72615 8.99602C1.72615 7.75442 1.62556 5.08459 2.07437 3.96487C2.37615 3.21838 2.96038 2.64328 3.72258 2.34241C4.86395 1.8968 7.57228 1.99963 8.83359 1.99963C10.0949 1.99963 12.8071 1.90061 13.9446 2.34241C14.7029 2.63948 15.2872 3.21457 15.5928 3.96487C16.0455 5.0884 15.941 7.75442 15.941 8.99602C15.941 10.2376 16.0455 12.9074 15.5928 14.0272Z" fill="white"/>
</svg>
