<svg width="48" height="49" viewBox="0 0 48 49" fill="none" xmlns="http://www.w3.org/2000/svg">
<path d="M37.2937 12.7197C37.2735 12.9222 37.2615 13.1532 37.2562 13.4037L34.3807 14.777C33.978 14.711 31.9807 14.8272 29.0017 13.3572C28.2465 12.9845 27.5085 12.7865 26.7998 12.7865C26.1584 12.7874 25.5263 12.9403 24.9555 13.2327C24.2032 13.07 23.1195 12.653 22.4858 12.6545C21.0518 12.662 17.7915 13.8298 16.8885 13.9295C16.005 14.0262 15.0953 14.2692 14.1795 14.6562C12.5153 14.1718 10.4288 13.3805 9.31125 12.9432L1.5 7.25V25.5575L7.2405 28.289C7.32375 28.1915 7.419 28.0415 7.5225 27.8555L7.70025 27.938C7.78725 28.163 7.88325 28.3872 7.98825 28.61C7.35825 29.6705 7.28325 30.8653 7.7865 31.904C8.21775 32.7928 9.021 33.4168 9.91575 33.5915C9.9645 34.145 10.1505 34.6805 10.464 35.1448C11.0265 35.975 11.9205 36.4707 12.8573 36.4707C12.942 36.4707 13.0268 36.467 13.1108 36.4573C13.2443 36.818 13.44 37.154 13.6943 37.445C14.2598 38.0952 15.0518 38.468 15.8663 38.468C15.9263 38.468 15.9847 38.4665 16.044 38.462C16.1475 38.855 16.3238 39.227 16.5697 39.5585C17.136 40.3235 18.0098 40.7788 18.9083 40.7788C19.4662 40.7788 19.9995 40.6077 20.4697 40.2875C21.3787 40.871 22.1693 41.2812 22.8705 41.5332C23.2222 41.6765 23.5882 41.75 23.9618 41.75C24.8452 41.75 25.7025 41.3375 26.3145 40.616C26.5417 40.3475 26.7262 40.0475 26.8612 39.7265C27.1256 39.8065 27.4003 39.8474 27.6765 39.848C28.6155 39.848 29.5057 39.3882 30.1215 38.5842C30.414 38.2032 30.6258 37.7666 30.744 37.301C30.8085 37.3055 30.8723 37.3078 30.936 37.3078C32.0213 37.3078 33.06 36.671 33.6442 35.6458C33.9506 35.1125 34.1131 34.5087 34.116 33.8938C35.1885 33.734 36.1328 32.9713 36.5925 31.859C37.0455 30.7633 36.9225 29.5543 36.2903 28.5462L39.2115 26.9C39.2865 27.1565 39.36 27.3927 39.4313 27.5847L46.5 23.8235V8.4815L37.2937 12.7197ZM37.293 14.9975C37.3395 15.809 37.4242 16.7263 37.5337 17.684C36.9338 16.676 36.1763 16.2162 35.2357 15.9875L37.293 14.9975ZM33.372 32.8145C31.761 32.2602 28.4077 28.3182 28.4077 28.3182H28.4738C28.815 28.2943 29.5522 27.935 30.3795 28.1067C29.0805 26.9907 27.6517 27.935 26.679 27.3567C26.9047 28.0805 27.99 28.3085 28.2683 28.3175L31.4812 32.054C32.9362 33.7452 31.923 35.8378 30.4642 36.1707C29.4855 35.6945 26.7218 32.4072 26.7218 32.4072C26.8163 32.39 27.3765 32.2145 27.9473 32.2895C26.6295 31.304 25.1355 32.159 24.249 31.5403C24.7515 32.7815 26.4067 32.4635 26.58 32.4335L28.299 34.628C29.6745 36.383 28.5937 38.4102 27.1327 38.6847C25.8375 38.2295 24.9967 36.6095 24.9967 36.6095C25.1272 36.5885 25.5637 36.3943 26.1847 36.4842C25.08 35.516 23.7938 36.3943 23.0205 35.843C23.4983 36.884 24.6892 36.647 24.756 36.6395C25.947 38.5153 24.7118 40.4713 23.2358 40.5298H23.2342L23.2327 40.5305C22.3462 40.3768 21.4177 39.668 20.3693 38.9405C20.7292 38.5415 21.0472 37.8402 21.0472 37.8402C22.1003 35.9337 20.7337 34.2477 19.323 34.3925C20.4675 34.7052 21.3255 36.1662 20.4323 37.7885L20.04 38.4485C19.614 39.2248 18.9488 39.6935 18.4598 39.6357C17.7068 39.5443 16.6455 38.4448 17.0917 36.8938C17.2642 36.7363 18.9277 34.1915 18.9277 34.1915C20.0715 32.3495 18.7875 30.5863 17.373 30.6462C18.4995 31.0265 19.2892 32.537 18.318 34.1045L16.9657 36.2127C16.5045 36.9583 15.9075 37.3805 15.3383 37.3025C14.4548 37.1825 13.8352 36.1048 13.977 34.9925C13.9695 34.9993 14.9505 33.902 14.9505 33.902C16.254 32.1987 15.138 30.2968 13.7257 30.197C14.811 30.7025 15.4575 32.2955 14.3497 33.7453L13.8713 34.3318C13.3463 35.0203 12.714 35.3705 12.1605 35.2325C11.1945 34.9903 10.692 33.1827 11.1488 32.69C11.508 32.3022 12.5167 31.0745 12.5167 31.0745C13.8195 29.3705 12.705 27.4693 11.2913 27.368C12.3773 27.875 13.0237 29.468 11.916 30.9185L11.4375 31.5035C10.9095 32.198 10.275 32.5468 9.71775 32.405C8.55675 32.111 7.977 30.3185 9.08775 28.8635C9.08775 28.8635 8.7105 27.665 8.54025 27.1527L7.98075 26.8933C9.2925 23.837 11.274 17.0915 11.3655 14.8505C12.3315 15.1948 14.8815 15.9283 15.1522 15.9298L15.1508 15.9313C17.8958 15.0688 20.7728 15.164 22.0853 14.657C22.5105 14.495 23.3565 14.4845 24.2535 14.9975C23.6933 15.4887 23.1637 16.0738 22.614 16.619C21.3 17.9233 16.4145 19.9572 17.3565 22.0963C18.1695 23.942 20.4593 25.8305 24.3 22.8657L26.46 22.5687L29.8192 24.2262L34.1243 28.6475C35.6595 30.221 34.7902 32.357 33.372 32.8145ZM34.452 27.9432C33.9585 27.0208 32.4202 25.508 30.9683 24.2712L30.9592 24.2623C31.629 24.2893 32.3317 23.2107 33.24 23.1275C32.6055 22.643 31.554 23.2025 31.2262 23.291C29.4195 23.777 26.6115 21.5037 26.6115 21.5037L23.925 21.8907C23.925 21.8907 20.73 25.79 18.0382 22.5778C16.5765 20.8333 21.8738 18.5547 23.1788 17.258C24.8505 15.5968 26.34 13.5642 29.0902 14.9487C31.3747 16.1007 32.2747 16.0295 35.3392 16.5627C36.2528 16.7225 36.8857 17.141 37.5645 17.9578C37.884 20.6458 38.4007 23.627 38.8965 25.7015C38.6408 25.9167 36.4485 27.3913 34.452 27.9432Z" fill="#2F4590"/>
</svg>
