<svg width="44" height="45" viewBox="0 0 44 45" fill="none" xmlns="http://www.w3.org/2000/svg">
<path d="M38.1324 13.5833C38.147 13.0594 38.0545 12.538 37.8604 12.0511C37.6663 11.5642 37.3748 11.1221 37.0038 10.7519L29.3478 3.09589C28.6154 2.37647 27.631 1.9715 26.6044 1.96729H8.79979C7.18719 1.96729 5.86719 3.27189 5.86719 4.89989V40.0999C5.86719 41.7125 7.18719 43.0325 8.79979 43.0325H35.1998C36.8124 43.0325 38.1324 41.7125 38.1324 40.0999V13.5833ZM27.1324 7.11528L32.9844 12.9673H27.1324V7.11528ZM33.7324 38.6325H10.2672V6.36729H22.7324V13.4953C22.7324 15.6205 24.4638 17.3673 26.6044 17.3673H33.7324V38.6325Z" fill="#2F4590"/>
<path d="M17.6037 15.4601C17.9178 15.4697 18.2307 15.4161 18.5238 15.3025C18.8169 15.1889 19.0842 15.0177 19.3098 14.7988C19.5354 14.58 19.7148 14.3181 19.8373 14.0286C19.9598 13.7392 20.0229 13.4281 20.0229 13.1138C20.0229 12.7994 19.9598 12.4883 19.8373 12.1989C19.7148 11.9094 19.5354 11.6475 19.3098 11.4287C19.0842 11.2099 18.8169 11.0386 18.5238 10.925C18.2307 10.8114 17.9178 10.7578 17.6037 10.7675C16.9938 10.7861 16.4152 11.0415 15.9905 11.4795C15.5657 11.9175 15.3281 12.5036 15.3281 13.1138C15.3281 13.7239 15.5657 14.31 15.9905 14.748C16.4152 15.186 16.9938 15.4414 17.6037 15.4601Z" fill="#2F4590"/>
<path fill-rule="evenodd" clip-rule="evenodd" d="M22.2934 20.5437C22.2934 18.0489 20.1946 16.2427 17.6008 16.2427C15.0092 16.2427 12.9082 18.0467 12.9082 20.5437V21.7163C12.9082 21.924 12.9907 22.1232 13.1376 22.2701C13.2845 22.417 13.4837 22.4995 13.6914 22.4995H21.5124C21.7197 22.4989 21.9184 22.4161 22.0648 22.2693C22.2112 22.1225 22.2934 21.9236 22.2934 21.7163V20.5437ZM13.5682 27.9995C13.5682 27.7077 13.6841 27.4279 13.8904 27.2217C14.0967 27.0154 14.3765 26.8995 14.6682 26.8995H29.3334C29.6251 26.8995 29.9049 27.0154 30.1112 27.2217C30.3175 27.4279 30.4334 27.7077 30.4334 27.9995C30.4334 28.2912 30.3175 28.571 30.1112 28.7773C29.9049 28.9836 29.6251 29.0995 29.3334 29.0995H14.6682C14.3765 29.0995 14.0967 28.9836 13.8904 28.7773C13.6841 28.571 13.5682 28.2912 13.5682 27.9995ZM13.5682 33.1321C13.5682 32.8403 13.6841 32.5605 13.8904 32.3543C14.0967 32.148 14.3765 32.0321 14.6682 32.0321H29.3334C29.6251 32.0321 29.9049 32.148 30.1112 32.3543C30.3175 32.5605 30.4334 32.8403 30.4334 33.1321C30.4334 33.4238 30.3175 33.7036 30.1112 33.9099C29.9049 34.1162 29.6251 34.2321 29.3334 34.2321H14.6682C14.3765 34.2321 14.0967 34.1162 13.8904 33.9099C13.6841 33.7036 13.5682 33.4238 13.5682 33.1321Z" fill="#2F4590"/>
</svg>
