<svg width="54" height="54" viewBox="0 0 54 54" fill="none" xmlns="http://www.w3.org/2000/svg">
<path d="M21.6425 1.21925C25.0728 -0.201666 28.9272 -0.201663 32.3576 1.21925L41.4414 4.98191C44.8718 6.40283 47.5973 9.12826 49.0182 12.5587L52.7808 21.6425C54.2018 25.0729 54.2018 28.9273 52.7808 32.3576L49.0182 41.4415C47.5973 44.8719 44.8718 47.5973 41.4414 49.0182L32.3576 52.7809C28.9272 54.2018 25.0728 54.2018 21.6424 52.7809L12.5586 49.0182C9.12819 47.5973 6.40276 44.8719 4.98185 41.4415L1.21919 32.3576C-0.201727 28.9272 -0.201724 25.0729 1.21919 21.6425L4.98185 12.5586C6.40276 9.12825 9.1282 6.40282 12.5586 4.98191L21.6425 1.21925Z" fill="#FF6B00"/>
<path d="M16 36.25C15.4477 36.25 15 36.6977 15 37.25C15 37.8023 15.4477 38.25 16 38.25V36.25ZM33.5 38.25C34.0523 38.25 34.5 37.8023 34.5 37.25C34.5 36.6977 34.0523 36.25 33.5 36.25V38.25ZM33.5 23.5V22.5C32.9477 22.5 32.5 22.9477 32.5 23.5H33.5ZM33.5 29.75H32.5C32.5 30.3023 32.9477 30.75 33.5 30.75V29.75ZM30.6444 16.4472C30.8914 15.9532 30.6912 15.3526 30.1972 15.1056C29.7032 14.8586 29.1026 15.0588 28.8556 15.5528L30.6444 16.4472ZM27.6056 18.0528C27.3586 18.5468 27.5588 19.1474 28.0528 19.3944C28.5468 19.6414 29.1474 19.4412 29.3944 18.9472L27.6056 18.0528ZM26.8944 16.4472C27.1414 15.9532 26.9412 15.3526 26.4472 15.1056C25.9532 14.8586 25.3526 15.0588 25.1056 15.5528L26.8944 16.4472ZM23.8556 18.0528C23.6086 18.5468 23.8088 19.1474 24.3028 19.3944C24.7968 19.6414 25.3974 19.4412 25.6444 18.9472L23.8556 18.0528ZM23.1444 16.4472C23.3914 15.9532 23.1912 15.3526 22.6972 15.1056C22.2032 14.8586 21.6026 15.0588 21.3556 15.5528L23.1444 16.4472ZM20.1056 18.0528C19.8586 18.5468 20.0588 19.1474 20.5528 19.3944C21.0468 19.6414 21.6474 19.4412 21.8944 18.9472L20.1056 18.0528ZM16 38.25H33.5V36.25H16V38.25ZM33.5 24.5H35.375V22.5H33.5V24.5ZM35.375 28.75H33.5V30.75H35.375V28.75ZM34.5 29.75V23.5H32.5V29.75H34.5ZM37.5 26.625C37.5 27.7986 36.5486 28.75 35.375 28.75V30.75C37.6532 30.75 39.5 28.9032 39.5 26.625H37.5ZM35.375 24.5C36.5486 24.5 37.5 25.4514 37.5 26.625H39.5C39.5 24.3468 37.6532 22.5 35.375 22.5V24.5ZM32.5 23.4039V28.5H34.5V23.4039H32.5ZM17 28.5V23.4039H15V28.5H17ZM17.1536 23.25H32.3459V21.25H17.1536V23.25ZM17 23.4039C17 23.3186 17.0689 23.25 17.1536 23.25V21.25C15.9637 21.25 15 22.2147 15 23.4039H17ZM24.75 36.25C20.4698 36.25 17 32.7802 17 28.5H15C15 33.8848 19.3652 38.25 24.75 38.25V36.25ZM32.5 28.5C32.5 32.7802 29.0302 36.25 24.75 36.25V38.25C30.1348 38.25 34.5 33.8848 34.5 28.5H32.5ZM34.5 23.4039C34.5 22.214 33.5351 21.25 32.3459 21.25V23.25C32.4311 23.25 32.5 23.3192 32.5 23.4039H34.5ZM28.8556 15.5528L27.6056 18.0528L29.3944 18.9472L30.6444 16.4472L28.8556 15.5528ZM25.1056 15.5528L23.8556 18.0528L25.6444 18.9472L26.8944 16.4472L25.1056 15.5528ZM21.3556 15.5528L20.1056 18.0528L21.8944 18.9472L23.1444 16.4472L21.3556 15.5528Z" fill="white"/>
</svg>
