<svg width="56" height="56" viewBox="0 0 56 56" fill="none" xmlns="http://www.w3.org/2000/svg">
<path d="M22.6424 2.21917C26.0728 0.79826 29.9272 0.798262 33.3576 2.21918L42.4414 5.98184C45.8718 7.40275 48.5973 10.1282 50.0182 13.5586L53.7808 22.6424C55.2017 26.0728 55.2017 29.9272 53.7808 33.3576L50.0182 42.4414C48.5972 45.8718 45.8718 48.5973 42.4414 50.0182L33.3576 53.7808C29.9272 55.2017 26.0728 55.2017 22.6424 53.7808L13.5586 50.0182C10.1282 48.5972 7.40275 45.8718 5.98183 42.4414L2.21917 33.3576C0.798259 29.9272 0.798262 26.0728 2.21918 22.6424L5.98183 13.5586C7.40275 10.1282 10.1282 7.40275 13.5586 5.98183L22.6424 2.21917Z" fill="#FF6B00"/>
<path d="M17 23C16.4477 23 16 23.4477 16 24C16 24.5523 16.4477 25 17 25V23ZM25.0823 24.9711L24.2248 25.4856L24.2248 25.4856L25.0823 24.9711ZM31.4171 35.5291L30.5596 36.0435L30.5596 36.0435L31.4171 35.5291ZM39.5004 37.5C40.0527 37.5 40.5004 37.0523 40.5004 36.5C40.5004 35.9477 40.0527 35.5 39.5004 35.5V37.5ZM31.8827 36.1887L31.2223 36.9396L31.2223 36.9396L31.8827 36.1887ZM32.3271 36.4408L32.6314 35.4882L32.3271 36.4408ZM24.1721 24.0592L24.4763 23.1066L24.4763 23.1066L24.1721 24.0592ZM24.6172 24.3113L23.9569 25.0623L24.6172 24.3113ZM32 23C31.4477 23 31 23.4477 31 24C31 24.5523 31.4477 25 32 25L32 23ZM39.5 25C40.0523 25 40.5 24.5523 40.5 24C40.5 23.4477 40.0523 23 39.5 23L39.5 25ZM17 25H23.3676V23H17V25ZM24.2248 25.4856L30.5596 36.0435L32.2746 35.0146L25.9398 24.4566L24.2248 25.4856ZM33.1328 37.5H39.5004V35.5H33.1328V37.5ZM30.5596 36.0435C30.7394 36.3432 30.9318 36.6842 31.2223 36.9396L32.543 35.4377C32.5544 35.4477 32.5446 35.4439 32.4999 35.3787C32.449 35.3042 32.3862 35.2006 32.2746 35.0146L30.5596 36.0435ZM33.1328 35.5C32.915 35.5 32.7938 35.4996 32.703 35.4943C32.6234 35.4897 32.6157 35.4832 32.6314 35.4882L32.0229 37.3934C32.3921 37.5113 32.7863 37.5 33.1328 37.5V35.5ZM31.2223 36.9396C31.4541 37.1434 31.7259 37.2985 32.0229 37.3934L32.6314 35.4882C32.6001 35.4782 32.5701 35.4615 32.543 35.4377L31.2223 36.9396ZM23.3676 25C23.5854 25 23.7063 25.0004 23.7966 25.0057C23.8756 25.0103 23.8831 25.0167 23.8679 25.0118L24.4763 23.1066C24.1072 22.9888 23.7146 23 23.3676 23V25ZM25.9398 24.4566C25.7611 24.1588 25.5684 23.8161 25.2775 23.5603L23.9569 25.0623C23.9448 25.0517 23.9543 25.055 23.9991 25.1205C24.0502 25.1954 24.1128 25.2989 24.2248 25.4856L25.9398 24.4566ZM23.8679 25.0118C23.9006 25.0223 23.9309 25.0394 23.9569 25.0623L25.2775 23.5603C25.0446 23.3555 24.7719 23.201 24.4763 23.1066L23.8679 25.0118ZM32 25L39.5 25L39.5 23L32 23L32 25Z" fill="white"/>
</svg>
