<svg width="56" height="56" viewBox="0 0 56 56" fill="none" xmlns="http://www.w3.org/2000/svg">
<path d="M22.6424 2.21917C26.0728 0.79826 29.9272 0.798262 33.3576 2.21918L42.4414 5.98184C45.8718 7.40275 48.5973 10.1282 50.0182 13.5586L53.7808 22.6424C55.2017 26.0728 55.2017 29.9272 53.7808 33.3576L50.0182 42.4414C48.5972 45.8718 45.8718 48.5973 42.4414 50.0182L33.3576 53.7808C29.9272 55.2017 26.0728 55.2017 22.6424 53.7808L13.5586 50.0182C10.1282 48.5972 7.40275 45.8718 5.98183 42.4414L2.21917 33.3576C0.798259 29.9272 0.798262 26.0728 2.21918 22.6424L5.98183 13.5586C7.40275 10.1282 10.1282 7.40275 13.5586 5.98183L22.6424 2.21917Z" fill="#FF6B00"/>
<path d="M36.3124 19.0748L37.3102 19.0082C37.2769 18.5084 36.8788 18.1103 36.3789 18.077L36.3124 19.0748ZM21.2864 34.1007L20.4289 34.6152C20.5133 34.756 20.6311 34.8738 20.7719 34.9582L21.2864 34.1007ZM18.2929 35.6794C17.9024 36.0699 17.9024 36.703 18.2929 37.0936C18.6834 37.4841 19.3166 37.4841 19.7071 37.0936L18.2929 35.6794ZM26.7782 30.0225C27.1687 29.632 27.1687 28.9988 26.7782 28.6083C26.3877 28.2178 25.7545 28.2178 25.364 28.6083L26.7782 30.0225ZM35.3146 19.1413C35.7469 25.6258 34.2132 30.3662 31.7383 32.8412C30.5164 34.0631 29.055 34.7496 27.4218 34.8568C25.7772 34.9649 23.8785 34.4898 21.8009 33.2433L20.7719 34.9582C23.1137 36.3633 25.4134 36.9931 27.5529 36.8525C29.7039 36.7112 31.6122 35.7957 33.1525 34.2554C36.2018 31.2061 37.7617 25.7819 37.3102 19.0082L35.3146 19.1413ZM22.1439 33.5863C20.8973 31.5087 20.4222 29.6099 20.5303 27.9653C20.6376 26.3321 21.324 24.8707 22.5459 23.6488C25.0209 21.1739 29.7613 19.6402 36.2459 20.0725L36.3789 18.077C29.6053 17.6254 24.181 19.1853 21.1317 22.2346C19.5914 23.7749 18.6759 25.6833 18.5346 27.8342C18.394 29.9737 19.0238 32.2734 20.4289 34.6152L22.1439 33.5863ZM19.7071 37.0936L26.7782 30.0225L25.364 28.6083L18.2929 35.6794L19.7071 37.0936Z" fill="white"/>
</svg>
