<svg width="56" height="56" viewBox="0 0 56 56" fill="none" xmlns="http://www.w3.org/2000/svg">
<path d="M22.6424 2.21917C26.0728 0.79826 29.9272 0.798262 33.3576 2.21918L42.4414 5.98184C45.8718 7.40275 48.5973 10.1282 50.0182 13.5586L53.7808 22.6424C55.2017 26.0728 55.2017 29.9272 53.7808 33.3576L50.0182 42.4414C48.5972 45.8718 45.8718 48.5973 42.4414 50.0182L33.3576 53.7808C29.9272 55.2017 26.0728 55.2017 22.6424 53.7808L13.5586 50.0182C10.1282 48.5972 7.40275 45.8718 5.98183 42.4414L2.21917 33.3576C0.798259 29.9272 0.798262 26.0728 2.21918 22.6424L5.98183 13.5586C7.40275 10.1282 10.1282 7.40275 13.5586 5.98183L22.6424 2.21917Z" fill="#FF6B00"/>
<path d="M21.4499 32H34.7357M21.2357 29.5H34.95M35.4068 24.1709L34.4065 35.8417C34.2958 37.1325 34.2405 37.7778 33.9536 38.2661C33.701 38.6962 33.326 39.0409 32.8759 39.2559C32.3648 39.5 31.7171 39.5 30.4215 39.5H25.7651C24.4696 39.5 23.8214 39.5 23.3103 39.2559C22.8602 39.0409 22.485 38.6962 22.2324 38.2661C21.9455 37.7778 21.8902 37.1325 21.7795 35.8417L20.7792 24.1709C20.7146 23.4175 20.6823 23.0408 20.8092 22.7501C20.9206 22.4948 21.1141 22.284 21.359 22.1512C21.6378 22 22.0159 22 22.772 22H33.4144C34.1705 22 34.5488 22 34.8276 22.1512C35.0725 22.284 35.2655 22.4948 35.3769 22.7501C35.5038 23.0408 35.4714 23.4175 35.4068 24.1709ZM34.6521 22H21.5342C20.4072 22 19.8437 22 19.5164 21.7641C19.2277 21.5561 19.0416 21.2351 19.0042 20.8813C18.9618 20.4801 19.2416 19.9909 19.8008 19.0124C20.2185 18.2814 20.4274 17.9158 20.7205 17.6496C20.9825 17.4115 21.2921 17.2318 21.6288 17.1224C22.0054 17 22.4262 17 23.2682 17H32.9185C33.7604 17 34.1814 17 34.558 17.1224C34.8947 17.2318 35.204 17.4115 35.4661 17.6496C35.7592 17.9158 35.968 18.2814 36.3858 19.0124C36.9449 19.9909 37.2246 20.4801 37.1822 20.8813C37.1448 21.2351 36.9589 21.5561 36.6703 21.7641C36.343 22 35.7791 22 34.6521 22Z" stroke="white" stroke-width="2" stroke-linecap="round" stroke-linejoin="round"/>
</svg>
