<svg width="746" height="722" viewBox="0 0 746 722" fill="none" xmlns="http://www.w3.org/2000/svg">
<g clip-path="url(#clip0_28_1155)">
<path d="M680.603 720.623V648.283C680.603 648.283 708.794 699.569 680.603 720.623Z" fill="#F1F1F1"/>
<path d="M682.344 720.611L629.054 671.689C629.054 671.689 685.899 685.605 682.344 720.611Z" fill="#F1F1F1"/>
<path d="M494.388 319.188L211.603 484.466C210.613 485.043 209.435 485.204 208.326 484.913C207.218 484.623 206.271 483.904 205.691 482.916L23.8421 171.778C23.2651 170.788 23.1043 169.61 23.3949 168.502C23.6856 167.393 24.4039 166.446 25.3923 165.867L308.178 0.58866C309.167 0.0117054 310.345 -0.149099 311.454 0.141524C312.562 0.432146 313.509 1.15046 314.089 2.13889L495.938 313.277C496.515 314.267 496.676 315.445 496.385 316.553C496.094 317.662 495.376 318.609 494.388 319.188Z" fill="white"/>
<path d="M494.388 319.188L211.603 484.466C210.613 485.043 209.435 485.204 208.326 484.913C207.218 484.623 206.271 483.904 205.691 482.916L23.8421 171.778C23.2651 170.788 23.1043 169.61 23.3949 168.502C23.6856 167.393 24.4039 166.446 25.3923 165.867L308.178 0.58866C309.167 0.0117054 310.345 -0.149099 311.454 0.141524C312.562 0.432146 313.509 1.15046 314.089 2.13889L495.938 313.277C496.515 314.267 496.676 315.445 496.385 316.553C496.094 317.662 495.376 318.609 494.388 319.188ZM26.2645 167.359C25.6714 167.706 25.2404 168.275 25.066 168.94C24.8917 169.605 24.9882 170.312 25.3344 170.905L207.184 482.044C207.531 482.637 208.1 483.068 208.765 483.242C209.43 483.417 210.137 483.32 210.73 482.974L493.516 317.696C494.109 317.349 494.54 316.78 494.714 316.115C494.888 315.45 494.792 314.743 494.446 314.149L312.596 3.01102C312.249 2.41794 311.68 1.98692 311.015 1.81254C310.351 1.63817 309.644 1.73467 309.05 2.08088L26.2645 167.359Z" fill="#3F3D56"/>
<path d="M208.04 198.345L137.903 239.337C136.913 239.914 135.735 240.075 134.627 239.784C133.519 239.494 132.571 238.776 131.992 237.787L90.9996 167.65C90.4226 166.661 90.2618 165.482 90.5524 164.374C90.8431 163.266 91.5614 162.318 92.5498 161.739L162.687 120.747C163.676 120.17 164.854 120.009 165.963 120.3C167.071 120.59 168.018 121.309 168.598 122.297L209.59 192.434C210.167 193.424 210.328 194.602 210.037 195.71C209.747 196.818 209.028 197.766 208.04 198.345ZM93.422 163.232C92.8289 163.579 92.3979 164.148 92.2235 164.813C92.0491 165.477 92.1457 166.184 92.4919 166.778L133.484 236.915C133.832 237.508 134.4 237.939 135.065 238.113C135.73 238.288 136.437 238.191 137.031 237.845L207.168 196.853C207.761 196.505 208.192 195.937 208.366 195.272C208.541 194.607 208.444 193.9 208.098 193.306L167.105 123.169C166.758 122.576 166.189 122.145 165.524 121.971C164.859 121.796 164.153 121.893 163.559 122.239L93.422 163.232Z" fill="#F2F2F2"/>
<path d="M192.909 218.7L122.772 259.692C121.882 260.212 120.821 260.356 119.824 260.095C118.827 259.833 117.974 259.187 117.452 258.297L76.46 188.161C75.9407 187.27 75.796 186.209 76.0575 185.212C76.3191 184.215 76.9656 183.362 77.8552 182.841L147.992 141.848C148.883 141.329 149.943 141.184 150.94 141.446C151.938 141.707 152.791 142.354 153.312 143.243L194.304 213.38C194.824 214.271 194.968 215.331 194.707 216.329C194.445 217.326 193.799 218.179 192.909 218.7Z" fill="#02447B"/>
<path d="M362.196 165.803L142.832 294.014C141.942 294.534 140.881 294.679 139.883 294.418C138.886 294.156 138.033 293.509 137.512 292.618C136.992 291.728 136.847 290.667 137.108 289.669C137.37 288.672 138.017 287.819 138.908 287.298L358.271 159.088C358.712 158.83 359.2 158.662 359.706 158.593C360.212 158.523 360.726 158.554 361.22 158.684C361.714 158.813 362.178 159.039 362.585 159.348C362.992 159.656 363.334 160.042 363.591 160.483C363.849 160.924 364.017 161.412 364.087 161.918C364.156 162.424 364.125 162.938 363.996 163.432C363.866 163.926 363.64 164.39 363.332 164.797C363.023 165.204 362.637 165.546 362.196 165.803Z" fill="#CCCCCC"/>
<path d="M322.74 219.897L156.351 317.145C155.911 317.403 155.423 317.571 154.917 317.64C154.411 317.71 153.897 317.679 153.402 317.549C152.405 317.288 151.552 316.64 151.031 315.75C150.511 314.859 150.366 313.798 150.627 312.801C150.889 311.803 151.536 310.95 152.427 310.43L318.815 213.182C319.256 212.924 319.743 212.756 320.249 212.686C320.755 212.617 321.27 212.648 321.764 212.778C322.258 212.907 322.721 213.133 323.128 213.441C323.535 213.75 323.877 214.136 324.135 214.577C324.393 215.018 324.561 215.505 324.63 216.011C324.7 216.517 324.669 217.032 324.539 217.526C324.409 218.02 324.184 218.484 323.875 218.89C323.566 219.297 323.181 219.639 322.74 219.897Z" fill="#CCCCCC"/>
<path d="M311.736 81.1802L214.739 137.872C213.848 138.392 212.787 138.538 211.79 138.276C210.792 138.014 209.939 137.367 209.419 136.477C208.898 135.586 208.753 134.525 209.014 133.528C209.276 132.53 209.923 131.677 210.814 131.157L307.811 74.465C308.702 73.9446 309.763 73.7992 310.76 74.0608C311.254 74.1904 311.718 74.416 312.125 74.7247C312.532 75.0334 312.874 75.4193 313.131 75.8602C313.389 76.3012 313.557 76.7885 313.627 77.2945C313.696 77.8005 313.665 78.3152 313.536 78.8092C313.406 79.3032 313.18 79.7668 312.872 80.1737C312.563 80.5805 312.177 80.9225 311.736 81.1802Z" fill="#CCCCCC"/>
<path d="M301.047 118.46L228.257 161.003C227.816 161.261 227.329 161.429 226.823 161.498C226.317 161.568 225.802 161.537 225.308 161.407C224.814 161.278 224.351 161.052 223.944 160.743C223.537 160.434 223.195 160.049 222.937 159.608C222.679 159.167 222.511 158.679 222.442 158.173C222.372 157.667 222.403 157.153 222.533 156.659C222.663 156.165 222.888 155.701 223.197 155.294C223.506 154.887 223.891 154.545 224.332 154.288L297.123 111.744C298.013 111.224 299.074 111.078 300.072 111.34C301.069 111.602 301.922 112.249 302.443 113.14C302.963 114.03 303.109 115.091 302.847 116.088C302.585 117.086 301.938 117.939 301.047 118.46Z" fill="#FFD233"/>
<path d="M389.234 212.065L169.87 340.275C168.979 340.796 167.919 340.941 166.921 340.68C165.923 340.418 165.07 339.771 164.55 338.88C164.03 337.99 163.884 336.929 164.146 335.931C164.407 334.933 165.055 334.081 165.945 333.56L385.309 205.35C386.199 204.829 387.26 204.684 388.258 204.946C389.256 205.207 390.109 205.854 390.629 206.745C391.149 207.635 391.295 208.696 391.033 209.694C390.771 210.692 390.124 211.545 389.234 212.065Z" fill="#CCCCCC"/>
<path d="M349.777 266.157L183.389 363.405C182.948 363.662 182.461 363.831 181.955 363.9C181.449 363.969 180.934 363.939 180.44 363.809C179.946 363.679 179.482 363.454 179.075 363.145C178.669 362.836 178.327 362.45 178.069 362.01C177.811 361.569 177.643 361.081 177.573 360.575C177.504 360.069 177.535 359.555 177.665 359.061C177.794 358.567 178.02 358.103 178.329 357.696C178.637 357.289 179.023 356.947 179.464 356.69L345.852 259.442C346.293 259.184 346.78 259.016 347.286 258.946C347.792 258.877 348.307 258.908 348.801 259.037C349.295 259.167 349.759 259.393 350.166 259.701C350.572 260.01 350.914 260.396 351.172 260.837C351.43 261.278 351.598 261.765 351.668 262.271C351.737 262.777 351.706 263.292 351.576 263.786C351.447 264.28 351.221 264.743 350.913 265.15C350.604 265.557 350.218 265.899 349.777 266.157Z" fill="#CCCCCC"/>
<path d="M416.271 258.325L196.908 386.535C196.467 386.793 195.979 386.961 195.473 387.03C194.967 387.1 194.453 387.069 193.959 386.939C193.465 386.81 193.001 386.584 192.594 386.275C192.187 385.967 191.845 385.581 191.588 385.14C191.33 384.699 191.162 384.212 191.092 383.706C191.023 383.2 191.054 382.685 191.183 382.191C191.313 381.697 191.539 381.233 191.847 380.826C192.156 380.42 192.542 380.078 192.983 379.82L412.347 251.61C412.788 251.352 413.275 251.184 413.781 251.114C414.287 251.045 414.802 251.076 415.296 251.205C415.79 251.335 416.253 251.56 416.66 251.869C417.067 252.178 417.409 252.564 417.667 253.005C417.924 253.446 418.093 253.933 418.162 254.439C418.231 254.945 418.2 255.46 418.071 255.954C417.941 256.448 417.716 256.911 417.407 257.318C417.098 257.725 416.712 258.067 416.271 258.325Z" fill="#CCCCCC"/>
<path d="M429.79 281.456L210.427 409.666C209.986 409.924 209.498 410.092 208.992 410.161C208.486 410.231 207.972 410.2 207.478 410.07C206.984 409.941 206.52 409.715 206.113 409.406C205.706 409.097 205.364 408.712 205.107 408.271C204.849 407.83 204.681 407.342 204.611 406.836C204.542 406.33 204.573 405.816 204.702 405.322C204.832 404.828 205.058 404.364 205.366 403.957C205.675 403.55 206.061 403.208 206.502 402.951L425.866 274.74C426.306 274.483 426.794 274.314 427.3 274.245C427.806 274.176 428.32 274.207 428.814 274.336C429.309 274.466 429.772 274.691 430.179 275C430.586 275.309 430.928 275.695 431.186 276.136C431.443 276.577 431.612 277.064 431.681 277.57C431.75 278.076 431.719 278.591 431.59 279.085C431.46 279.579 431.235 280.042 430.926 280.449C430.617 280.856 430.231 281.198 429.79 281.456Z" fill="#CCCCCC"/>
<path d="M358.852 371.499C361.9 367.91 364.643 364.073 367.054 360.028C369.215 356.379 371.336 352.478 371.813 348.199C372.056 346.377 371.866 344.522 371.259 342.787C370.651 341.052 369.642 339.485 368.314 338.213C367.031 337.03 365.404 336.287 363.67 336.089C361.936 335.892 360.184 336.252 358.668 337.117C357.134 337.997 355.866 339.276 355 340.819C354.133 342.361 353.699 344.108 353.745 345.877C353.869 347.824 354.432 349.718 355.391 351.417C356.349 353.116 357.679 354.577 359.281 355.691C365.765 360.388 375.891 360.143 382.802 356.568C390.586 352.541 394.607 342.006 388.492 334.795C387.22 333.295 385.103 334.971 385.422 336.589C385.826 338.775 387.049 340.724 388.842 342.038C390.635 343.351 392.861 343.931 395.067 343.659C397.273 343.386 399.291 342.282 400.71 340.571C402.129 338.86 402.841 336.672 402.701 334.454L399.952 336.061C403.322 337.554 407.026 338.133 410.692 337.739C414.357 337.346 417.854 335.995 420.831 333.821C422.304 332.751 423.619 331.48 424.738 330.045C426.084 328.289 428.344 327.155 430.175 325.89L443.365 316.776C445.305 315.435 443.46 312.241 441.504 313.592L429.558 321.847C427.568 323.222 425.564 324.581 423.585 325.974C422.171 326.969 421.301 328.577 420.014 329.76C417.577 331.951 414.567 333.405 411.336 333.952C408.104 334.499 404.784 334.115 401.762 332.847C401.48 332.696 401.165 332.619 400.845 332.625C400.525 332.631 400.213 332.718 399.937 332.88C399.661 333.041 399.431 333.27 399.269 333.546C399.107 333.822 399.019 334.134 399.013 334.454C399.158 335.777 398.775 337.105 397.946 338.147C397.118 339.19 395.911 339.862 394.589 340.019C393.266 340.176 391.936 339.803 390.886 338.984C389.837 338.164 389.154 336.962 388.987 335.641L385.917 337.436C389.862 342.088 387.235 349.223 382.69 352.345C377.607 355.835 370.097 356.441 364.367 354.271C362.962 353.788 361.671 353.02 360.576 352.015C359.481 351.01 358.605 349.79 358.002 348.431C357.444 347.204 357.284 345.832 357.547 344.51C357.809 343.187 358.48 341.98 359.464 341.058C360.317 340.216 361.465 339.737 362.664 339.724C363.863 339.712 365.02 340.165 365.891 340.99C366.84 341.958 367.536 343.145 367.918 344.446C368.3 345.747 368.356 347.122 368.082 348.449C367.491 352.144 365.449 355.551 363.549 358.706C361.379 362.302 358.926 365.719 356.212 368.923C354.69 370.724 357.315 373.318 358.852 371.499Z" fill="#02447B"/>
<path d="M391.593 459.18C391.91 459.507 392.202 459.858 392.465 460.231L433.313 459.231L438.078 450.523L452.16 455.998L445.222 472.233C444.662 473.545 443.691 474.639 442.455 475.352C441.22 476.065 439.787 476.358 438.371 476.187L392.219 470.612C391.131 471.99 389.648 473.004 387.969 473.519C386.29 474.034 384.494 474.026 382.82 473.495C381.145 472.965 379.672 471.937 378.597 470.549C377.521 469.161 376.893 467.478 376.797 465.724C376.701 463.971 377.141 462.229 378.058 460.732C378.976 459.234 380.328 458.052 381.934 457.341C383.54 456.631 385.325 456.426 387.05 456.755C388.775 457.083 390.36 457.929 391.593 459.18Z" fill="#FFB7B7"/>
<path d="M524.753 707.256H511.322L504.932 655.449L524.755 655.45L524.753 707.256Z" fill="#FFB7B7"/>
<path d="M528.178 720.277L484.87 720.275V719.727C484.87 715.257 486.646 710.97 489.808 707.808C492.969 704.647 497.256 702.871 501.727 702.871H501.728L528.179 702.872L528.178 720.277Z" fill="#2F2E41"/>
<path d="M402.792 706.958L390.441 701.681L404.916 651.529L423.145 659.317L402.792 706.958Z" fill="#FFB7B7"/>
<path d="M400.828 720.276L361.002 703.262L361.217 702.758C362.974 698.647 366.291 695.402 370.44 693.737C374.589 692.071 379.229 692.122 383.34 693.878L383.341 693.879L407.666 704.27L400.828 720.276Z" fill="#2F2E41"/>
<path d="M459.468 470.402L458.496 486.141L486.887 489.179L516.593 492.358L507.849 468.459L459.468 470.402Z" fill="#FFB7B7"/>
<path d="M457.602 486.343L446.573 409.455L465.69 403.19L471.304 395.49L498.627 397.107L502.639 406.093L517.208 412.977L514.969 454.559L516.602 489.343L457.602 486.343Z" fill="#FFD233"/>
<path d="M450.66 465.739L431.216 457.959L431.299 457.613C431.382 457.264 439.658 422.68 440.757 417.123C441.902 411.333 446.084 409.732 446.261 409.667L446.391 409.619L454.086 411.961L457.466 438.516L450.66 465.739Z" fill="#FFD233"/>
<path d="M412.796 697.853L386.912 692.544L428.282 578.39L442.44 539.454C442.44 539.454 451.421 508.235 455.478 496.154L457.926 479.943L515.888 486.359C515.888 486.359 532.077 510.133 527.159 548.884L529.383 694.535L503.499 695.862L481.819 548.967L443.768 629.494C443.768 629.494 431.774 663.857 423.194 671.306L412.796 697.853Z" fill="#2F2E41"/>
<path d="M492.644 491.765C493.1 491.754 493.556 491.78 494.008 491.84L521.048 461.207L517.903 451.792L531.491 445.188L538.679 461.314C539.26 462.617 539.402 464.073 539.085 465.463C538.768 466.854 538.008 468.104 536.92 469.026L501.453 499.078C501.724 500.814 501.459 502.59 500.695 504.172C499.932 505.753 498.704 507.065 497.177 507.932C495.65 508.799 493.894 509.18 492.145 509.025C490.395 508.87 488.735 508.186 487.383 507.065C486.032 505.943 485.054 504.436 484.58 502.745C484.106 501.054 484.158 499.259 484.729 497.598C485.3 495.937 486.363 494.489 487.777 493.447C489.191 492.406 490.889 491.819 492.644 491.765Z" fill="#FFB7B7"/>
<path d="M518.89 464.188L507.61 437.655L512.009 419.173L516.749 413.185C517.097 413.036 517.471 412.961 517.848 412.965C518.226 412.968 518.599 413.05 518.943 413.205C520.691 413.909 522.18 416.065 523.368 419.615L533.939 449.726L518.89 464.188Z" fill="#FFD233"/>
<path d="M460.367 385.659V365.656C460.367 358.547 463.191 351.729 468.218 346.702C473.245 341.676 480.063 338.852 487.172 338.852C494.28 338.852 501.098 341.676 506.125 346.702C511.152 351.729 513.976 358.547 513.976 365.656V385.659C513.975 386.614 513.595 387.529 512.92 388.204C512.245 388.879 511.33 389.259 510.375 389.26H463.968C463.013 389.259 462.098 388.879 461.423 388.204C460.748 387.529 460.368 386.614 460.367 385.659Z" fill="#2F2E41"/>
<path d="M481.664 388.794C492.517 388.794 501.316 379.996 501.316 369.142C501.316 358.289 492.517 349.49 481.664 349.49C470.81 349.49 462.012 358.289 462.012 369.142C462.012 379.996 470.81 388.794 481.664 388.794Z" fill="#FFB7B7"/>
<path d="M454.026 367.256C454.033 361.635 456.268 356.245 460.244 352.27C464.219 348.295 469.608 346.059 475.23 346.053H479.23C484.852 346.059 490.241 348.295 494.216 352.27C498.191 356.245 500.427 361.635 500.434 367.256V367.656H491.979L489.095 359.581L488.519 367.656H484.149L482.694 363.582L482.403 367.656H454.026L454.026 367.256Z" fill="#2F2E41"/>
<path d="M479.73 391.509C479.333 390.972 479.096 390.333 479.046 389.667C478.996 389 479.135 388.333 479.448 387.743C483.687 379.679 489.623 364.779 481.744 355.59L481.178 354.93H504.052V389.271L483.273 392.937C483.062 392.975 482.849 392.993 482.635 392.994C482.068 392.994 481.509 392.859 481.004 392.601C480.499 392.343 480.062 391.969 479.73 391.509Z" fill="#2F2E41"/>
<path d="M212.904 695.94L225.042 700.278L247.551 655.523L229.636 649.121L212.904 695.94Z" fill="#9F616A"/>
<path d="M205.603 706.601L211.224 690.871L235.129 699.414C239.166 700.863 242.464 703.853 244.3 707.73C246.135 711.606 246.358 716.053 244.919 720.093L244.742 720.588L205.603 706.601Z" fill="#02447B"/>
<path d="M291.836 707.947L304.726 707.946L310.859 658.227L291.834 658.228L291.836 707.947Z" fill="#9F616A"/>
<path d="M288.548 703.737L313.933 703.736H313.934C316.059 703.736 318.163 704.155 320.125 704.968C322.088 705.781 323.872 706.972 325.374 708.474C326.876 709.977 328.068 711.76 328.881 713.723C329.694 715.686 330.112 717.789 330.112 719.914V720.44L288.549 720.441L288.548 703.737Z" fill="#02447B"/>
<path d="M262.459 390.3L268.065 379.223C268.065 379.223 288.949 384.455 290.847 396.559L262.459 390.3Z" fill="#F1F1F1"/>
<path d="M239.328 516.96L254.573 602.034L214.093 673.622L238.276 683.085L279.282 613.691L284.539 594.765L287.693 693.599L309.503 692.937L319.502 600.65L303.464 514.857L239.328 516.96Z" fill="#2F2E41"/>
<path d="M268.268 537.071C245.871 537.071 231.651 532.787 231.333 532.719L230.817 532.609L242.482 478.524L243.008 428.634C243.008 407.493 256.922 391.906 258.853 390.468C259.178 389.185 259.779 387.988 260.615 386.961C261.45 385.934 262.5 385.102 263.69 384.523C268.332 382.417 274.003 384.944 274.242 385.053L291.265 391.435L291.345 391.671C291.551 392.276 313.973 465.885 313.973 465.885C313.973 465.885 312.616 530.2 312.143 532.307C312.143 532.307 280.712 537.071 268.268 537.071Z" fill="#02447B"/>
<path d="M285.477 375.735C298.184 375.735 308.485 365.434 308.485 352.727C308.485 340.02 298.184 329.719 285.477 329.719C272.77 329.719 262.469 340.02 262.469 352.727C262.469 365.434 272.77 375.735 285.477 375.735Z" fill="#9F616A"/>
<path opacity="0.2" d="M259.823 432.715L300.076 488.877L306.02 462.65L259.823 432.715Z" fill="black"/>
<path d="M386.023 470.928C384.891 471.824 383.577 472.46 382.172 472.793C380.767 473.125 379.307 473.146 377.894 472.853C376.48 472.56 375.148 471.96 373.991 471.097C372.835 470.233 371.881 469.127 371.199 467.855L336.552 473.401L344.058 456.784L375.808 454.065C378.021 453.06 380.525 452.901 382.847 453.619C385.169 454.336 387.147 455.881 388.406 457.96C389.665 460.038 390.118 462.506 389.679 464.897C389.24 467.287 387.939 469.433 386.023 470.928Z" fill="#9F616A"/>
<path d="M345.842 455.838L358.291 454.617L361.741 471.983L346.076 472.26L345.842 455.838Z" fill="#F1F1F1"/>
<path d="M356.047 478.035L295.077 472.606L264.291 423.645L264.196 423.212C263.323 419.213 263.935 415.032 265.918 411.45C267.901 407.869 271.119 405.132 274.973 403.749C278.826 402.367 283.051 402.435 286.859 403.94C290.666 405.444 293.796 408.283 295.663 411.926L313.735 447.177L350.208 452.69L356.047 478.035Z" fill="#02447B"/>
<path d="M265.879 372.704L284.976 373.389C286.14 373.431 289.299 360.868 289.713 358.262C290.039 356.566 290.973 355.046 292.338 353.987C293.704 352.928 295.408 352.403 297.132 352.508C298.562 352.643 302.167 349.973 305.886 346.81C312.948 340.806 312.581 329.53 304.823 324.457C304.611 324.318 304.403 324.192 304.199 324.077C299.305 321.338 293.58 320.418 287.972 320.348C282.889 320.284 277.661 320.924 273.182 323.33C265.153 327.644 260.88 337.071 260.504 346.178C260.129 355.285 263.049 364.19 266.362 372.681" fill="#2F2E41"/>
<path d="M744.602 721.344H1C0.734784 721.344 0.480429 721.238 0.292892 721.051C0.105356 720.863 0 720.609 0 720.344C0 720.079 0.105356 719.824 0.292892 719.637C0.480429 719.449 0.734784 719.344 1 719.344H745C745.265 719.344 745.52 719.449 745.707 719.637C745.895 719.824 746 720.079 746 720.344C746 720.896 745.155 721.344 744.602 721.344Z" fill="#CBCBCB"/>
</g>
<defs>
<clipPath id="clip0_28_1155">
<rect width="746" height="721.343" fill="white"/>
</clipPath>
</defs>
</svg>
