<svg width="164" height="45" viewBox="0 0 164 45" fill="none" xmlns="http://www.w3.org/2000/svg">
<path d="M67.7831 12.7567C67.7831 14.3492 67.4832 15.7041 66.8835 16.8212C66.2885 17.9384 65.4763 18.7917 64.4468 19.3812C63.4221 19.9659 62.2699 20.2583 60.9901 20.2583C59.701 20.2583 58.544 19.9635 57.5193 19.374C56.4946 18.7846 55.6847 17.9312 55.0897 16.8141C54.4947 15.6969 54.1972 14.3445 54.1972 12.7567C54.1972 11.1641 54.4947 9.8093 55.0897 8.69215C55.6847 7.57499 56.4946 6.72405 57.5193 6.13933C58.544 5.54985 59.701 5.25512 60.9901 5.25512C62.2699 5.25512 63.4221 5.54985 64.4468 6.13933C65.4763 6.72405 66.2885 7.57499 66.8835 8.69215C67.4832 9.8093 67.7831 11.1641 67.7831 12.7567ZM64.6735 12.7567C64.6735 11.7251 64.52 10.8551 64.2131 10.1468C63.9109 9.4385 63.4835 8.90132 62.931 8.53527C62.3785 8.16922 61.7315 7.9862 60.9901 7.9862C60.2488 7.9862 59.6018 8.16922 59.0493 8.53527C58.4968 8.90132 58.0671 9.4385 57.7601 10.1468C57.4579 10.8551 57.3068 11.7251 57.3068 12.7567C57.3068 13.7883 57.4579 14.6582 57.7601 15.3665C58.0671 16.0749 58.4968 16.6121 59.0493 16.9781C59.6018 17.3441 60.2488 17.5272 60.9901 17.5272C61.7315 17.5272 62.3785 17.3441 62.931 16.9781C63.4835 16.6121 63.9109 16.0749 64.2131 15.3665C64.52 14.6582 64.6735 13.7883 64.6735 12.7567Z" fill="#EDEDED"/>
<path d="M76.9755 15.3951V9.10573H79.9931V20.0586H77.096V18.0691H76.9826C76.7371 18.7109 76.3286 19.2267 75.7572 19.6165C75.1905 20.0063 74.4987 20.2012 73.6818 20.2012C72.9545 20.2012 72.3147 20.0348 71.7622 19.702C71.2097 19.3693 70.7776 18.8963 70.4659 18.283C70.159 17.6698 70.0031 16.9353 69.9984 16.0796V9.10573H73.0159V15.5377C73.0207 16.1842 73.193 16.6952 73.533 17.0708C73.873 17.4464 74.3287 17.6341 74.9001 17.6341C75.2637 17.6341 75.6037 17.5509 75.9201 17.3846C76.2365 17.2134 76.4915 16.9615 76.6851 16.6287C76.8834 16.2959 76.9803 15.8847 76.9755 15.3951Z" fill="#EDEDED"/>
<path d="M88.1938 9.10573V11.3876H81.6417V9.10573H88.1938ZM83.1292 6.48161H86.1467V16.6929C86.1467 16.9733 86.1892 17.192 86.2742 17.3489C86.3592 17.501 86.4773 17.608 86.6284 17.6698C86.7842 17.7316 86.9637 17.7625 87.1667 17.7625C87.3084 17.7625 87.4501 17.7506 87.5917 17.7268C87.7334 17.6983 87.842 17.6769 87.9176 17.6627L88.3921 19.9231C88.241 19.9706 88.0285 20.0253 87.7546 20.0871C87.4808 20.1537 87.1478 20.1941 86.7559 20.2083C86.0287 20.2369 85.3912 20.1394 84.8434 19.916C84.3003 19.6925 83.8777 19.3455 83.5755 18.8749C83.2732 18.4043 83.1245 17.81 83.1292 17.0922V6.48161Z" fill="#EDEDED"/>
<path d="M99.0756 12.229L96.3131 12.4001C96.2659 12.1625 96.1644 11.9485 96.0085 11.7584C95.8527 11.5635 95.6473 11.409 95.3923 11.2949C95.142 11.176 94.8421 11.1166 94.4927 11.1166C94.0252 11.1166 93.6309 11.2164 93.3098 11.4161C92.9887 11.611 92.8281 11.8725 92.8281 12.2005C92.8281 12.4619 92.932 12.683 93.1398 12.8636C93.3476 13.0443 93.7041 13.1893 94.2094 13.2986L96.1785 13.6979C97.2363 13.9166 98.0249 14.2684 98.5444 14.7533C99.0638 15.2382 99.3236 15.8752 99.3236 16.6643C99.3236 17.3822 99.1134 18.0121 98.6931 18.554C98.2776 19.0959 97.7062 19.519 96.979 19.8233C96.2565 20.1228 95.423 20.2725 94.4785 20.2725C93.0383 20.2725 91.8907 19.9706 91.036 19.3669C90.186 18.7584 89.6878 17.9312 89.5414 16.8854L92.5094 16.7285C92.5991 17.1706 92.8163 17.5082 93.161 17.7411C93.5058 17.9693 93.9473 18.0834 94.4856 18.0834C95.0145 18.0834 95.4395 17.9812 95.7606 17.7767C96.0865 17.5676 96.2517 17.299 96.2565 16.971C96.2517 16.6952 96.136 16.4694 95.9094 16.2935C95.6827 16.1129 95.3333 15.975 94.861 15.88L92.9769 15.502C91.9144 15.2881 91.1234 14.9173 90.6039 14.3896C90.0892 13.862 89.8318 13.1893 89.8318 12.3716C89.8318 11.6681 90.0207 11.0619 90.3985 10.5533C90.781 10.0446 91.317 9.65242 92.0064 9.3767C92.7006 9.10098 93.5128 8.96311 94.4431 8.96311C95.8173 8.96311 96.8987 9.25548 97.6873 9.8402C98.4806 10.4249 98.9434 11.2212 99.0756 12.229Z" fill="#EDEDED"/>
<path d="M107.011 9.10573V11.3876H100.459V9.10573H107.011ZM101.946 6.48161H104.964V16.6929C104.964 16.9733 105.006 17.192 105.091 17.3489C105.176 17.501 105.294 17.608 105.445 17.6698C105.601 17.7316 105.781 17.7625 105.984 17.7625C106.125 17.7625 106.267 17.7506 106.409 17.7268C106.55 17.6983 106.659 17.6769 106.735 17.6627L107.209 19.9231C107.058 19.9706 106.846 20.0253 106.572 20.0871C106.298 20.1537 105.965 20.1941 105.573 20.2083C104.846 20.2369 104.208 20.1394 103.66 19.916C103.117 19.6925 102.695 19.3455 102.392 18.8749C102.09 18.4043 101.941 17.81 101.946 17.0922V6.48161Z" fill="#EDEDED"/>
<path d="M112.079 20.2654C111.385 20.2654 110.766 20.1442 110.223 19.9017C109.68 19.6545 109.25 19.2908 108.934 18.8107C108.622 18.3258 108.466 17.7221 108.466 16.9995C108.466 16.391 108.577 15.88 108.799 15.4664C109.021 15.0528 109.323 14.72 109.706 14.4681C110.088 14.2161 110.523 14.026 111.009 13.8976C111.5 13.7693 112.015 13.6789 112.554 13.6266C113.186 13.5601 113.696 13.4983 114.084 13.4412C114.471 13.3794 114.752 13.2891 114.926 13.1703C115.101 13.0514 115.189 12.8755 115.189 12.6426V12.5998C115.189 12.1482 115.047 11.7988 114.764 11.5516C114.485 11.3044 114.088 11.1808 113.574 11.1808C113.03 11.1808 112.598 11.302 112.277 11.5445C111.956 11.7821 111.744 12.0816 111.64 12.4429L108.849 12.2147C108.991 11.5492 109.269 10.974 109.685 10.4891C110.1 9.99945 110.636 9.6239 111.293 9.36244C111.954 9.09622 112.719 8.96311 113.588 8.96311C114.192 8.96311 114.771 9.03442 115.323 9.17704C115.88 9.31965 116.374 9.54071 116.804 9.8402C117.238 10.1397 117.58 10.5248 117.831 10.9954C118.081 11.4613 118.206 12.0198 118.206 12.6711V20.0586H115.344V18.5397H115.259C115.085 18.882 114.851 19.1839 114.558 19.4453C114.265 19.7021 113.914 19.9041 113.503 20.0515C113.092 20.1941 112.617 20.2654 112.079 20.2654ZM112.943 18.1689C113.387 18.1689 113.779 18.081 114.119 17.9051C114.459 17.7245 114.726 17.482 114.919 17.1778C115.113 16.8735 115.21 16.5289 115.21 16.1438V14.9815C115.115 15.0433 114.985 15.1003 114.82 15.1526C114.66 15.2002 114.478 15.2453 114.275 15.2881C114.072 15.3261 113.869 15.3618 113.666 15.3951C113.463 15.4236 113.278 15.4497 113.113 15.4735C112.759 15.5258 112.45 15.609 112.185 15.7231C111.921 15.8372 111.715 15.9917 111.569 16.1866C111.423 16.3767 111.349 16.6144 111.349 16.8997C111.349 17.3132 111.498 17.6294 111.796 17.8481C112.098 18.062 112.48 18.1689 112.943 18.1689Z" fill="#EDEDED"/>
<path d="M126.398 9.10573V11.3876H119.683V9.10573H126.398ZM121.22 20.0586V8.31421C121.22 7.52032 121.373 6.86191 121.68 6.33899C121.992 5.81607 122.417 5.42388 122.955 5.16241C123.494 4.90095 124.105 4.77022 124.79 4.77022C125.253 4.77022 125.675 4.80588 126.058 4.87719C126.445 4.94849 126.733 5.01267 126.922 5.06972L126.384 7.35156C126.266 7.31353 126.119 7.27788 125.945 7.2446C125.775 7.21132 125.6 7.19468 125.42 7.19468C124.977 7.19468 124.667 7.29927 124.493 7.50844C124.318 7.71285 124.23 8.00046 124.23 8.37126V20.0586H121.22Z" fill="#EDEDED"/>
<path d="M134.092 9.10573V11.3876H127.377V9.10573H134.092ZM128.914 20.0586V8.31421C128.914 7.52032 129.068 6.86191 129.375 6.33899C129.686 5.81607 130.111 5.42388 130.65 5.16241C131.188 4.90095 131.8 4.77022 132.484 4.77022C132.947 4.77022 133.37 4.80588 133.752 4.87719C134.139 4.94849 134.428 5.01267 134.616 5.06972L134.078 7.35156C133.96 7.31353 133.814 7.27788 133.639 7.2446C133.469 7.21132 133.294 7.19468 133.115 7.19468C132.671 7.19468 132.362 7.29927 132.187 7.50844C132.012 7.71285 131.925 8.00046 131.925 8.37126V20.0586H128.914Z" fill="#EDEDED"/>
<path d="M135.936 20.0586V9.10573H138.953V20.0586H135.936ZM137.452 7.69384C137.003 7.69384 136.618 7.54409 136.297 7.2446C135.981 6.94035 135.822 6.57668 135.822 6.15359C135.822 5.73525 135.981 5.37634 136.297 5.07685C136.618 4.7726 137.003 4.62048 137.452 4.62048C137.9 4.62048 138.283 4.7726 138.599 5.07685C138.92 5.37634 139.081 5.73525 139.081 6.15359C139.081 6.57668 138.92 6.94035 138.599 7.2446C138.283 7.54409 137.9 7.69384 137.452 7.69384Z" fill="#EDEDED"/>
<path d="M144.388 13.7265V20.0586H141.37V9.10573H144.246V11.0382H144.374C144.615 10.4012 145.018 9.89724 145.585 9.52644C146.152 9.15089 146.839 8.96311 147.646 8.96311C148.402 8.96311 149.061 9.1295 149.623 9.46227C150.184 9.79504 150.621 10.2704 150.933 10.8884C151.245 11.5017 151.4 12.2338 151.4 13.0847V20.0586H148.383V13.6266C148.388 12.9563 148.218 12.4334 147.873 12.0579C147.528 11.6776 147.054 11.4874 146.449 11.4874C146.043 11.4874 145.684 11.5754 145.373 11.7512C145.066 11.9271 144.825 12.1838 144.65 12.5214C144.48 12.8541 144.393 13.2558 144.388 13.7265Z" fill="#EDEDED"/>
<path d="M158.68 24.3941C157.703 24.3941 156.865 24.2586 156.166 23.9876C155.472 23.7214 154.919 23.3578 154.508 22.8966C154.097 22.4355 153.831 21.9173 153.708 21.3421L156.499 20.9642C156.584 21.1829 156.718 21.3873 156.902 21.5774C157.087 21.7676 157.33 21.9197 157.632 22.0338C157.939 22.1527 158.312 22.2121 158.751 22.2121C159.408 22.2121 159.948 22.0504 160.373 21.7272C160.803 21.4087 161.018 20.8739 161.018 20.1228V18.119H160.89C160.758 18.4233 160.56 18.7109 160.295 18.9818C160.031 19.2528 159.691 19.4739 159.275 19.645C158.86 19.8161 158.364 19.9017 157.788 19.9017C156.971 19.9017 156.227 19.7116 155.557 19.3312C154.891 18.9462 154.36 18.3591 153.963 17.57C153.571 16.7761 153.375 15.773 153.375 14.5608C153.375 13.32 153.576 12.2837 153.977 11.4518C154.378 10.6198 154.912 9.99708 155.578 9.58349C156.248 9.16991 156.983 8.96311 157.781 8.96311C158.39 8.96311 158.9 9.0677 159.311 9.27687C159.722 9.48128 160.052 9.73799 160.302 10.047C160.557 10.3512 160.753 10.6507 160.89 10.9455H161.004V9.10573H164V20.1655C164 21.0973 163.773 21.8769 163.32 22.5044C162.867 23.1319 162.239 23.6026 161.436 23.9163C160.638 24.2348 159.719 24.3941 158.68 24.3941ZM158.744 17.6199C159.231 17.6199 159.641 17.4986 159.977 17.2562C160.317 17.009 160.576 16.6572 160.756 16.2008C160.94 15.7397 161.032 15.1883 161.032 14.5465C161.032 13.9047 160.942 13.3485 160.763 12.8779C160.583 12.4025 160.324 12.0341 159.984 11.7726C159.644 11.5112 159.231 11.3804 158.744 11.3804C158.248 11.3804 157.83 11.5159 157.49 11.7869C157.15 12.0531 156.893 12.4239 156.718 12.8993C156.544 13.3747 156.456 13.9238 156.456 14.5465C156.456 15.1788 156.544 15.7255 156.718 16.1866C156.898 16.643 157.155 16.9971 157.49 17.2491C157.83 17.4963 158.248 17.6199 158.744 17.6199Z" fill="#EDEDED"/>
<path d="M63.4127 29.7184H66.4798V39.2023C66.4798 40.2672 66.2271 41.1989 65.7218 41.9976C65.2213 42.7962 64.52 43.419 63.6181 43.8658C62.7161 44.3079 61.6654 44.529 60.466 44.529C59.2618 44.529 58.2087 44.3079 57.3068 43.8658C56.4048 43.419 55.7036 42.7962 55.203 41.9976C54.7025 41.1989 54.4522 40.2672 54.4522 39.2023V29.7184H57.5193V38.9385C57.5193 39.4947 57.6397 39.9891 57.8805 40.4217C58.1261 40.8543 58.4708 41.1942 58.9147 41.4414C59.3586 41.6886 59.8757 41.8122 60.466 41.8122C61.061 41.8122 61.5781 41.6886 62.0172 41.4414C62.4611 41.1942 62.8035 40.8543 63.0443 40.4217C63.2899 39.9891 63.4127 39.4947 63.4127 38.9385V29.7184Z" fill="#EDEDED"/>
<path d="M71.6807 41.1704L71.6878 37.5266H72.127L75.612 33.3694H79.0758L74.3936 38.8743H73.6782L71.6807 41.1704ZM68.9465 44.3222V29.7184H71.9641V44.3222H68.9465ZM75.7466 44.3222L72.5449 39.5517L74.5566 37.4054L79.2812 44.3222H75.7466Z" fill="#EDEDED"/>
<path d="M80.5562 44.3222V33.3694H83.4816V35.2804H83.5949C83.7933 34.6006 84.1262 34.0872 84.5937 33.7402C85.0612 33.3884 85.5995 33.2125 86.2087 33.2125C86.3598 33.2125 86.5227 33.222 86.6975 33.241C86.8722 33.26 87.0257 33.2862 87.1579 33.3194V36.0149C87.0162 35.9721 86.8202 35.9341 86.57 35.9008C86.3197 35.8675 86.0906 35.8509 85.8829 35.8509C85.439 35.8509 85.0423 35.9483 84.6929 36.1432C84.3481 36.3334 84.0742 36.5996 83.8712 36.9419C83.6729 37.2841 83.5737 37.6787 83.5737 38.1256V44.3222H80.5562Z" fill="#EDEDED"/>
<path d="M91.5088 44.529C90.8147 44.529 90.196 44.4078 89.653 44.1653C89.1099 43.9181 88.6802 43.5545 88.3638 43.0743C88.0521 42.5894 87.8963 41.9857 87.8963 41.2631C87.8963 40.6546 88.0073 40.1436 88.2292 39.73C88.4512 39.3164 88.7534 38.9836 89.1359 38.7317C89.5184 38.4797 89.9529 38.2896 90.4392 38.1612C90.9304 38.0329 91.4451 37.9426 91.9834 37.8903C92.6162 37.8237 93.1262 37.7619 93.5134 37.7049C93.9006 37.6431 94.1816 37.5527 94.3563 37.4339C94.5311 37.315 94.6184 37.1392 94.6184 36.9062V36.8634C94.6184 36.4118 94.4768 36.0624 94.1934 35.8152C93.9148 35.568 93.5181 35.4444 93.0034 35.4444C92.4604 35.4444 92.0283 35.5656 91.7072 35.8081C91.3861 36.0458 91.1736 36.3453 91.0697 36.7066L88.2788 36.4784C88.4205 35.8128 88.6991 35.2376 89.1147 34.7527C89.5302 34.2631 90.0662 33.8875 90.7226 33.6261C91.3837 33.3598 92.1487 33.2267 93.0176 33.2267C93.622 33.2267 94.2005 33.298 94.753 33.4407C95.3102 33.5833 95.8037 33.8043 96.2334 34.1038C96.6679 34.4033 97.0102 34.7884 97.2605 35.259C97.5108 35.7249 97.6359 36.2835 97.6359 36.9347V44.3222H94.7743V42.8034H94.6893C94.5145 43.1456 94.2808 43.4475 93.988 43.709C93.6952 43.9657 93.3434 44.1677 92.9326 44.3151C92.5218 44.4577 92.0472 44.529 91.5088 44.529ZM92.373 42.4326C92.8169 42.4326 93.2088 42.3446 93.5488 42.1687C93.8888 41.9881 94.1557 41.7456 94.3493 41.4414C94.5429 41.1371 94.6397 40.7925 94.6397 40.4074V39.2451C94.5452 39.3069 94.4154 39.364 94.2501 39.4162C94.0895 39.4638 93.9077 39.5089 93.7047 39.5517C93.5016 39.5898 93.2986 39.6254 93.0955 39.6587C92.8925 39.6872 92.7083 39.7134 92.543 39.7371C92.1888 39.7894 91.8795 39.8726 91.6151 39.9867C91.3506 40.1008 91.1452 40.2553 90.9988 40.4502C90.8524 40.6404 90.7792 40.8781 90.7792 41.1633C90.7792 41.5769 90.928 41.893 91.2255 42.1117C91.5277 42.3256 91.9102 42.4326 92.373 42.4326Z" fill="#EDEDED"/>
<path d="M99.977 44.3222V33.3694H102.995V44.3222H99.977ZM101.493 31.9575C101.044 31.9575 100.659 31.8077 100.338 31.5082C100.022 31.204 99.8637 30.8403 99.8637 30.4172C99.8637 29.9989 100.022 29.64 100.338 29.3405C100.659 29.0362 101.044 28.8841 101.493 28.8841C101.941 28.8841 102.324 29.0362 102.64 29.3405C102.961 29.64 103.122 29.9989 103.122 30.4172C103.122 30.8403 102.961 31.204 102.64 31.5082C102.324 31.8077 101.941 31.9575 101.493 31.9575Z" fill="#EDEDED"/>
<path d="M108.429 37.9901V44.3222H105.412V33.3694H108.288V35.3018H108.415C108.656 34.6648 109.06 34.1609 109.626 33.7901C110.193 33.4145 110.88 33.2267 111.688 33.2267C112.443 33.2267 113.102 33.3931 113.664 33.7259C114.226 34.0587 114.663 34.534 114.974 35.152C115.286 35.7653 115.442 36.4974 115.442 37.3483V44.3222H112.424V37.8903C112.429 37.22 112.259 36.697 111.914 36.3215C111.57 35.9412 111.095 35.751 110.49 35.751C110.084 35.751 109.725 35.839 109.414 36.0149C109.107 36.1908 108.866 36.4475 108.691 36.785C108.521 37.1178 108.434 37.5195 108.429 37.9901Z" fill="#EDEDED"/>
<path d="M122.778 44.5361C121.659 44.5361 120.696 44.3079 119.888 43.8516C119.086 43.3905 118.467 42.7392 118.033 41.8978C117.598 41.0516 117.381 40.0509 117.381 38.8957C117.381 37.769 117.598 36.7802 118.033 35.9293C118.467 35.0784 119.078 34.4152 119.867 33.9398C120.66 33.4644 121.591 33.2267 122.658 33.2267C123.376 33.2267 124.044 33.3432 124.663 33.5761C125.286 33.8043 125.829 34.149 126.292 34.6101C126.759 35.0712 127.123 35.6512 127.383 36.35C127.642 37.0441 127.772 37.857 127.772 38.7887V39.623H118.585V37.7405H124.932C124.932 37.3032 124.837 36.9157 124.648 36.5782C124.459 36.2407 124.197 35.9768 123.862 35.7867C123.532 35.5918 123.147 35.4943 122.708 35.4943C122.249 35.4943 121.843 35.6013 121.489 35.8152C121.14 36.0244 120.866 36.3072 120.668 36.6638C120.469 37.0155 120.368 37.4077 120.363 37.8403V39.6302C120.363 40.1721 120.462 40.6404 120.66 41.0349C120.863 41.4295 121.149 41.7337 121.518 41.9477C121.886 42.1616 122.323 42.2686 122.828 42.2686C123.163 42.2686 123.47 42.221 123.749 42.1259C124.027 42.0309 124.266 41.8882 124.464 41.6981C124.663 41.5079 124.814 41.275 124.918 40.9993L127.708 41.1847C127.567 41.8597 127.276 42.4492 126.837 42.9531C126.403 43.4523 125.841 43.8421 125.151 44.1225C124.467 44.3983 123.676 44.5361 122.778 44.5361Z" fill="#EDEDED"/>
<path d="M16.3106 0.536133C14.7883 0.536133 13.3747 1.08346 12.3961 2.06865C11.4174 3.05383 10.8738 4.47688 10.8738 6.00939C10.8738 7.54191 11.8524 8.63656 12.3961 9.95014C12.5592 10.2785 12.5592 10.8259 12.5592 11.4827H0V44.3222H12.5592C12.5592 43.6654 12.5048 43.1181 12.3961 42.7897C11.8524 41.4761 10.8738 40.3815 10.8738 38.849C10.8738 37.3164 11.4174 35.8934 12.3961 34.9082C13.3747 33.923 14.7883 33.3757 16.3106 33.3757C17.833 33.3757 19.2465 33.923 20.2252 34.9082C21.2038 35.8934 21.7475 37.3164 21.7475 38.849C21.7475 40.3815 20.7689 41.4761 20.2252 42.7897C20.0621 43.1181 20.0621 43.6654 20.0621 44.3222H32.6213V31.679C33.2737 31.679 33.8174 31.7337 34.1436 31.8432C35.4484 32.3905 36.5358 33.3757 38.0581 33.3757C39.5805 33.3757 40.9941 32.8284 41.9727 31.8432C42.9513 30.858 43.495 29.4349 43.495 27.9024C43.495 26.3699 42.9513 24.9469 41.9727 23.9617C40.9941 22.9765 39.5805 22.4292 38.0581 22.4292C36.5358 22.4292 35.4484 23.4144 34.1436 23.9617C33.8174 24.1259 33.2737 24.1259 32.6213 24.1259V11.4827H20.0621C20.0621 10.8259 20.1164 10.2785 20.2252 9.95014C20.7689 8.63656 21.7475 7.54191 21.7475 6.00939C21.7475 4.47688 21.2038 3.05383 20.2252 2.06865C19.2465 1.08346 17.833 0.536133 16.3106 0.536133Z" fill="#EDEDED"/>
</svg>
