<svg width="16" height="16" viewBox="0 0 16 16" fill="none" xmlns="http://www.w3.org/2000/svg">
<g clip-path="url(#clip0_47_52)">
<path d="M2.03018 3.37565L3.59197 1.81533C3.70214 1.70467 3.83309 1.61688 3.97729 1.55698C4.1215 1.49709 4.27611 1.46627 4.43226 1.46631C4.75049 1.46631 5.04965 1.59096 5.27402 1.81533L6.95459 3.49591C7.06525 3.60608 7.15304 3.73702 7.21294 3.88123C7.27284 4.02543 7.30365 4.18005 7.30361 4.33619C7.30361 4.65442 7.17896 4.95358 6.95459 5.17795L5.72569 6.40685C6.01335 7.04089 6.41328 7.6177 6.9062 8.10942C7.39788 8.60354 7.97463 9.00493 8.60877 9.29433L9.83767 8.06543C9.94785 7.95478 10.0788 7.86698 10.223 7.80708C10.3672 7.74719 10.5218 7.71637 10.678 7.71641C10.9962 7.71641 11.2953 7.84106 11.5197 8.06543L13.2018 9.74454C13.3126 9.85491 13.4004 9.9861 13.4603 10.1306C13.5202 10.275 13.551 10.4299 13.5508 10.5863C13.5508 10.9045 13.4261 11.2037 13.2018 11.428L11.6429 12.9869C11.2851 13.3462 10.7909 13.55 10.2835 13.55C10.1764 13.55 10.0738 13.5412 9.97259 13.5236C7.99579 13.1981 6.03511 12.1466 4.45279 10.5658C2.87194 8.98637 1.82194 7.02717 1.49199 5.0445C1.39227 4.43885 1.59317 3.8156 2.03018 3.37565Z" fill="white"/>
</g>
<defs>
<clipPath id="clip0_47_52">
<rect width="15.0167" height="15.0167" fill="white" transform="matrix(-1 0 0 1 15.0176 0)"/>
</clipPath>
</defs>
</svg>
