<svg width="83" height="15" viewBox="0 0 83 15" fill="none" xmlns="http://www.w3.org/2000/svg">
<path d="M0.546 11C0.546 10.5147 0.606667 10.0807 0.728 9.698C0.858667 9.31533 1.02667 8.97 1.232 8.662C1.44667 8.354 1.68 8.06933 1.932 7.808C2.19333 7.54667 2.45933 7.29 2.73 7.038C3.41133 6.40333 3.892 5.82933 4.172 5.316C4.46133 4.80267 4.606 4.294 4.606 3.79C4.606 3.49133 4.56867 3.202 4.494 2.922C4.41933 2.642 4.284 2.41333 4.088 2.236C3.892 2.04933 3.61667 1.96067 3.262 1.97C3.01 1.97 2.78133 2.03067 2.576 2.152C2.38 2.264 2.23067 2.39933 2.128 2.558C2.23067 2.66067 2.30067 2.782 2.338 2.922C2.38467 3.062 2.408 3.18333 2.408 3.286C2.408 3.38867 2.37533 3.51467 2.31 3.664C2.24467 3.804 2.142 3.92533 2.002 4.028C1.87133 4.13067 1.68933 4.182 1.456 4.182C1.16667 4.16333 0.942667 4.056 0.784 3.86C0.634667 3.664 0.56 3.43067 0.56 3.16C0.56 2.94533 0.625333 2.71667 0.756 2.474C0.886667 2.222 1.08267 1.984 1.344 1.76C1.60533 1.52667 1.92267 1.34 2.296 1.2C2.67867 1.05067 3.11733 0.976 3.612 0.976C3.98533 0.976 4.354 1.02267 4.718 1.116C5.09133 1.20933 5.432 1.35867 5.74 1.564C6.048 1.76933 6.29067 2.04 6.468 2.376C6.65467 2.712 6.748 3.12733 6.748 3.622C6.748 3.85533 6.706 4.10267 6.622 4.364C6.538 4.616 6.384 4.896 6.16 5.204C5.936 5.50267 5.62333 5.848 5.222 6.24C4.82067 6.632 4.30267 7.08933 3.668 7.612C3.15467 8.032 2.77667 8.41467 2.534 8.76C2.29133 9.10533 2.14667 9.37133 2.1 9.558L4.844 9.628C5.05867 9.63733 5.24067 9.62333 5.39 9.586C5.54867 9.53933 5.67 9.45067 5.754 9.32C5.84733 9.18 5.894 8.97933 5.894 8.718H6.79L6.678 11H0.546ZM11.9168 11.224C11.2075 11.224 10.6055 11.0747 10.1108 10.776C9.61618 10.468 9.21951 10.0667 8.92084 9.572C8.62218 9.068 8.40284 8.51733 8.26284 7.92C8.13218 7.32267 8.06684 6.73 8.06684 6.142C8.06684 5.554 8.14618 4.95667 8.30484 4.35C8.47284 3.74333 8.72018 3.188 9.04684 2.684C9.37351 2.17067 9.77951 1.76 10.2648 1.452C10.7502 1.13467 11.3195 0.976 11.9728 0.976C12.6542 0.976 13.2328 1.13 13.7088 1.438C14.1942 1.746 14.5862 2.152 14.8848 2.656C15.1835 3.15067 15.4028 3.69667 15.5428 4.294C15.6828 4.89133 15.7528 5.484 15.7528 6.072C15.7528 6.65067 15.6735 7.24333 15.5148 7.85C15.3655 8.45667 15.1322 9.01667 14.8148 9.53C14.4975 10.034 14.0962 10.4447 13.6108 10.762C13.1348 11.07 12.5702 11.224 11.9168 11.224ZM12.0008 10.23C12.3275 10.23 12.5982 10.1273 12.8128 9.922C13.0275 9.71667 13.1908 9.43667 13.3028 9.082C13.4242 8.718 13.5082 8.30267 13.5548 7.836C13.6015 7.36933 13.6248 6.87933 13.6248 6.366C13.6248 5.79667 13.6015 5.25067 13.5548 4.728C13.5175 4.196 13.4382 3.72467 13.3168 3.314C13.2048 2.894 13.0368 2.56267 12.8128 2.32C12.5982 2.07733 12.3088 1.956 11.9448 1.956C11.6088 1.956 11.3288 2.05867 11.1048 2.264C10.8808 2.46933 10.6988 2.754 10.5588 3.118C10.4282 3.482 10.3348 3.89733 10.2788 4.364C10.2228 4.83067 10.1948 5.32533 10.1948 5.848C10.1948 6.24 10.2042 6.64133 10.2228 7.052C10.2508 7.46267 10.2975 7.85933 10.3628 8.242C10.4375 8.61533 10.5402 8.95133 10.6708 9.25C10.8015 9.54867 10.9742 9.78667 11.1888 9.964C11.4128 10.1413 11.6835 10.23 12.0008 10.23ZM16.9112 11C16.9112 10.5147 16.9719 10.0807 17.0932 9.698C17.2239 9.31533 17.3919 8.97 17.5972 8.662C17.8119 8.354 18.0452 8.06933 18.2972 7.808C18.5586 7.54667 18.8246 7.29 19.0952 7.038C19.7766 6.40333 20.2572 5.82933 20.5372 5.316C20.8266 4.80267 20.9712 4.294 20.9712 3.79C20.9712 3.49133 20.9339 3.202 20.8592 2.922C20.7846 2.642 20.6492 2.41333 20.4532 2.236C20.2572 2.04933 19.9819 1.96067 19.6272 1.97C19.3752 1.97 19.1466 2.03067 18.9412 2.152C18.7452 2.264 18.5959 2.39933 18.4932 2.558C18.5959 2.66067 18.6659 2.782 18.7032 2.922C18.7499 3.062 18.7732 3.18333 18.7732 3.286C18.7732 3.38867 18.7406 3.51467 18.6752 3.664C18.6099 3.804 18.5072 3.92533 18.3672 4.028C18.2366 4.13067 18.0546 4.182 17.8212 4.182C17.5319 4.16333 17.3079 4.056 17.1492 3.86C16.9999 3.664 16.9252 3.43067 16.9252 3.16C16.9252 2.94533 16.9906 2.71667 17.1212 2.474C17.2519 2.222 17.4479 1.984 17.7092 1.76C17.9706 1.52667 18.2879 1.34 18.6612 1.2C19.0439 1.05067 19.4826 0.976 19.9772 0.976C20.3506 0.976 20.7192 1.02267 21.0832 1.116C21.4566 1.20933 21.7972 1.35867 22.1052 1.564C22.4132 1.76933 22.6559 2.04 22.8332 2.376C23.0199 2.712 23.1132 3.12733 23.1132 3.622C23.1132 3.85533 23.0712 4.10267 22.9872 4.364C22.9032 4.616 22.7492 4.896 22.5252 5.204C22.3012 5.50267 21.9886 5.848 21.5872 6.24C21.1859 6.632 20.6679 7.08933 20.0332 7.612C19.5199 8.032 19.1419 8.41467 18.8992 8.76C18.6566 9.10533 18.5119 9.37133 18.4652 9.558L21.2092 9.628C21.4239 9.63733 21.6059 9.62333 21.7552 9.586C21.9139 9.53933 22.0352 9.45067 22.1192 9.32C22.2126 9.18 22.2592 8.97933 22.2592 8.718H23.1552L23.0432 11H16.9112ZM27.3581 11.224C26.6581 11.224 26.0841 11.1213 25.6361 10.916C25.1881 10.7013 24.8567 10.4353 24.6421 10.118C24.4274 9.80067 24.3201 9.48333 24.3201 9.166C24.3201 8.886 24.4041 8.64333 24.5721 8.438C24.7494 8.22333 24.9827 8.11133 25.2721 8.102C25.5054 8.09267 25.6874 8.13933 25.8181 8.242C25.9487 8.34467 26.0421 8.466 26.0981 8.606C26.1541 8.746 26.1821 8.87667 26.1821 8.998C26.1821 9.09133 26.1634 9.19867 26.1261 9.32C26.0887 9.432 26.0327 9.53933 25.9581 9.642C26.0607 9.81933 26.2287 9.95933 26.4621 10.062C26.7047 10.1553 26.9567 10.202 27.2181 10.202C27.8061 10.202 28.2494 10.0247 28.5481 9.67C28.8467 9.31533 28.9961 8.87667 28.9961 8.354C28.9961 8.03667 28.9354 7.71933 28.8141 7.402C28.6927 7.08467 28.4827 6.82333 28.1841 6.618C27.8854 6.40333 27.4654 6.30067 26.9241 6.31C26.8587 6.31 26.7421 6.31467 26.5741 6.324C26.4061 6.33333 26.2801 6.34267 26.1961 6.352V5.344C26.2707 5.35333 26.3407 5.358 26.4061 5.358C26.4714 5.358 26.5367 5.358 26.6021 5.358C27.0127 5.358 27.3627 5.28333 27.6521 5.134C27.9414 4.98467 28.1607 4.77933 28.3101 4.518C28.4687 4.25667 28.5527 3.95333 28.5621 3.608C28.5714 3.28133 28.5294 2.99667 28.4361 2.754C28.3521 2.502 28.2121 2.306 28.0161 2.166C27.8294 2.026 27.5774 1.956 27.2601 1.956C27.0081 1.956 26.7794 2.01667 26.5741 2.138C26.3687 2.25933 26.2287 2.39467 26.1541 2.544C26.2381 2.64667 26.2941 2.768 26.3221 2.908C26.3594 3.03867 26.3781 3.146 26.3781 3.23C26.3781 3.342 26.3454 3.47267 26.2801 3.622C26.2241 3.762 26.1261 3.88333 25.9861 3.986C25.8461 4.08867 25.6594 4.13533 25.4261 4.126C25.1367 4.11667 24.9174 4.014 24.7681 3.818C24.6187 3.622 24.5441 3.38867 24.5441 3.118C24.5441 2.838 24.6514 2.53 24.8661 2.194C25.0807 1.858 25.4074 1.57333 25.8461 1.34C26.2847 1.09733 26.8307 0.976 27.4841 0.976C28.0627 0.976 28.5854 1.05533 29.0521 1.214C29.5281 1.37267 29.9014 1.634 30.1721 1.998C30.4521 2.362 30.5921 2.84733 30.5921 3.454C30.5921 3.69667 30.5221 3.972 30.3821 4.28C30.2514 4.57867 30.0321 4.854 29.7241 5.106C29.4161 5.358 29.0054 5.54467 28.4921 5.666C29.3881 5.82467 30.0461 6.14667 30.4661 6.632C30.8954 7.11733 31.1101 7.65867 31.1101 8.256C31.1101 8.89067 30.9467 9.432 30.6201 9.88C30.3027 10.3187 29.8594 10.6547 29.2901 10.888C28.7301 11.112 28.0861 11.224 27.3581 11.224ZM36.2238 14.794L36.1958 0.359999H38.1278L38.0718 14.794H36.2238ZM43.3426 11V10.076C43.5572 10.0667 43.7346 10.0387 43.8746 9.992C44.0239 9.94533 44.1359 9.838 44.2106 9.67C44.2946 9.502 44.3366 9.23133 44.3366 8.858V3.496C44.3366 3.244 44.3412 3.00133 44.3506 2.768C44.3692 2.53467 44.3832 2.35733 44.3926 2.236C44.2432 2.24533 44.0566 2.25467 43.8326 2.264C43.6086 2.264 43.4452 2.26867 43.3426 2.278V1.2H47.3606V2.124C47.1552 2.13333 46.9779 2.16133 46.8286 2.208C46.6792 2.25467 46.5626 2.362 46.4786 2.53C46.4039 2.68867 46.3666 2.95933 46.3666 3.342V8.704C46.3666 8.956 46.3619 9.194 46.3526 9.418C46.3432 9.642 46.3292 9.81467 46.3106 9.936H48.1866C48.7372 9.92667 49.1666 9.73533 49.4746 9.362C49.7919 8.97933 49.9506 8.40533 49.9506 7.64H50.8886L50.8046 11H43.3426ZM56.4538 11.224C55.5671 11.224 54.8111 11.0747 54.1858 10.776C53.5698 10.4773 53.0705 10.0807 52.6878 9.586C52.3051 9.082 52.0251 8.52667 51.8478 7.92C51.6705 7.31333 51.5818 6.70667 51.5818 6.1C51.5818 5.512 51.6798 4.91933 51.8758 4.322C52.0811 3.71533 52.3845 3.16 52.7858 2.656C53.1965 2.152 53.7098 1.746 54.3258 1.438C54.9418 1.13 55.6651 0.976 56.4958 0.976C57.3451 0.976 58.0778 1.13 58.6938 1.438C59.3098 1.746 59.8138 2.15667 60.2058 2.67C60.5978 3.174 60.8871 3.72467 61.0738 4.322C61.2698 4.91933 61.3678 5.512 61.3678 6.1C61.3678 6.67867 61.2651 7.26667 61.0598 7.864C60.8638 8.46133 60.5605 9.01667 60.1498 9.53C59.7485 10.034 59.2398 10.4447 58.6238 10.762C58.0078 11.07 57.2845 11.224 56.4538 11.224ZM56.6078 10.202C57.0931 10.202 57.4991 10.0853 57.8258 9.852C58.1525 9.60933 58.4138 9.29667 58.6098 8.914C58.8058 8.53133 58.9458 8.116 59.0298 7.668C59.1138 7.21067 59.1558 6.76733 59.1558 6.338C59.1558 5.694 59.0998 5.106 58.9878 4.574C58.8758 4.042 58.7031 3.58467 58.4698 3.202C58.2365 2.81 57.9378 2.51133 57.5738 2.306C57.2191 2.09133 56.7991 1.98867 56.3138 1.998C55.8378 2.00733 55.4365 2.138 55.1098 2.39C54.7831 2.63267 54.5218 2.95 54.3258 3.342C54.1298 3.72467 53.9898 4.14467 53.9058 4.602C53.8218 5.05933 53.7798 5.50267 53.7798 5.932C53.7798 6.37067 53.8265 6.83733 53.9198 7.332C54.0225 7.82667 54.1811 8.29333 54.3958 8.732C54.6105 9.17067 54.8998 9.52533 55.2638 9.796C55.6278 10.0667 56.0758 10.202 56.6078 10.202ZM67.1156 11.224C66.1076 11.224 65.2489 11.0047 64.5396 10.566C63.8302 10.118 63.2889 9.516 62.9156 8.76C62.5422 8.004 62.3556 7.164 62.3556 6.24C62.3556 5.60533 62.4536 4.97533 62.6496 4.35C62.8549 3.72467 63.1582 3.16 63.5596 2.656C63.9609 2.14267 64.4649 1.73667 65.0716 1.438C65.6876 1.13 66.4016 0.976 67.2136 0.976C67.4656 0.976 67.7502 1.004 68.0676 1.06C68.3849 1.10667 68.7022 1.18133 69.0196 1.284C69.3462 1.38667 69.6356 1.51267 69.8876 1.662L69.8316 1.074H70.9096V4.336H69.9996C69.9156 3.81333 69.7522 3.37933 69.5096 3.034C69.2669 2.68867 68.9636 2.42733 68.5996 2.25C68.2356 2.07267 67.8342 1.984 67.3956 1.984C66.9102 1.984 66.4856 2.096 66.1216 2.32C65.7669 2.544 65.4729 2.84267 65.2396 3.216C65.0062 3.58933 64.8289 4.014 64.7076 4.49C64.5956 4.966 64.5396 5.456 64.5396 5.96C64.5396 6.76267 64.6516 7.47667 64.8756 8.102C65.0996 8.72733 65.4262 9.222 65.8556 9.586C66.2942 9.94067 66.8309 10.118 67.4656 10.118C67.6429 10.118 67.8529 10.104 68.0956 10.076C68.3382 10.048 68.5809 10.006 68.8236 9.95C69.0662 9.894 69.2716 9.824 69.4396 9.74V8.438C69.4396 8.186 69.4442 7.94333 69.4536 7.71C69.4722 7.47667 69.4862 7.29933 69.4956 7.178C69.3462 7.18733 69.1596 7.19667 68.9356 7.206C68.7116 7.206 68.5482 7.21067 68.4456 7.22V6.142H72.1696V7.066C72.0109 7.07533 71.8709 7.094 71.7496 7.122C71.6376 7.15 71.5396 7.206 71.4556 7.29C71.3809 7.36467 71.3249 7.48133 71.2876 7.64C71.2502 7.79867 71.2316 8.01333 71.2316 8.284V10.524H70.8956C70.6249 10.524 70.3542 10.5613 70.0836 10.636C69.8129 10.7107 69.5236 10.7947 69.2156 10.888C68.9262 10.972 68.6089 11.0467 68.2636 11.112C67.9182 11.1867 67.5356 11.224 67.1156 11.224ZM77.7683 11.224C76.8816 11.224 76.1256 11.0747 75.5003 10.776C74.8843 10.4773 74.3849 10.0807 74.0023 9.586C73.6196 9.082 73.3396 8.52667 73.1623 7.92C72.9849 7.31333 72.8963 6.70667 72.8963 6.1C72.8963 5.512 72.9943 4.91933 73.1903 4.322C73.3956 3.71533 73.6989 3.16 74.1003 2.656C74.5109 2.152 75.0243 1.746 75.6403 1.438C76.2563 1.13 76.9796 0.976 77.8103 0.976C78.6596 0.976 79.3923 1.13 80.0083 1.438C80.6243 1.746 81.1283 2.15667 81.5203 2.67C81.9123 3.174 82.2016 3.72467 82.3883 4.322C82.5843 4.91933 82.6823 5.512 82.6823 6.1C82.6823 6.67867 82.5796 7.26667 82.3743 7.864C82.1783 8.46133 81.8749 9.01667 81.4643 9.53C81.0629 10.034 80.5543 10.4447 79.9383 10.762C79.3223 11.07 78.5989 11.224 77.7683 11.224ZM77.9223 10.202C78.4076 10.202 78.8136 10.0853 79.1403 9.852C79.4669 9.60933 79.7283 9.29667 79.9243 8.914C80.1203 8.53133 80.2603 8.116 80.3443 7.668C80.4283 7.21067 80.4703 6.76733 80.4703 6.338C80.4703 5.694 80.4143 5.106 80.3023 4.574C80.1903 4.042 80.0176 3.58467 79.7843 3.202C79.5509 2.81 79.2523 2.51133 78.8883 2.306C78.5336 2.09133 78.1136 1.98867 77.6283 1.998C77.1523 2.00733 76.7509 2.138 76.4243 2.39C76.0976 2.63267 75.8363 2.95 75.6403 3.342C75.4443 3.72467 75.3043 4.14467 75.2203 4.602C75.1363 5.05933 75.0943 5.50267 75.0943 5.932C75.0943 6.37067 75.1409 6.83733 75.2343 7.332C75.3369 7.82667 75.4956 8.29333 75.7103 8.732C75.9249 9.17067 76.2143 9.52533 76.5783 9.796C76.9423 10.0667 77.3903 10.202 77.9223 10.202Z" fill="#E5E5E5"/>
</svg>
